<svg xmlns="http://www.w3.org/2000/svg" xml:space="preserve" width="100" height="100" enable-background="new -18 -18 100 100" viewBox="-18 -18 100 100"><defs><filter id="a" width="100" height="100" x="-18" y="-18" filterUnits="userSpaceOnUse"><feColorMatrix values="1 0 0 0 0 0 1 0 0 0 0 0 1 0 0 0 0 0 1 0"/></filter></defs><mask id="b" width="100" height="100" x="-18" y="-18" maskUnits="userSpaceOnUse"><g filter="url(#a)"><ellipse cx="32" cy="32" fill="#FFF" rx="50" ry="50"/></g></mask><g mask="url(#b)"><path fill="#383C42" d="M-18-14.875h3.125v3.125H-18zM-14.875-18h3.125v3.125h-3.125zm0 3.125h3.125v3.125h-3.125zM-11.75-18h3.125v3.125h-3.125z"/><path fill="#0C0E11" d="M-11.75-14.875h3.125v3.125h-3.125zM-18-18h3.125v3.125H-18z"/><path fill="#383C42" d="M-18 10.125h3.125v3.125H-18zm0-12.5h3.125V.75H-18zm3.125 0h3.125V.75h-3.125zm0 9.375h3.125v3.125h-3.125zm0 3.125h3.125v3.125h-3.125zm0-15.625h3.125v3.125h-3.125zm3.125 0h3.125v3.125h-3.125zm0-3.125h3.125V-5.5h-3.125zm0 15.625h3.125v3.125h-3.125zm0-3.125h3.125V7h-3.125zM-18 .75h3.125v3.125H-18zm0-12.5h3.125v3.125H-18z"/><path fill="#0C0E11" d="M-18-8.625h3.125V-5.5H-18zm3.125 0h3.125V-5.5h-3.125zm0-3.125h3.125v3.125h-3.125zm3.125 0h3.125v3.125h-3.125zM-18-5.5h3.125v3.125H-18zm0 9.375h3.125V7H-18zm3.125 0h3.125V7h-3.125zm0-3.125h3.125v3.125h-3.125zm3.125 0h3.125v3.125h-3.125zm0 9.375h3.125v3.125h-3.125zm0-12.5h3.125V.75h-3.125zM-18 7h3.125v3.125H-18z"/><path fill="#383C42" d="M-18 35.125h3.125v3.125H-18zm0-12.5h3.125v3.125H-18zm3.125 0h3.125v3.125h-3.125zm0 9.375h3.125v3.125h-3.125zm0 3.125h3.125v3.125h-3.125zm0-15.625h3.125v3.125h-3.125zm3.125 0h3.125v3.125h-3.125zm0-3.125h3.125V19.5h-3.125zm0 15.625h3.125v3.125h-3.125zm0-3.125h3.125V32h-3.125zM-18 25.75h3.125v3.125H-18zm0-12.5h3.125v3.125H-18z"/><path fill="#0C0E11" d="M-18 16.375h3.125V19.5H-18zm3.125 0h3.125V19.5h-3.125zm0-3.125h3.125v3.125h-3.125zm3.125 0h3.125v3.125h-3.125zM-18 19.5h3.125v3.125H-18zm0 9.375h3.125V32H-18zm3.125 0h3.125V32h-3.125zm0-3.125h3.125v3.125h-3.125zm3.125 0h3.125v3.125h-3.125zm0 9.375h3.125v3.125h-3.125zm0-12.5h3.125v3.125h-3.125zM-18 32h3.125v3.125H-18z"/><path fill="#383C42" d="M-5.5-14.875h3.125v3.125H-5.5zM-2.375-18H.75v3.125h-3.125zm0 3.125H.75v3.125h-3.125zM.75-18h3.125v3.125H.75z"/><path fill="#0C0E11" d="M.75-14.875h3.125v3.125H.75zM-5.5-18h3.125v3.125H-5.5zm-3.125 0H-5.5v3.125h-3.125zm0 3.125H-5.5v3.125h-3.125z"/><path fill="#383C42" d="M7-14.875h3.125v3.125H7zM10.125-18h3.125v3.125h-3.125zm0 3.125h3.125v3.125h-3.125zM13.25-18h3.125v3.125H13.25z"/><path fill="#0C0E11" d="M13.25-14.875h3.125v3.125H13.25zM7-18h3.125v3.125H7zm-3.125 0H7v3.125H3.875zm0 3.125H7v3.125H3.875z"/><path fill="#383C42" d="M-8.625.75H-5.5v3.125h-3.125zm0 3.125H-5.5V7h-3.125zm3.125 6.25h3.125v3.125H-5.5zm0-12.5h3.125V.75H-5.5zm3.125 0H.75V.75h-3.125zm0 9.375H.75v3.125h-3.125zm0 3.125H.75v3.125h-3.125zm0-15.625H.75v3.125h-3.125zm3.125 0h3.125v3.125H.75zm0-3.125h3.125V-5.5H.75zM.75 7h3.125v3.125H.75zm0-3.125h3.125V7H.75zM-5.5.75h3.125v3.125H-5.5zm-3.125-12.5H-5.5v3.125h-3.125zm3.125 0h3.125v3.125H-5.5zm-3.125 3.125H-5.5V-5.5h-3.125z"/><path fill="#0C0E11" d="M-8.625-5.5H-5.5v3.125h-3.125zm0 3.125H-5.5V.75h-3.125zm3.125-6.25h3.125V-5.5H-5.5zm3.125 0H.75V-5.5h-3.125zm0-3.125H.75v3.125h-3.125zm3.125 0h3.125v3.125H.75zM-5.5-5.5h3.125v3.125H-5.5zm0 9.375h3.125V7H-5.5zm3.125 0H.75V7h-3.125zm0-3.125H.75v3.125h-3.125zM.75.75h3.125v3.125H.75zm0 9.375h3.125v3.125H.75zm0-12.5h3.125V.75H.75zM-5.5 7h3.125v3.125H-5.5zm-3.125 0H-5.5v3.125h-3.125zm0 3.125H-5.5v3.125h-3.125z"/><path fill="#383C42" d="M3.875.75H7v3.125H3.875zm0 3.125H7V7H3.875zM7 10.125h3.125v3.125H7zm0-12.5h3.125V.75H7zm3.125 0h3.125V.75h-3.125zm0 9.375h3.125v3.125h-3.125zm0 3.125h3.125v3.125h-3.125zm0-15.625h3.125v3.125h-3.125zm3.125 0h3.125v3.125H13.25zm0-3.125h3.125V-5.5H13.25zM13.25 7h3.125v3.125H13.25zm0-3.125h3.125V7H13.25zM7 .75h3.125v3.125H7zm-3.125-12.5H7v3.125H3.875zm3.125 0h3.125v3.125H7zM3.875-8.625H7V-5.5H3.875z"/><path fill="#0C0E11" d="M3.875-5.5H7v3.125H3.875zm0 3.125H7V.75H3.875zM7-8.625h3.125V-5.5H7zm3.125 0h3.125V-5.5h-3.125zm0-3.125h3.125v3.125h-3.125zm3.125 0h3.125v3.125H13.25zM7-5.5h3.125v3.125H7zm0 9.375h3.125V7H7zm3.125 0h3.125V7h-3.125zm0-3.125h3.125v3.125h-3.125zm3.125 0h3.125v3.125H13.25zm0 9.375h3.125v3.125H13.25zm0-12.5h3.125V.75H13.25zM7 7h3.125v3.125H7zM3.875 7H7v3.125H3.875zm0 3.125H7v3.125H3.875z"/><path fill="#383C42" d="M-8.625 25.75H-5.5v3.125h-3.125zm0 3.125H-5.5V32h-3.125zm3.125 6.25h3.125v3.125H-5.5zm0-12.5h3.125v3.125H-5.5zm3.125 0H.75v3.125h-3.125zm0 9.375H.75v3.125h-3.125zm0 3.125H.75v3.125h-3.125zm0-15.625H.75v3.125h-3.125zm3.125 0h3.125v3.125H.75zm0-3.125h3.125V19.5H.75zM.75 32h3.125v3.125H.75zm0-3.125h3.125V32H.75zM-5.5 25.75h3.125v3.125H-5.5zm-3.125-12.5H-5.5v3.125h-3.125zm3.125 0h3.125v3.125H-5.5zm-3.125 3.125H-5.5V19.5h-3.125z"/><path fill="#0C0E11" d="M-8.625 19.5H-5.5v3.125h-3.125zm0 3.125H-5.5v3.125h-3.125zm3.125-6.25h3.125V19.5H-5.5zm3.125 0H.75V19.5h-3.125zm0-3.125H.75v3.125h-3.125zm3.125 0h3.125v3.125H.75zM-5.5 19.5h3.125v3.125H-5.5zm0 9.375h3.125V32H-5.5zm3.125 0H.75V32h-3.125zm0-3.125H.75v3.125h-3.125zm3.125 0h3.125v3.125H.75zm0 9.375h3.125v3.125H.75zm0-12.5h3.125v3.125H.75zM-5.5 32h3.125v3.125H-5.5zm-3.125 0H-5.5v3.125h-3.125zm0 3.125H-5.5v3.125h-3.125z"/><path fill="#383C42" d="M3.875 25.75H7v3.125H3.875zm0 3.125H7V32H3.875zM7 35.125h3.125v3.125H7zm0-12.5h3.125v3.125H7zm3.125 0h3.125v3.125h-3.125zm0 9.375h3.125v3.125h-3.125zm0 3.125h3.125v3.125h-3.125zm0-15.625h3.125v3.125h-3.125zm3.125 0h3.125v3.125H13.25zm0-3.125h3.125V19.5H13.25zm0 15.625h3.125v3.125H13.25zm0-3.125h3.125V32H13.25zM7 25.75h3.125v3.125H7zm-3.125-12.5H7v3.125H3.875zm3.125 0h3.125v3.125H7zm-3.125 3.125H7V19.5H3.875z"/><path fill="#0C0E11" d="M3.875 19.5H7v3.125H3.875zm0 3.125H7v3.125H3.875zM7 16.375h3.125V19.5H7zm3.125 0h3.125V19.5h-3.125zm0-3.125h3.125v3.125h-3.125zm3.125 0h3.125v3.125H13.25zM7 19.5h3.125v3.125H7zm0 9.375h3.125V32H7zm3.125 0h3.125V32h-3.125zm0-3.125h3.125v3.125h-3.125zm3.125 0h3.125v3.125H13.25zm0 9.375h3.125v3.125H13.25zm0-12.5h3.125v3.125H13.25zM7 32h3.125v3.125H7zm-3.125 0H7v3.125H3.875zm0 3.125H7v3.125H3.875z"/><path fill="#383C42" d="M19.5-14.875h3.125v3.125H19.5zM22.625-18h3.125v3.125h-3.125zm0 3.125h3.125v3.125h-3.125zM25.75-18h3.125v3.125H25.75z"/><path fill="#0C0E11" d="M25.75-14.875h3.125v3.125H25.75zM19.5-18h3.125v3.125H19.5zm-3.125 0H19.5v3.125h-3.125zm0 3.125H19.5v3.125h-3.125z"/><path fill="#383C42" d="M32-14.875h3.125v3.125H32zM35.125-18h3.125v3.125h-3.125zm0 3.125h3.125v3.125h-3.125zM38.25-18h3.125v3.125H38.25z"/><path fill="#0C0E11" d="M38.25-14.875h3.125v3.125H38.25zM32-18h3.125v3.125H32zm-3.125 0H32v3.125h-3.125zm0 3.125H32v3.125h-3.125z"/><path fill="#383C42" d="M16.375.75H19.5v3.125h-3.125zm0 3.125H19.5V7h-3.125zm3.125 6.25h3.125v3.125H19.5zm0-12.5h3.125V.75H19.5zm3.125 0h3.125V.75h-3.125zm0 9.375h3.125v3.125h-3.125zm0 3.125h3.125v3.125h-3.125zm0-15.625h3.125v3.125h-3.125zm3.125 0h3.125v3.125H25.75zm0-3.125h3.125V-5.5H25.75zM25.75 7h3.125v3.125H25.75zm0-3.125h3.125V7H25.75zM19.5.75h3.125v3.125H19.5zm-3.125-12.5H19.5v3.125h-3.125zm3.125 0h3.125v3.125H19.5zm-3.125 3.125H19.5V-5.5h-3.125z"/><path fill="#0C0E11" d="M16.375-5.5H19.5v3.125h-3.125zm0 3.125H19.5V.75h-3.125zm3.125-6.25h3.125V-5.5H19.5zm3.125 0h3.125V-5.5h-3.125zm0-3.125h3.125v3.125h-3.125zm3.125 0h3.125v3.125H25.75zM19.5-5.5h3.125v3.125H19.5zm0 9.375h3.125V7H19.5zm3.125 0h3.125V7h-3.125zm0-3.125h3.125v3.125h-3.125zm3.125 0h3.125v3.125H25.75zm0 9.375h3.125v3.125H25.75zm0-12.5h3.125V.75H25.75zM19.5 7h3.125v3.125H19.5zm-3.125 0H19.5v3.125h-3.125zm0 3.125H19.5v3.125h-3.125z"/><path fill="#383C42" d="M28.875.75H32v3.125h-3.125zm0 3.125H32V7h-3.125zM32 10.125h3.125v3.125H32zm0-12.5h3.125V.75H32zm3.125 0h3.125V.75h-3.125zm0 9.375h3.125v3.125h-3.125zm0 3.125h3.125v3.125h-3.125zm0-15.625h3.125v3.125h-3.125zm3.125 0h3.125v3.125H38.25zm0-3.125h3.125V-5.5H38.25zM38.25 7h3.125v3.125H38.25zm0-3.125h3.125V7H38.25zM32 .75h3.125v3.125H32zm-3.125-12.5H32v3.125h-3.125zm3.125 0h3.125v3.125H32zm-3.125 3.125H32V-5.5h-3.125z"/><path fill="#0C0E11" d="M28.875-5.5H32v3.125h-3.125zm0 3.125H32V.75h-3.125zM32-8.625h3.125V-5.5H32zm3.125 0h3.125V-5.5h-3.125zm0-3.125h3.125v3.125h-3.125zm3.125 0h3.125v3.125H38.25zM32-5.5h3.125v3.125H32zm0 9.375h3.125V7H32zm3.125 0h3.125V7h-3.125zm0-3.125h3.125v3.125h-3.125zm3.125 0h3.125v3.125H38.25zm0 9.375h3.125v3.125H38.25zm0-12.5h3.125V.75H38.25zM32 7h3.125v3.125H32zm-3.125 0H32v3.125h-3.125zm0 3.125H32v3.125h-3.125z"/><path fill="#383C42" d="M16.375 25.75H19.5v3.125h-3.125zm0 3.125H19.5V32h-3.125zm3.125 6.25h3.125v3.125H19.5zm0-12.5h3.125v3.125H19.5zm3.125 0h3.125v3.125h-3.125zm0 9.375h3.125v3.125h-3.125zm0 3.125h3.125v3.125h-3.125zm0-15.625h3.125v3.125h-3.125zm3.125 0h3.125v3.125H25.75zm0-3.125h3.125V19.5H25.75zm0 15.625h3.125v3.125H25.75zm0-3.125h3.125V32H25.75zM19.5 25.75h3.125v3.125H19.5zm-3.125-12.5H19.5v3.125h-3.125zm3.125 0h3.125v3.125H19.5zm-3.125 3.125H19.5V19.5h-3.125z"/><path fill="#0C0E11" d="M16.375 19.5H19.5v3.125h-3.125zm0 3.125H19.5v3.125h-3.125zm3.125-6.25h3.125V19.5H19.5zm3.125 0h3.125V19.5h-3.125zm0-3.125h3.125v3.125h-3.125zm3.125 0h3.125v3.125H25.75zM19.5 19.5h3.125v3.125H19.5zm0 9.375h3.125V32H19.5zm3.125 0h3.125V32h-3.125zm0-3.125h3.125v3.125h-3.125zm3.125 0h3.125v3.125H25.75zm0 9.375h3.125v3.125H25.75zm0-12.5h3.125v3.125H25.75zM19.5 32h3.125v3.125H19.5zm-3.125 0H19.5v3.125h-3.125zm0 3.125H19.5v3.125h-3.125z"/><path fill="#383C42" d="M28.875 25.75H32v3.125h-3.125zm0 3.125H32V32h-3.125zM32 35.125h3.125v3.125H32zm0-12.5h3.125v3.125H32zm3.125 0h3.125v3.125h-3.125zm0 9.375h3.125v3.125h-3.125zm0 3.125h3.125v3.125h-3.125zm0-15.625h3.125v3.125h-3.125zm3.125 0h3.125v3.125H38.25zm0-3.125h3.125V19.5H38.25zm0 15.625h3.125v3.125H38.25zm0-3.125h3.125V32H38.25zM32 25.75h3.125v3.125H32zm-3.125-12.5H32v3.125h-3.125zm3.125 0h3.125v3.125H32zm-3.125 3.125H32V19.5h-3.125z"/><path fill="#0C0E11" d="M28.875 19.5H32v3.125h-3.125zm0 3.125H32v3.125h-3.125zM32 16.375h3.125V19.5H32zm3.125 0h3.125V19.5h-3.125zm0-3.125h3.125v3.125h-3.125zm3.125 0h3.125v3.125H38.25zM32 19.5h3.125v3.125H32zm0 9.375h3.125V32H32zm3.125 0h3.125V32h-3.125zm0-3.125h3.125v3.125h-3.125zm3.125 0h3.125v3.125H38.25zm0 9.375h3.125v3.125H38.25zm0-12.5h3.125v3.125H38.25zM32 32h3.125v3.125H32zm-3.125 0H32v3.125h-3.125zm0 3.125H32v3.125h-3.125z"/><path fill="#383C42" d="M-18 60.125h3.125v3.125H-18zm0-12.5h3.125v3.125H-18zm3.125 0h3.125v3.125h-3.125zm0 9.375h3.125v3.125h-3.125zm0 3.125h3.125v3.125h-3.125zm0-15.625h3.125v3.125h-3.125zm3.125 0h3.125v3.125h-3.125zm0-3.125h3.125V44.5h-3.125zm0 15.625h3.125v3.125h-3.125zm0-3.125h3.125V57h-3.125zM-18 50.75h3.125v3.125H-18zm0-12.5h3.125v3.125H-18z"/><path fill="#0C0E11" d="M-18 41.375h3.125V44.5H-18zm3.125 0h3.125V44.5h-3.125zm0-3.125h3.125v3.125h-3.125zm3.125 0h3.125v3.125h-3.125zM-18 44.5h3.125v3.125H-18zm0 9.375h3.125V57H-18zm3.125 0h3.125V57h-3.125zm0-3.125h3.125v3.125h-3.125zm3.125 0h3.125v3.125h-3.125zm0 9.375h3.125v3.125h-3.125zm0-12.5h3.125v3.125h-3.125zM-18 57h3.125v3.125H-18z"/><path fill="#383C42" d="M-18 72.625h3.125v3.125H-18zm3.125 0h3.125v3.125h-3.125zm0-3.125h3.125v3.125h-3.125zm3.125 0h3.125v3.125h-3.125zm0-3.125h3.125V69.5h-3.125zm0 12.5h3.125V82h-3.125zM-18 75.75h3.125v3.125H-18zm0-12.5h3.125v3.125H-18z"/><path fill="#0C0E11" d="M-18 66.375h3.125V69.5H-18zm3.125 0h3.125V69.5h-3.125zm0-3.125h3.125v3.125h-3.125zm3.125 0h3.125v3.125h-3.125zM-18 69.5h3.125v3.125H-18zm0 9.375h3.125V82H-18zm3.125 0h3.125V82h-3.125zm0-3.125h3.125v3.125h-3.125zm3.125 0h3.125v3.125h-3.125zm0-3.125h3.125v3.125h-3.125z"/><path fill="#383C42" d="M-8.625 50.75H-5.5v3.125h-3.125zm0 3.125H-5.5V57h-3.125zm3.125 6.25h3.125v3.125H-5.5zm0-12.5h3.125v3.125H-5.5zm3.125 0H.75v3.125h-3.125zm0 9.375H.75v3.125h-3.125zm0 3.125H.75v3.125h-3.125zm0-15.625H.75v3.125h-3.125zm3.125 0h3.125v3.125H.75zm0-3.125h3.125V44.5H.75zM.75 57h3.125v3.125H.75zm0-3.125h3.125V57H.75zM-5.5 50.75h3.125v3.125H-5.5zm-3.125-12.5H-5.5v3.125h-3.125zm3.125 0h3.125v3.125H-5.5zm-3.125 3.125H-5.5V44.5h-3.125z"/><path fill="#0C0E11" d="M-8.625 44.5H-5.5v3.125h-3.125zm0 3.125H-5.5v3.125h-3.125zm3.125-6.25h3.125V44.5H-5.5zm3.125 0H.75V44.5h-3.125zm0-3.125H.75v3.125h-3.125zm3.125 0h3.125v3.125H.75zM-5.5 44.5h3.125v3.125H-5.5zm0 9.375h3.125V57H-5.5zm3.125 0H.75V57h-3.125zm0-3.125H.75v3.125h-3.125zm3.125 0h3.125v3.125H.75zm0 9.375h3.125v3.125H.75zm0-12.5h3.125v3.125H.75zM-5.5 57h3.125v3.125H-5.5zm-3.125 0H-5.5v3.125h-3.125zm0 3.125H-5.5v3.125h-3.125z"/><path fill="#383C42" d="M3.875 50.75H7v3.125H3.875zm0 3.125H7V57H3.875zM7 60.125h3.125v3.125H7zm0-12.5h3.125v3.125H7zm3.125 0h3.125v3.125h-3.125zm0 9.375h3.125v3.125h-3.125zm0 3.125h3.125v3.125h-3.125zm0-15.625h3.125v3.125h-3.125zm3.125 0h3.125v3.125H13.25zm0-3.125h3.125V44.5H13.25zm0 15.625h3.125v3.125H13.25zm0-3.125h3.125V57H13.25zM7 50.75h3.125v3.125H7zm-3.125-12.5H7v3.125H3.875zm3.125 0h3.125v3.125H7zm-3.125 3.125H7V44.5H3.875z"/><path fill="#0C0E11" d="M3.875 44.5H7v3.125H3.875zm0 3.125H7v3.125H3.875zM7 41.375h3.125V44.5H7zm3.125 0h3.125V44.5h-3.125zm0-3.125h3.125v3.125h-3.125zm3.125 0h3.125v3.125H13.25zM7 44.5h3.125v3.125H7zm0 9.375h3.125V57H7zm3.125 0h3.125V57h-3.125zm0-3.125h3.125v3.125h-3.125zm3.125 0h3.125v3.125H13.25zm0 9.375h3.125v3.125H13.25zm0-12.5h3.125v3.125H13.25zM7 57h3.125v3.125H7zm-3.125 0H7v3.125H3.875zm0 3.125H7v3.125H3.875z"/><path fill="#383C42" d="M-8.625 75.75H-5.5v3.125h-3.125zm0 3.125H-5.5V82h-3.125zm3.125-6.25h3.125v3.125H-5.5zm3.125 0H.75v3.125h-3.125zm0-3.125H.75v3.125h-3.125zm3.125 0h3.125v3.125H.75zm0-3.125h3.125V69.5H.75zm0 12.5h3.125V82H.75zM-5.5 75.75h3.125v3.125H-5.5zm-3.125-12.5H-5.5v3.125h-3.125zm3.125 0h3.125v3.125H-5.5zm-3.125 3.125H-5.5V69.5h-3.125z"/><path fill="#0C0E11" d="M-8.625 69.5H-5.5v3.125h-3.125zm0 3.125H-5.5v3.125h-3.125zm3.125-6.25h3.125V69.5H-5.5zm3.125 0H.75V69.5h-3.125zm0-3.125H.75v3.125h-3.125zm3.125 0h3.125v3.125H.75zM-5.5 69.5h3.125v3.125H-5.5zm0 9.375h3.125V82H-5.5zm3.125 0H.75V82h-3.125zm0-3.125H.75v3.125h-3.125zm3.125 0h3.125v3.125H.75zm0-3.125h3.125v3.125H.75z"/><path fill="#383C42" d="M3.875 75.75H7v3.125H3.875zm0 3.125H7V82H3.875zM7 72.625h3.125v3.125H7zm3.125 0h3.125v3.125h-3.125zm0-3.125h3.125v3.125h-3.125zm3.125 0h3.125v3.125H13.25zm0-3.125h3.125V69.5H13.25zm0 12.5h3.125V82H13.25zM7 75.75h3.125v3.125H7zm-3.125-12.5H7v3.125H3.875zm3.125 0h3.125v3.125H7zm-3.125 3.125H7V69.5H3.875z"/><path fill="#0C0E11" d="M3.875 69.5H7v3.125H3.875zm0 3.125H7v3.125H3.875zM7 66.375h3.125V69.5H7zm3.125 0h3.125V69.5h-3.125zm0-3.125h3.125v3.125h-3.125zm3.125 0h3.125v3.125H13.25zM7 69.5h3.125v3.125H7zm0 9.375h3.125V82H7zm3.125 0h3.125V82h-3.125zm0-3.125h3.125v3.125h-3.125zm3.125 0h3.125v3.125H13.25zm0-3.125h3.125v3.125H13.25z"/><path fill="#383C42" d="M16.375 50.75H19.5v3.125h-3.125zm0 3.125H19.5V57h-3.125zm3.125 6.25h3.125v3.125H19.5zm0-12.5h3.125v3.125H19.5zm3.125 0h3.125v3.125h-3.125zm0 9.375h3.125v3.125h-3.125zm0 3.125h3.125v3.125h-3.125zm0-15.625h3.125v3.125h-3.125zm3.125 0h3.125v3.125H25.75zm0-3.125h3.125V44.5H25.75zm0 15.625h3.125v3.125H25.75zm0-3.125h3.125V57H25.75zM19.5 50.75h3.125v3.125H19.5zm-3.125-12.5H19.5v3.125h-3.125zm3.125 0h3.125v3.125H19.5zm-3.125 3.125H19.5V44.5h-3.125z"/><path fill="#0C0E11" d="M16.375 44.5H19.5v3.125h-3.125zm0 3.125H19.5v3.125h-3.125zm3.125-6.25h3.125V44.5H19.5zm3.125 0h3.125V44.5h-3.125zm0-3.125h3.125v3.125h-3.125zm3.125 0h3.125v3.125H25.75zM19.5 44.5h3.125v3.125H19.5zm0 9.375h3.125V57H19.5zm3.125 0h3.125V57h-3.125zm0-3.125h3.125v3.125h-3.125zm3.125 0h3.125v3.125H25.75zm0 9.375h3.125v3.125H25.75zm0-12.5h3.125v3.125H25.75zM19.5 57h3.125v3.125H19.5zm-3.125 0H19.5v3.125h-3.125zm0 3.125H19.5v3.125h-3.125z"/><path fill="#383C42" d="M28.875 50.75H32v3.125h-3.125zm0 3.125H32V57h-3.125zM32 60.125h3.125v3.125H32zm0-12.5h3.125v3.125H32zm3.125 0h3.125v3.125h-3.125zm0 9.375h3.125v3.125h-3.125zm0 3.125h3.125v3.125h-3.125zm0-15.625h3.125v3.125h-3.125zm3.125 0h3.125v3.125H38.25zm0-3.125h3.125V44.5H38.25zm0 15.625h3.125v3.125H38.25zm0-3.125h3.125V57H38.25zM32 50.75h3.125v3.125H32zm-3.125-12.5H32v3.125h-3.125zm3.125 0h3.125v3.125H32zm-3.125 3.125H32V44.5h-3.125z"/><path fill="#0C0E11" d="M28.875 44.5H32v3.125h-3.125zm0 3.125H32v3.125h-3.125zM32 41.375h3.125V44.5H32zm3.125 0h3.125V44.5h-3.125zm0-3.125h3.125v3.125h-3.125zm3.125 0h3.125v3.125H38.25zM32 44.5h3.125v3.125H32zm0 9.375h3.125V57H32zm3.125 0h3.125V57h-3.125zm0-3.125h3.125v3.125h-3.125zm3.125 0h3.125v3.125H38.25zm0 9.375h3.125v3.125H38.25zm0-12.5h3.125v3.125H38.25zM32 57h3.125v3.125H32zm-3.125 0H32v3.125h-3.125zm0 3.125H32v3.125h-3.125z"/><path fill="#383C42" d="M16.375 75.75H19.5v3.125h-3.125zm0 3.125H19.5V82h-3.125zm3.125-6.25h3.125v3.125H19.5zm3.125 0h3.125v3.125h-3.125zm0-3.125h3.125v3.125h-3.125zm3.125 0h3.125v3.125H25.75zm0-3.125h3.125V69.5H25.75zm0 12.5h3.125V82H25.75zM19.5 75.75h3.125v3.125H19.5zm-3.125-12.5H19.5v3.125h-3.125zm3.125 0h3.125v3.125H19.5zm-3.125 3.125H19.5V69.5h-3.125z"/><path fill="#0C0E11" d="M16.375 69.5H19.5v3.125h-3.125zm0 3.125H19.5v3.125h-3.125zm3.125-6.25h3.125V69.5H19.5zm3.125 0h3.125V69.5h-3.125zm0-3.125h3.125v3.125h-3.125zm3.125 0h3.125v3.125H25.75zM19.5 69.5h3.125v3.125H19.5zm0 9.375h3.125V82H19.5zm3.125 0h3.125V82h-3.125zm0-3.125h3.125v3.125h-3.125zm3.125 0h3.125v3.125H25.75zm0-3.125h3.125v3.125H25.75z"/><path fill="#383C42" d="M28.875 75.75H32v3.125h-3.125zm0 3.125H32V82h-3.125zM32 72.625h3.125v3.125H32zm3.125 0h3.125v3.125h-3.125zm0-3.125h3.125v3.125h-3.125zm3.125 0h3.125v3.125H38.25zm0-3.125h3.125V69.5H38.25zm0 12.5h3.125V82H38.25zM32 75.75h3.125v3.125H32zm-3.125-12.5H32v3.125h-3.125zm3.125 0h3.125v3.125H32zm-3.125 3.125H32V69.5h-3.125z"/><path fill="#0C0E11" d="M28.875 69.5H32v3.125h-3.125zm0 3.125H32v3.125h-3.125zM32 66.375h3.125V69.5H32zm3.125 0h3.125V69.5h-3.125zm0-3.125h3.125v3.125h-3.125zm3.125 0h3.125v3.125H38.25zM32 69.5h3.125v3.125H32zm0 9.375h3.125V82H32zm3.125 0h3.125V82h-3.125zm0-3.125h3.125v3.125h-3.125zm3.125 0h3.125v3.125H38.25zm0-3.125h3.125v3.125H38.25z"/><path fill="#383C42" d="M44.5-14.875h3.125v3.125H44.5zM47.625-18h3.125v3.125h-3.125zm0 3.125h3.125v3.125h-3.125zM50.75-18h3.125v3.125H50.75z"/><path fill="#0C0E11" d="M50.75-14.875h3.125v3.125H50.75zM44.5-18h3.125v3.125H44.5zm-3.125 0H44.5v3.125h-3.125zm0 3.125H44.5v3.125h-3.125z"/><path fill="#383C42" d="M57-14.875h3.125v3.125H57zM60.125-18h3.125v3.125h-3.125zm0 3.125h3.125v3.125h-3.125zM63.25-18h3.125v3.125H63.25z"/><path fill="#0C0E11" d="M63.25-14.875h3.125v3.125H63.25zM57-18h3.125v3.125H57zm-3.125 0H57v3.125h-3.125zm0 3.125H57v3.125h-3.125z"/><path fill="#383C42" d="M41.375.75H44.5v3.125h-3.125zm0 3.125H44.5V7h-3.125zm3.125 6.25h3.125v3.125H44.5zm0-12.5h3.125V.75H44.5zm3.125 0h3.125V.75h-3.125zm0 9.375h3.125v3.125h-3.125zm0 3.125h3.125v3.125h-3.125zm0-15.625h3.125v3.125h-3.125zm3.125 0h3.125v3.125H50.75zm0-3.125h3.125V-5.5H50.75zM50.75 7h3.125v3.125H50.75zm0-3.125h3.125V7H50.75zM44.5.75h3.125v3.125H44.5zm-3.125-12.5H44.5v3.125h-3.125zm3.125 0h3.125v3.125H44.5zm-3.125 3.125H44.5V-5.5h-3.125z"/><path fill="#0C0E11" d="M41.375-5.5H44.5v3.125h-3.125zm0 3.125H44.5V.75h-3.125zm3.125-6.25h3.125V-5.5H44.5zm3.125 0h3.125V-5.5h-3.125zm0-3.125h3.125v3.125h-3.125zm3.125 0h3.125v3.125H50.75zM44.5-5.5h3.125v3.125H44.5zm0 9.375h3.125V7H44.5zm3.125 0h3.125V7h-3.125zm0-3.125h3.125v3.125h-3.125zm3.125 0h3.125v3.125H50.75zm0 9.375h3.125v3.125H50.75zm0-12.5h3.125V.75H50.75zM44.5 7h3.125v3.125H44.5zm-3.125 0H44.5v3.125h-3.125zm0 3.125H44.5v3.125h-3.125z"/><path fill="#383C42" d="M53.875.75H57v3.125h-3.125zm0 3.125H57V7h-3.125zM57 10.125h3.125v3.125H57zm0-12.5h3.125V.75H57zm3.125 0h3.125V.75h-3.125zm0 9.375h3.125v3.125h-3.125zm0 3.125h3.125v3.125h-3.125zm0-15.625h3.125v3.125h-3.125zm3.125 0h3.125v3.125H63.25zm0-3.125h3.125V-5.5H63.25zM63.25 7h3.125v3.125H63.25zm0-3.125h3.125V7H63.25zM57 .75h3.125v3.125H57zm-3.125-12.5H57v3.125h-3.125zm3.125 0h3.125v3.125H57zm-3.125 3.125H57V-5.5h-3.125z"/><path fill="#0C0E11" d="M53.875-5.5H57v3.125h-3.125zm0 3.125H57V.75h-3.125zM57-8.625h3.125V-5.5H57zm3.125 0h3.125V-5.5h-3.125zm0-3.125h3.125v3.125h-3.125zm3.125 0h3.125v3.125H63.25zM57-5.5h3.125v3.125H57zm0 9.375h3.125V7H57zm3.125 0h3.125V7h-3.125zm0-3.125h3.125v3.125h-3.125zm3.125 0h3.125v3.125H63.25zm0 9.375h3.125v3.125H63.25zm0-12.5h3.125V.75H63.25zM57 7h3.125v3.125H57zm-3.125 0H57v3.125h-3.125zm0 3.125H57v3.125h-3.125z"/><path fill="#383C42" d="M41.375 25.75H44.5v3.125h-3.125zm0 3.125H44.5V32h-3.125zm3.125 6.25h3.125v3.125H44.5zm0-12.5h3.125v3.125H44.5zm3.125 0h3.125v3.125h-3.125zm0 9.375h3.125v3.125h-3.125zm0 3.125h3.125v3.125h-3.125zm0-15.625h3.125v3.125h-3.125zm3.125 0h3.125v3.125H50.75zm0-3.125h3.125V19.5H50.75zm0 15.625h3.125v3.125H50.75zm0-3.125h3.125V32H50.75zM44.5 25.75h3.125v3.125H44.5zm-3.125-12.5H44.5v3.125h-3.125zm3.125 0h3.125v3.125H44.5zm-3.125 3.125H44.5V19.5h-3.125z"/><path fill="#0C0E11" d="M41.375 19.5H44.5v3.125h-3.125zm0 3.125H44.5v3.125h-3.125zm3.125-6.25h3.125V19.5H44.5zm3.125 0h3.125V19.5h-3.125zm0-3.125h3.125v3.125h-3.125zm3.125 0h3.125v3.125H50.75zM44.5 19.5h3.125v3.125H44.5zm0 9.375h3.125V32H44.5zm3.125 0h3.125V32h-3.125zm0-3.125h3.125v3.125h-3.125zm3.125 0h3.125v3.125H50.75zm0 9.375h3.125v3.125H50.75zm0-12.5h3.125v3.125H50.75zM44.5 32h3.125v3.125H44.5zm-3.125 0H44.5v3.125h-3.125zm0 3.125H44.5v3.125h-3.125z"/><path fill="#383C42" d="M53.875 25.75H57v3.125h-3.125zm0 3.125H57V32h-3.125zM57 35.125h3.125v3.125H57zm0-12.5h3.125v3.125H57zm3.125 0h3.125v3.125h-3.125zm0 9.375h3.125v3.125h-3.125zm0 3.125h3.125v3.125h-3.125zm0-15.625h3.125v3.125h-3.125zm3.125 0h3.125v3.125H63.25zm0-3.125h3.125V19.5H63.25zm0 15.625h3.125v3.125H63.25zm0-3.125h3.125V32H63.25zM57 25.75h3.125v3.125H57zm-3.125-12.5H57v3.125h-3.125zm3.125 0h3.125v3.125H57zm-3.125 3.125H57V19.5h-3.125z"/><path fill="#0C0E11" d="M53.875 19.5H57v3.125h-3.125zm0 3.125H57v3.125h-3.125zM57 16.375h3.125V19.5H57zm3.125 0h3.125V19.5h-3.125zm0-3.125h3.125v3.125h-3.125zm3.125 0h3.125v3.125H63.25zM57 19.5h3.125v3.125H57zm0 9.375h3.125V32H57zm3.125 0h3.125V32h-3.125zm0-3.125h3.125v3.125h-3.125zm3.125 0h3.125v3.125H63.25zm0 9.375h3.125v3.125H63.25zm0-12.5h3.125v3.125H63.25zM57 32h3.125v3.125H57zm-3.125 0H57v3.125h-3.125zm0 3.125H57v3.125h-3.125z"/><path fill="#383C42" d="M69.5-14.875h3.125v3.125H69.5zM72.625-18h3.125v3.125h-3.125zm0 3.125h3.125v3.125h-3.125zM75.75-18h3.125v3.125H75.75z"/><path fill="#0C0E11" d="M75.75-14.875h3.125v3.125H75.75zM69.5-18h3.125v3.125H69.5zm-3.125 0H69.5v3.125h-3.125zm0 3.125H69.5v3.125h-3.125zM78.875-18H82v3.125h-3.125zm0 3.125H82v3.125h-3.125z"/><path fill="#383C42" d="M66.375.75H69.5v3.125h-3.125zm0 3.125H69.5V7h-3.125zm3.125 6.25h3.125v3.125H69.5zm0-12.5h3.125V.75H69.5zm3.125 0h3.125V.75h-3.125zm0 9.375h3.125v3.125h-3.125zm0 3.125h3.125v3.125h-3.125zm0-15.625h3.125v3.125h-3.125zm3.125 0h3.125v3.125H75.75zm0-3.125h3.125V-5.5H75.75zM75.75 7h3.125v3.125H75.75zm0-3.125h3.125V7H75.75zM69.5.75h3.125v3.125H69.5zm-3.125-12.5H69.5v3.125h-3.125zm3.125 0h3.125v3.125H69.5zm-3.125 3.125H69.5V-5.5h-3.125z"/><path fill="#0C0E11" d="M66.375-5.5H69.5v3.125h-3.125zm0 3.125H69.5V.75h-3.125zm3.125-6.25h3.125V-5.5H69.5zm3.125 0h3.125V-5.5h-3.125zm0-3.125h3.125v3.125h-3.125zm3.125 0h3.125v3.125H75.75zM69.5-5.5h3.125v3.125H69.5zm0 9.375h3.125V7H69.5zm3.125 0h3.125V7h-3.125zm0-3.125h3.125v3.125h-3.125zm3.125 0h3.125v3.125H75.75zm0 9.375h3.125v3.125H75.75zm0-12.5h3.125V.75H75.75zM69.5 7h3.125v3.125H69.5zm-3.125 0H69.5v3.125h-3.125zm0 3.125H69.5v3.125h-3.125z"/><path fill="#383C42" d="M78.875.75H82v3.125h-3.125zm0 3.125H82V7h-3.125zm0-15.625H82v3.125h-3.125zm0 3.125H82V-5.5h-3.125z"/><path fill="#0C0E11" d="M78.875-5.5H82v3.125h-3.125zm0 3.125H82V.75h-3.125zm0 9.375H82v3.125h-3.125zm0 3.125H82v3.125h-3.125z"/><path fill="#383C42" d="M66.375 25.75H69.5v3.125h-3.125zm0 3.125H69.5V32h-3.125zm3.125 6.25h3.125v3.125H69.5zm0-12.5h3.125v3.125H69.5zm3.125 0h3.125v3.125h-3.125zm0 9.375h3.125v3.125h-3.125zm0 3.125h3.125v3.125h-3.125zm0-15.625h3.125v3.125h-3.125zm3.125 0h3.125v3.125H75.75zm0-3.125h3.125V19.5H75.75zm0 15.625h3.125v3.125H75.75zm0-3.125h3.125V32H75.75zM69.5 25.75h3.125v3.125H69.5zm-3.125-12.5H69.5v3.125h-3.125zm3.125 0h3.125v3.125H69.5zm-3.125 3.125H69.5V19.5h-3.125z"/><path fill="#0C0E11" d="M66.375 19.5H69.5v3.125h-3.125zm0 3.125H69.5v3.125h-3.125zm3.125-6.25h3.125V19.5H69.5zm3.125 0h3.125V19.5h-3.125zm0-3.125h3.125v3.125h-3.125zm3.125 0h3.125v3.125H75.75zM69.5 19.5h3.125v3.125H69.5zm0 9.375h3.125V32H69.5zm3.125 0h3.125V32h-3.125zm0-3.125h3.125v3.125h-3.125zm3.125 0h3.125v3.125H75.75zm0 9.375h3.125v3.125H75.75zm0-12.5h3.125v3.125H75.75zM69.5 32h3.125v3.125H69.5zm-3.125 0H69.5v3.125h-3.125zm0 3.125H69.5v3.125h-3.125z"/><path fill="#383C42" d="M78.875 25.75H82v3.125h-3.125zm0 3.125H82V32h-3.125zm0-15.625H82v3.125h-3.125zm0 3.125H82V19.5h-3.125z"/><path fill="#0C0E11" d="M78.875 19.5H82v3.125h-3.125zm0 3.125H82v3.125h-3.125zm0 9.375H82v3.125h-3.125zm0 3.125H82v3.125h-3.125z"/><path fill="#383C42" d="M41.375 50.75H44.5v3.125h-3.125zm0 3.125H44.5V57h-3.125zm3.125 6.25h3.125v3.125H44.5zm0-12.5h3.125v3.125H44.5zm3.125 0h3.125v3.125h-3.125zm0 9.375h3.125v3.125h-3.125zm0 3.125h3.125v3.125h-3.125zm0-15.625h3.125v3.125h-3.125zm3.125 0h3.125v3.125H50.75zm0-3.125h3.125V44.5H50.75zm0 15.625h3.125v3.125H50.75zm0-3.125h3.125V57H50.75zM44.5 50.75h3.125v3.125H44.5zm-3.125-12.5H44.5v3.125h-3.125zm3.125 0h3.125v3.125H44.5zm-3.125 3.125H44.5V44.5h-3.125z"/><path fill="#0C0E11" d="M41.375 44.5H44.5v3.125h-3.125zm0 3.125H44.5v3.125h-3.125zm3.125-6.25h3.125V44.5H44.5zm3.125 0h3.125V44.5h-3.125zm0-3.125h3.125v3.125h-3.125zm3.125 0h3.125v3.125H50.75zM44.5 44.5h3.125v3.125H44.5zm0 9.375h3.125V57H44.5zm3.125 0h3.125V57h-3.125zm0-3.125h3.125v3.125h-3.125zm3.125 0h3.125v3.125H50.75zm0 9.375h3.125v3.125H50.75zm0-12.5h3.125v3.125H50.75zM44.5 57h3.125v3.125H44.5zm-3.125 0H44.5v3.125h-3.125zm0 3.125H44.5v3.125h-3.125z"/><path fill="#383C42" d="M53.875 50.75H57v3.125h-3.125zm0 3.125H57V57h-3.125zM57 60.125h3.125v3.125H57zm0-12.5h3.125v3.125H57zm3.125 0h3.125v3.125h-3.125zm0 9.375h3.125v3.125h-3.125zm0 3.125h3.125v3.125h-3.125zm0-15.625h3.125v3.125h-3.125zm3.125 0h3.125v3.125H63.25zm0-3.125h3.125V44.5H63.25zm0 15.625h3.125v3.125H63.25zm0-3.125h3.125V57H63.25zM57 50.75h3.125v3.125H57zm-3.125-12.5H57v3.125h-3.125zm3.125 0h3.125v3.125H57zm-3.125 3.125H57V44.5h-3.125z"/><path fill="#0C0E11" d="M53.875 44.5H57v3.125h-3.125zm0 3.125H57v3.125h-3.125zM57 41.375h3.125V44.5H57zm3.125 0h3.125V44.5h-3.125zm0-3.125h3.125v3.125h-3.125zm3.125 0h3.125v3.125H63.25zM57 44.5h3.125v3.125H57zm0 9.375h3.125V57H57zm3.125 0h3.125V57h-3.125zm0-3.125h3.125v3.125h-3.125zm3.125 0h3.125v3.125H63.25zm0 9.375h3.125v3.125H63.25zm0-12.5h3.125v3.125H63.25zM57 57h3.125v3.125H57zm-3.125 0H57v3.125h-3.125zm0 3.125H57v3.125h-3.125z"/><path fill="#383C42" d="M41.375 75.75H44.5v3.125h-3.125zm0 3.125H44.5V82h-3.125zm3.125-6.25h3.125v3.125H44.5zm3.125 0h3.125v3.125h-3.125zm0-3.125h3.125v3.125h-3.125zm3.125 0h3.125v3.125H50.75zm0-3.125h3.125V69.5H50.75zm0 12.5h3.125V82H50.75zM44.5 75.75h3.125v3.125H44.5zm-3.125-12.5H44.5v3.125h-3.125zm3.125 0h3.125v3.125H44.5zm-3.125 3.125H44.5V69.5h-3.125z"/><path fill="#0C0E11" d="M41.375 69.5H44.5v3.125h-3.125zm0 3.125H44.5v3.125h-3.125zm3.125-6.25h3.125V69.5H44.5zm3.125 0h3.125V69.5h-3.125zm0-3.125h3.125v3.125h-3.125zm3.125 0h3.125v3.125H50.75zM44.5 69.5h3.125v3.125H44.5zm0 9.375h3.125V82H44.5zm3.125 0h3.125V82h-3.125zm0-3.125h3.125v3.125h-3.125zm3.125 0h3.125v3.125H50.75zm0-3.125h3.125v3.125H50.75z"/><path fill="#383C42" d="M53.875 75.75H57v3.125h-3.125zm0 3.125H57V82h-3.125zM57 72.625h3.125v3.125H57zm3.125 0h3.125v3.125h-3.125zm0-3.125h3.125v3.125h-3.125zm3.125 0h3.125v3.125H63.25zm0-3.125h3.125V69.5H63.25zm0 12.5h3.125V82H63.25zM57 75.75h3.125v3.125H57zm-3.125-12.5H57v3.125h-3.125zm3.125 0h3.125v3.125H57zm-3.125 3.125H57V69.5h-3.125z"/><path fill="#0C0E11" d="M53.875 69.5H57v3.125h-3.125zm0 3.125H57v3.125h-3.125zM57 66.375h3.125V69.5H57zm3.125 0h3.125V69.5h-3.125zm0-3.125h3.125v3.125h-3.125zm3.125 0h3.125v3.125H63.25zM57 69.5h3.125v3.125H57zm0 9.375h3.125V82H57zm3.125 0h3.125V82h-3.125zm0-3.125h3.125v3.125h-3.125zm3.125 0h3.125v3.125H63.25zm0-3.125h3.125v3.125H63.25z"/><path fill="#383C42" d="M66.375 50.75H69.5v3.125h-3.125zm0 3.125H69.5V57h-3.125zm3.125 6.25h3.125v3.125H69.5zm0-12.5h3.125v3.125H69.5zm3.125 0h3.125v3.125h-3.125zm0 9.375h3.125v3.125h-3.125zm0 3.125h3.125v3.125h-3.125zm0-15.625h3.125v3.125h-3.125zm3.125 0h3.125v3.125H75.75zm0-3.125h3.125V44.5H75.75zm0 15.625h3.125v3.125H75.75zm0-3.125h3.125V57H75.75zM69.5 50.75h3.125v3.125H69.5zm-3.125-12.5H69.5v3.125h-3.125zm3.125 0h3.125v3.125H69.5zm-3.125 3.125H69.5V44.5h-3.125z"/><path fill="#0C0E11" d="M66.375 44.5H69.5v3.125h-3.125zm0 3.125H69.5v3.125h-3.125zm3.125-6.25h3.125V44.5H69.5zm3.125 0h3.125V44.5h-3.125zm0-3.125h3.125v3.125h-3.125zm3.125 0h3.125v3.125H75.75zM69.5 44.5h3.125v3.125H69.5zm0 9.375h3.125V57H69.5zm3.125 0h3.125V57h-3.125zm0-3.125h3.125v3.125h-3.125zm3.125 0h3.125v3.125H75.75zm0 9.375h3.125v3.125H75.75zm0-12.5h3.125v3.125H75.75zM69.5 57h3.125v3.125H69.5zm-3.125 0H69.5v3.125h-3.125zm0 3.125H69.5v3.125h-3.125z"/><path fill="#383C42" d="M78.875 50.75H82v3.125h-3.125zm0 3.125H82V57h-3.125zm0-15.625H82v3.125h-3.125zm0 3.125H82V44.5h-3.125z"/><path fill="#0C0E11" d="M78.875 44.5H82v3.125h-3.125zm0 3.125H82v3.125h-3.125zm0 9.375H82v3.125h-3.125zm0 3.125H82v3.125h-3.125z"/><path fill="#383C42" d="M66.375 75.75H69.5v3.125h-3.125zm0 3.125H69.5V82h-3.125zm3.125-6.25h3.125v3.125H69.5zm3.125 0h3.125v3.125h-3.125zm0-3.125h3.125v3.125h-3.125zm3.125 0h3.125v3.125H75.75zm0-3.125h3.125V69.5H75.75zm0 12.5h3.125V82H75.75zM69.5 75.75h3.125v3.125H69.5zm-3.125-12.5H69.5v3.125h-3.125zm3.125 0h3.125v3.125H69.5zm-3.125 3.125H69.5V69.5h-3.125z"/><path fill="#0C0E11" d="M66.375 69.5H69.5v3.125h-3.125zm0 3.125H69.5v3.125h-3.125zm3.125-6.25h3.125V69.5H69.5zm3.125 0h3.125V69.5h-3.125zm0-3.125h3.125v3.125h-3.125zm3.125 0h3.125v3.125H75.75zM69.5 69.5h3.125v3.125H69.5zm0 9.375h3.125V82H69.5zm3.125 0h3.125V82h-3.125zm0-3.125h3.125v3.125h-3.125zm3.125 0h3.125v3.125H75.75zm0-3.125h3.125v3.125H75.75z"/><path fill="#383C42" d="M78.875 75.75H82v3.125h-3.125zm0 3.125H82V82h-3.125zm0-15.625H82v3.125h-3.125zm0 3.125H82V69.5h-3.125z"/><path fill="#0C0E11" d="M78.875 69.5H82v3.125h-3.125zm0 3.125H82v3.125h-3.125z"/></g></svg>