<svg xmlns="http://www.w3.org/2000/svg" id="图层_1" data-name="图层 1" viewBox="0 0 201 201"><defs><clipPath id="clip-path"><path d="M5.5 100.5a95 95 0 1 0 95-95 95 95 0 0 0-95 95" class="cls-1"/></clipPath><clipPath id="clip-path-3"><path d="M222.32 100.5a95 95 0 1 0 95-95 95 95 0 0 0-95 95" class="cls-1"/></clipPath><style>.cls-1{fill:none}.cls-2{clip-path:url(#clip-path)}.cls-3{stroke:#fff;stroke-miterlimit:10}.cls-4{fill:#383c42}.cls-5{clip-path:url(#clip-path-3)}.cls-6{fill:#0c0e11}</style></defs><g class="cls-2"><path d="M.5.5h200v200H.5z" class="cls-3"/></g><g class="cls-2"><path d="M5.5 171.75h23.75v23.75H5.5z"/><path d="M5.5 124.25h23.75v47.5H5.5zM29.25 148H53v47.5H29.25zM53 171.75h23.75v23.75H53zM5.5 29.25h23.75v47.5H5.5zM29.25 53H53v47.5H29.25z" class="cls-4"/><path d="M5.5 76.75h23.75v47.5H5.5zm23.75 23.75H53V148H29.25zM53 124.25h23.75v47.5H53z"/><path d="M53 76.75h23.75v47.5H53zm23.75 23.75h23.75V148H76.75zm23.75 23.75h23.75v47.5H100.5zM124.25 148H148v47.5h-23.75z" class="cls-4"/><path d="M76.75 148h23.75v47.5H76.75zm23.75 23.75h23.75v23.75H100.5zM29.25 5.5H53V53H29.25zM5.5 5.5h23.75v23.75H5.5zM53 29.25h23.75v47.5H53z"/><path d="M53 5.5h23.75v23.75H53zm23.75 0h23.75V53H76.75zm23.75 23.75h23.75v47.5H100.5z" class="cls-4"/><path d="M76.75 53h23.75v47.5H76.75zm23.75 23.75h23.75v47.5H100.5zm23.75 23.75H148V148h-23.75z"/><path d="M124.25 53H148v47.5h-23.75zM148 76.75h23.75v47.5H148zm23.75 23.75h23.75V148h-23.75z" class="cls-4"/><path d="M148 124.25h23.75v47.5H148zM100.5 5.5h23.75v23.75H100.5z"/><path d="M148 5.5h23.75v23.75H148z" class="cls-4"/><path d="M124.25 5.5H148V53h-23.75zM148 29.25h23.75v47.5H148zM171.75 53h23.75v47.5h-23.75z"/><path d="M171.75 5.5h23.75V53h-23.75zM148 171.75h23.75v23.75H148z" class="cls-4"/><path d="M171.75 148h23.75v47.5h-23.75z"/></g><g class="cls-5"><path d="M20.48-1.14h5.61v5.61h-5.61zm-5.61 0h5.61v5.61h-5.61z" class="cls-6"/><path d="M14.87 4.47h5.61v5.61h-5.61z" class="cls-6"/><path d="M31.7-1.14h5.61v5.61H31.7zm-5.61 0h5.61v5.61h-5.61z" class="cls-4"/><path d="M26.09 4.47h5.61v5.61h-5.61zm-5.61 0h5.61v5.61h-5.61zm0 5.61h5.61v5.61h-5.61zm-5.61 0h5.61v5.61h-5.61z" class="cls-4"/><path d="M14.87 15.68h5.61v5.61h-5.61z" class="cls-4"/><path d="M42.91-1.14h5.61v5.61h-5.61z" class="cls-6"/><path d="M37.31-1.14h5.61v5.61h-5.61z" class="cls-6"/><path d="M37.31 4.47h5.61v5.61h-5.61zm-5.61 0h5.61v5.61H31.7zm0 5.61h5.61v5.61H31.7zm-5.61 0h5.61v5.61h-5.61z" class="cls-6"/><path d="M26.09 15.68h5.61v5.61h-5.61zm-5.61 0h5.61v5.61h-5.61zm0 5.61h5.61v5.61h-5.61zm-5.61 0h5.61v5.61h-5.61zm0 5.61h5.61v5.61h-5.61z" class="cls-6"/><path d="M54.13-1.14h5.61v5.61h-5.61zm-5.61 0h5.61v5.61h-5.61z" class="cls-4"/><path d="M48.52 4.47h5.61v5.61h-5.61zm-5.61 0h5.61v5.61h-5.61zm0 5.61h5.61v5.61h-5.61z" class="cls-4"/><path d="M37.31 10.08h5.61v5.61h-5.61z" class="cls-4"/><path d="M37.31 15.68h5.61v5.61h-5.61zm-5.61 0h5.61v5.61H31.7zm0 5.61h5.61v5.61H31.7zm-5.61 0h5.61v5.61h-5.61zm0 5.61h5.61v5.61h-5.61zm-5.61 0h5.61v5.61h-5.61zm0 5.61h5.61v5.61h-5.61zm-5.61 0h5.61v5.61h-5.61z" class="cls-4"/><path d="M14.87 38.11h5.61v5.61h-5.61z" class="cls-4"/><path d="M65.35-1.14h5.61v5.61h-5.61z" class="cls-6"/><path d="M59.74-1.14h5.61v5.61h-5.61z" class="cls-6"/><path d="M59.74 4.47h5.61v5.61h-5.61zm-5.61 0h5.61v5.61h-5.61zm0 5.61h5.61v5.61h-5.61zm-5.61 0h5.61v5.61h-5.61z" class="cls-6"/><path d="M48.52 15.68h5.61v5.61h-5.61zm-5.61 0h5.61v5.61h-5.61zm0 5.61h5.61v5.61h-5.61z" class="cls-6"/><path d="M37.31 21.29h5.61v5.61h-5.61zm0 5.61h5.61v5.61h-5.61zm-5.61 0h5.61v5.61H31.7zm0 5.61h5.61v5.61H31.7zm-5.61 0h5.61v5.61h-5.61z" class="cls-6"/><path d="M26.09 38.11h5.61v5.61h-5.61zm-5.61 0h5.61v5.61h-5.61zm0 5.61h5.61v5.61h-5.61zm-5.61 0h5.61v5.61h-5.61zm0 5.61h5.61v5.61h-5.61z" class="cls-6"/><path d="M76.56-1.14h5.61v5.61h-5.61zm-5.61 0h5.61v5.61h-5.61z" class="cls-4"/><path d="M70.95 4.47h5.61v5.61h-5.61z" class="cls-4"/><path d="M65.35 4.47h5.61v5.61h-5.61zm0 5.61h5.61v5.61h-5.61z" class="cls-4"/><path d="M59.74 10.08h5.61v5.61h-5.61z" class="cls-4"/><path d="M59.74 15.68h5.61v5.61h-5.61zm-5.61 0h5.61v5.61h-5.61zm0 5.61h5.61v5.61h-5.61zm-5.61 0h5.61v5.61h-5.61zm0 5.61h5.61v5.61h-5.61zm-5.61 0h5.61v5.61h-5.61zm0 5.61h5.61v5.61h-5.61z" class="cls-4"/><path d="M37.31 32.51h5.61v5.61h-5.61z" class="cls-4"/><path d="M37.31 38.11h5.61v5.61h-5.61zm-5.61 0h5.61v5.61H31.7zm0 5.61h5.61v5.61H31.7zm-5.61 0h5.61v5.61h-5.61zm0 5.61h5.61v5.61h-5.61zm-5.61 0h5.61v5.61h-5.61zm0 5.61h5.61v5.61h-5.61zm-5.61 0h5.61v5.61h-5.61zm0 5.61h5.61v5.61h-5.61z" class="cls-4"/><path d="M87.78-1.14h5.61v5.61h-5.61zm-5.61 0h5.61v5.61h-5.61z" class="cls-6"/><path d="M82.17 4.47h5.61v5.61h-5.61zm-5.61 0h5.61v5.61h-5.61zm0 5.61h5.61v5.61h-5.61zm-5.61 0h5.61v5.61h-5.61z" class="cls-6"/><path d="M70.95 15.68h5.61v5.61h-5.61z" class="cls-6"/><path d="M65.35 15.68h5.61v5.61h-5.61zm0 5.61h5.61v5.61h-5.61z" class="cls-6"/><path d="M59.74 21.29h5.61v5.61h-5.61zm0 5.61h5.61v5.61h-5.61zm-5.61 0h5.61v5.61h-5.61zm0 5.61h5.61v5.61h-5.61zm-5.61 0h5.61v5.61h-5.61z" class="cls-6"/><path d="M48.52 38.11h5.61v5.61h-5.61zm-5.61 0h5.61v5.61h-5.61zm0 5.61h5.61v5.61h-5.61z" class="cls-6"/><path d="M37.31 43.72h5.61v5.61h-5.61zm0 5.61h5.61v5.61h-5.61zm-5.61 0h5.61v5.61H31.7zm0 5.61h5.61v5.61H31.7zm-5.61 0h5.61v5.61h-5.61zm0 5.61h5.61v5.61h-5.61zm-5.61 0h5.61v5.61h-5.61z" class="cls-6"/><path d="M20.48 66.15h5.61v5.61h-5.61zm-5.61 0h5.61v5.61h-5.61zm0 5.61h5.61v5.61h-5.61z" class="cls-6"/><path d="M98.99-1.14h5.61v5.61h-5.61zm-5.61 0h5.61v5.61h-5.61z" class="cls-4"/><path d="M93.38 4.47h5.61v5.61h-5.61z" class="cls-4"/><path d="M87.78 4.47h5.61v5.61h-5.61zm0 5.61h5.61v5.61h-5.61zm-5.61 0h5.61v5.61h-5.61z" class="cls-4"/><path d="M82.17 15.68h5.61v5.61h-5.61zm-5.61 0h5.61v5.61h-5.61zm0 5.61h5.61v5.61h-5.61zm-5.61 0h5.61v5.61h-5.61zm0 5.61h5.61v5.61h-5.61z" class="cls-4"/><path d="M65.35 26.9h5.61v5.61h-5.61zm0 5.61h5.61v5.61h-5.61z" class="cls-4"/><path d="M59.74 32.51h5.61v5.61h-5.61z" class="cls-4"/><path d="M59.74 38.11h5.61v5.61h-5.61zm-5.61 0h5.61v5.61h-5.61zm0 5.61h5.61v5.61h-5.61zm-5.61 0h5.61v5.61h-5.61zm0 5.61h5.61v5.61h-5.61zm-5.61 0h5.61v5.61h-5.61zm0 5.61h5.61v5.61h-5.61z" class="cls-4"/><path d="M37.31 54.94h5.61v5.61h-5.61zm0 5.61h5.61v5.61h-5.61zm-5.61 0h5.61v5.61H31.7z" class="cls-4"/><path d="M31.7 66.15h5.61v5.61H31.7zm-5.61 0h5.61v5.61h-5.61zm0 5.61h5.61v5.61h-5.61zm-5.61 0h5.61v5.61h-5.61zm0 5.61h5.61v5.61h-5.61zm-5.61 0h5.61v5.61h-5.61zm0 5.61h5.61v5.61h-5.61z" class="cls-4"/><path d="M110.21-1.14h5.61v5.61h-5.61zm-5.61 0h5.61v5.61h-5.61z" class="cls-6"/><path d="M104.6 4.47h5.61v5.61h-5.61zm-5.61 0h5.61v5.61h-5.61zm0 5.61h5.61v5.61h-5.61zm-5.61 0h5.61v5.61h-5.61z" class="cls-6"/><path d="M93.38 15.68h5.61v5.61h-5.61z" class="cls-6"/><path d="M87.78 15.68h5.61v5.61h-5.61zm0 5.61h5.61v5.61h-5.61zm-5.61 0h5.61v5.61h-5.61zm0 5.61h5.61v5.61h-5.61zm-5.61 0h5.61v5.61h-5.61zm0 5.61h5.61v5.61h-5.61zm-5.61 0h5.61v5.61h-5.61z" class="cls-6"/><path d="M70.95 38.11h5.61v5.61h-5.61z" class="cls-6"/><path d="M65.35 38.11h5.61v5.61h-5.61zm0 5.61h5.61v5.61h-5.61z" class="cls-6"/><path d="M59.74 43.72h5.61v5.61h-5.61zm0 5.61h5.61v5.61h-5.61zm-5.61 0h5.61v5.61h-5.61zm0 5.61h5.61v5.61h-5.61zm-5.61 0h5.61v5.61h-5.61zm0 5.61h5.61v5.61h-5.61zm-5.61 0h5.61v5.61h-5.61z" class="cls-6"/><path d="M42.91 66.15h5.61v5.61h-5.61z" class="cls-6"/><path d="M37.31 66.15h5.61v5.61h-5.61zm0 5.61h5.61v5.61h-5.61zm-5.61 0h5.61v5.61H31.7zm0 5.61h5.61v5.61H31.7zm-5.61 0h5.61v5.61h-5.61zm0 5.61h5.61v5.61h-5.61zm-5.61 0h5.61v5.61h-5.61zm0 5.61h5.61v5.61h-5.61zm-5.61 0h5.61v5.61h-5.61z" class="cls-6"/><path d="M14.87 94.19h5.61v5.61h-5.61z" class="cls-6"/><path d="M121.42-1.14h5.61v5.61h-5.61z" class="cls-4"/><path d="M115.82-1.14h5.61v5.61h-5.61z" class="cls-4"/><path d="M115.82 4.47h5.61v5.61h-5.61zm-5.61 0h5.61v5.61h-5.61zm0 5.61h5.61v5.61h-5.61zm-5.61 0h5.61v5.61h-5.61z" class="cls-4"/><path d="M104.6 15.68h5.61v5.61h-5.61zm-5.61 0h5.61v5.61h-5.61zm0 5.61h5.61v5.61h-5.61zm-5.61 0h5.61v5.61h-5.61zm0 5.61h5.61v5.61h-5.61z" class="cls-4"/><path d="M87.78 26.9h5.61v5.61h-5.61zm0 5.61h5.61v5.61h-5.61zm-5.61 0h5.61v5.61h-5.61z" class="cls-4"/><path d="M82.17 38.11h5.61v5.61h-5.61zm-5.61 0h5.61v5.61h-5.61zm0 5.61h5.61v5.61h-5.61zm-5.61 0h5.61v5.61h-5.61zm0 5.61h5.61v5.61h-5.61z" class="cls-4"/><path d="M65.35 49.33h5.61v5.61h-5.61zm0 5.61h5.61v5.61h-5.61z" class="cls-4"/><path d="M59.74 54.94h5.61v5.61h-5.61zm0 5.61h5.61v5.61h-5.61zm-5.61 0h5.61v5.61h-5.61z" class="cls-4"/><path d="M54.13 66.15h5.61v5.61h-5.61zm-5.61 0h5.61v5.61h-5.61zm0 5.61h5.61v5.61h-5.61zm-5.61 0h5.61v5.61h-5.61zm0 5.61h5.61v5.61h-5.61z" class="cls-4"/><path d="M37.31 77.37h5.61v5.61h-5.61zm0 5.61h5.61v5.61h-5.61zm-5.61 0h5.61v5.61H31.7zm0 5.61h5.61v5.61H31.7zm-5.61 0h5.61v5.61h-5.61z" class="cls-4"/><path d="M26.09 94.19h5.61v5.61h-5.61zm-5.61 0h5.61v5.61h-5.61zm0 5.61h5.61v5.61h-5.61zm-5.61 0h5.61v5.61h-5.61zm0 5.61h5.61v5.61h-5.61z" class="cls-4"/><path d="M132.64-1.14h5.61v5.61h-5.61z" class="cls-6"/><path d="M127.03-1.14h5.61v5.61h-5.61z" class="cls-6"/><path d="M127.03 4.47h5.61v5.61h-5.61zm-5.61 0h5.61v5.61h-5.61zm0 5.61h5.61v5.61h-5.61z" class="cls-6"/><path d="M115.82 10.08h5.61v5.61h-5.61z" class="cls-6"/><path d="M115.82 15.68h5.61v5.61h-5.61zm-5.61 0h5.61v5.61h-5.61zm0 5.61h5.61v5.61h-5.61zm-5.61 0h5.61v5.61h-5.61zm0 5.61h5.61v5.61h-5.61zm-5.61 0h5.61v5.61h-5.61zm0 5.61h5.61v5.61h-5.61zm-5.61 0h5.61v5.61h-5.61z" class="cls-6"/><path d="M93.38 38.11h5.61v5.61h-5.61z" class="cls-6"/><path d="M87.78 38.11h5.61v5.61h-5.61zm0 5.61h5.61v5.61h-5.61zm-5.61 0h5.61v5.61h-5.61zm0 5.61h5.61v5.61h-5.61zm-5.61 0h5.61v5.61h-5.61zm0 5.61h5.61v5.61h-5.61zm-5.61 0h5.61v5.61h-5.61zm0 5.61h5.61v5.61h-5.61z" class="cls-6"/><path d="M65.35 60.55h5.61v5.61h-5.61z" class="cls-6"/><path d="M65.35 66.15h5.61v5.61h-5.61z" class="cls-6"/><path d="M59.74 66.15h5.61v5.61h-5.61zm0 5.61h5.61v5.61h-5.61zm-5.61 0h5.61v5.61h-5.61zm0 5.61h5.61v5.61h-5.61zm-5.61 0h5.61v5.61h-5.61zm0 5.61h5.61v5.61h-5.61zm-5.61 0h5.61v5.61h-5.61zm0 5.61h5.61v5.61h-5.61z" class="cls-6"/><path d="M37.31 88.59h5.61v5.61h-5.61z" class="cls-6"/><path d="M37.31 94.19h5.61v5.61h-5.61zm-5.61 0h5.61v5.61H31.7zm0 5.61h5.61v5.61H31.7zm-5.61 0h5.61v5.61h-5.61zm0 5.61h5.61v5.61h-5.61zm-5.61 0h5.61v5.61h-5.61zm0 5.61h5.61v5.61h-5.61zm-5.61 0h5.61v5.61h-5.61zm0 5.61h5.61v5.61h-5.61z" class="cls-6"/><path d="M143.86-1.14h5.61v5.61h-5.61zm-5.61 0h5.61v5.61h-5.61z" class="cls-4"/><path d="M138.25 4.47h5.61v5.61h-5.61zm-5.61 0h5.61v5.61h-5.61zm0 5.61h5.61v5.61h-5.61z" class="cls-4"/><path d="M127.03 10.08h5.61v5.61h-5.61z" class="cls-4"/><path d="M127.03 15.68h5.61v5.61h-5.61zm-5.61 0h5.61v5.61h-5.61zm0 5.61h5.61v5.61h-5.61z" class="cls-4"/><path d="M115.82 21.29h5.61v5.61h-5.61zm0 5.61h5.61v5.61h-5.61zm-5.61 0h5.61v5.61h-5.61zm0 5.61h5.61v5.61h-5.61zm-5.61 0h5.61v5.61h-5.61z" class="cls-4"/><path d="M104.6 38.11h5.61v5.61h-5.61zm-5.61 0h5.61v5.61h-5.61zm0 5.61h5.61v5.61h-5.61zm-5.61 0h5.61v5.61h-5.61zm0 5.61h5.61v5.61h-5.61z" class="cls-4"/><path d="M87.78 49.33h5.61v5.61h-5.61zm0 5.61h5.61v5.61h-5.61zm-5.61 0h5.61v5.61h-5.61zm0 5.61h5.61v5.61h-5.61zm-5.61 0h5.61v5.61h-5.61z" class="cls-4"/><path d="M76.56 66.15h5.61v5.61h-5.61zm-5.61 0h5.61v5.61h-5.61zm0 5.61h5.61v5.61h-5.61z" class="cls-4"/><path d="M65.35 71.76h5.61v5.61h-5.61zm0 5.61h5.61v5.61h-5.61z" class="cls-4"/><path d="M59.74 77.37h5.61v5.61h-5.61zm0 5.61h5.61v5.61h-5.61zm-5.61 0h5.61v5.61h-5.61zm0 5.61h5.61v5.61h-5.61zm-5.61 0h5.61v5.61h-5.61z" class="cls-4"/><path d="M48.52 94.19h5.61v5.61h-5.61zm-5.61 0h5.61v5.61h-5.61zm0 5.61h5.61v5.61h-5.61z" class="cls-4"/><path d="M37.31 99.8h5.61v5.61h-5.61zm0 5.61h5.61v5.61h-5.61zm-5.61 0h5.61v5.61H31.7zm0 5.61h5.61v5.61H31.7zm-5.61 0h5.61v5.61h-5.61zm0 5.61h5.61v5.61h-5.61zm-5.61 0h5.61v5.61h-5.61z" class="cls-4"/><path d="M20.48 122.23h5.61v5.61h-5.61zm-5.61 0h5.61v5.61h-5.61zm0 5.61h5.61v5.61h-5.61z" class="cls-4"/><path d="M155.07-1.14h5.61v5.61h-5.61z" class="cls-6"/><path d="M149.46-1.14h5.61v5.61h-5.61z" class="cls-6"/><path d="M149.46 4.47h5.61v5.61h-5.61z" class="cls-6"/><path d="M143.86 4.47h5.61v5.61h-5.61zm0 5.61h5.61v5.61h-5.61zm-5.61 0h5.61v5.61h-5.61z" class="cls-6"/><path d="M138.25 15.68h5.61v5.61h-5.61zm-5.61 0h5.61v5.61h-5.61zm0 5.61h5.61v5.61h-5.61z" class="cls-6"/><path d="M127.03 21.29h5.61v5.61h-5.61zm0 5.61h5.61v5.61h-5.61zm-5.61 0h5.61v5.61h-5.61zm0 5.61h5.61v5.61h-5.61z" class="cls-6"/><path d="M115.82 32.51h5.61v5.61h-5.61z" class="cls-6"/><path d="M115.82 38.11h5.61v5.61h-5.61zm-5.61 0h5.61v5.61h-5.61zm0 5.61h5.61v5.61h-5.61zm-5.61 0h5.61v5.61h-5.61zm0 5.61h5.61v5.61h-5.61zm-5.61 0h5.61v5.61h-5.61zm0 5.61h5.61v5.61h-5.61zm-5.61 0h5.61v5.61h-5.61zm0 5.61h5.61v5.61h-5.61z" class="cls-6"/><path d="M87.78 60.55h5.61v5.61h-5.61z" class="cls-6"/><path d="M87.78 66.15h5.61v5.61h-5.61zm-5.61 0h5.61v5.61h-5.61zm0 5.61h5.61v5.61h-5.61zm-5.61 0h5.61v5.61h-5.61zm0 5.61h5.61v5.61h-5.61zm-5.61 0h5.61v5.61h-5.61zm0 5.61h5.61v5.61h-5.61z" class="cls-6"/><path d="M65.35 82.98h5.61v5.61h-5.61zm0 5.61h5.61v5.61h-5.61z" class="cls-6"/><path d="M59.74 88.59h5.61v5.61h-5.61z" class="cls-6"/><path d="M59.74 94.19h5.61v5.61h-5.61zm-5.61 0h5.61v5.61h-5.61zm0 5.61h5.61v5.61h-5.61zm-5.61 0h5.61v5.61h-5.61zm0 5.61h5.61v5.61h-5.61zm-5.61 0h5.61v5.61h-5.61zm0 5.61h5.61v5.61h-5.61z" class="cls-6"/><path d="M37.31 111.02h5.61v5.61h-5.61zm0 5.61h5.61v5.61h-5.61zm-5.61 0h5.61v5.61H31.7z" class="cls-6"/><path d="M31.7 122.23h5.61v5.61H31.7zm-5.61 0h5.61v5.61h-5.61zm0 5.61h5.61v5.61h-5.61zm-5.61 0h5.61v5.61h-5.61z" class="cls-6"/><path d="M20.48 133.45h5.61v5.61h-5.61zm-5.61 0h5.61v5.61h-5.61zm0 5.61h5.61v5.61h-5.61z" class="cls-6"/><path d="M166.29-1.14h5.61v5.61h-5.61z" class="cls-4"/><path d="M160.68-1.14h5.61v5.61h-5.61z" class="cls-4"/><path d="M160.68 4.47h5.61v5.61h-5.61zm-5.61 0h5.61v5.61h-5.61zm0 5.61h5.61v5.61h-5.61z" class="cls-4"/><path d="M149.46 10.08h5.61v5.61h-5.61z" class="cls-4"/><path d="M149.46 15.68h5.61v5.61h-5.61z" class="cls-4"/><path d="M143.86 15.68h5.61v5.61h-5.61zm0 5.61h5.61v5.61h-5.61zm-5.61 0h5.61v5.61h-5.61zm0 5.61h5.61v5.61h-5.61zm-5.61 0h5.61v5.61h-5.61zm0 5.61h5.61v5.61h-5.61z" class="cls-4"/><path d="M127.03 32.51h5.61v5.61h-5.61z" class="cls-4"/><path d="M127.03 38.11h5.61v5.61h-5.61zm-5.61 0h5.61v5.61h-5.61zm0 5.61h5.61v5.61h-5.61z" class="cls-4"/><path d="M115.82 43.72h5.61v5.61h-5.61zm0 5.61h5.61v5.61h-5.61zm-5.61 0h5.61v5.61h-5.61zm0 5.61h5.61v5.61h-5.61zm-5.61 0h5.61v5.61h-5.61zm0 5.61h5.61v5.61h-5.61zm-5.61 0h5.61v5.61h-5.61z" class="cls-4"/><path d="M98.99 66.15h5.61v5.61h-5.61zm-5.61 0h5.61v5.61h-5.61zm0 5.61h5.61v5.61h-5.61z" class="cls-4"/><path d="M87.78 71.76h5.61v5.61h-5.61zm0 5.61h5.61v5.61h-5.61zm-5.61 0h5.61v5.61h-5.61zm0 5.61h5.61v5.61h-5.61zm-5.61 0h5.61v5.61h-5.61zm0 5.61h5.61v5.61h-5.61zm-5.61 0h5.61v5.61h-5.61z" class="cls-4"/><path d="M70.95 94.19h5.61v5.61h-5.61z" class="cls-4"/><path d="M65.35 94.19h5.61v5.61h-5.61zm0 5.61h5.61v5.61h-5.61z" class="cls-4"/><path d="M59.74 99.8h5.61v5.61h-5.61zm0 5.61h5.61v5.61h-5.61zm-5.61 0h5.61v5.61h-5.61zm0 5.61h5.61v5.61h-5.61zm-5.61 0h5.61v5.61h-5.61zm0 5.61h5.61v5.61h-5.61zm-5.61 0h5.61v5.61h-5.61z" class="cls-4"/><path d="M42.91 122.23h5.61v5.61h-5.61z" class="cls-4"/><path d="M37.31 122.23h5.61v5.61h-5.61zm0 5.61h5.61v5.61h-5.61zm-5.61 0h5.61v5.61H31.7z" class="cls-4"/><path d="M31.7 133.45h5.61v5.61H31.7zm-5.61 0h5.61v5.61h-5.61zm0 5.61h5.61v5.61h-5.61zm-5.61 0h5.61v5.61h-5.61z" class="cls-4"/><path d="M20.48 144.66h5.61v5.61h-5.61zm-5.61 0h5.61v5.61h-5.61zm0 5.61h5.61v5.61h-5.61z" class="cls-4"/><path d="M177.5-1.14h5.61v5.61h-5.61z" class="cls-6"/><path d="M171.9-1.14h5.61v5.61h-5.61z" class="cls-6"/><path d="M171.9 4.47h5.61v5.61h-5.61zm-5.61 0h5.61v5.61h-5.61zm0 5.61h5.61v5.61h-5.61z" class="cls-6"/><path d="M160.68 10.08h5.61v5.61h-5.61z" class="cls-6"/><path d="M160.68 15.68h5.61v5.61h-5.61zm-5.61 0h5.61v5.61h-5.61zm0 5.61h5.61v5.61h-5.61z" class="cls-6"/><path d="M149.46 21.29h5.61v5.61h-5.61zm0 5.61h5.61v5.61h-5.61z" class="cls-6"/><path d="M143.86 26.9h5.61v5.61h-5.61zm0 5.61h5.61v5.61h-5.61zm-5.61 0h5.61v5.61h-5.61z" class="cls-6"/><path d="M138.25 38.11h5.61v5.61h-5.61zm-5.61 0h5.61v5.61h-5.61zm0 5.61h5.61v5.61h-5.61z" class="cls-6"/><path d="M127.03 43.72h5.61v5.61h-5.61zm0 5.61h5.61v5.61h-5.61zm-5.61 0h5.61v5.61h-5.61zm0 5.61h5.61v5.61h-5.61z" class="cls-6"/><path d="M115.82 54.94h5.61v5.61h-5.61zm0 5.61h5.61v5.61h-5.61zm-5.61 0h5.61v5.61h-5.61z" class="cls-6"/><path d="M110.21 66.15h5.61v5.61h-5.61zm-5.61 0h5.61v5.61h-5.61zm0 5.61h5.61v5.61h-5.61zm-5.61 0h5.61v5.61h-5.61zm0 5.61h5.61v5.61h-5.61zm-5.61 0h5.61v5.61h-5.61zm0 5.61h5.61v5.61h-5.61z" class="cls-6"/><path d="M87.78 82.98h5.61v5.61h-5.61zm0 5.61h5.61v5.61h-5.61zm-5.61 0h5.61v5.61h-5.61z" class="cls-6"/><path d="M82.17 94.19h5.61v5.61h-5.61zm-5.61 0h5.61v5.61h-5.61zm0 5.61h5.61v5.61h-5.61zm-5.61 0h5.61v5.61h-5.61zm0 5.61h5.61v5.61h-5.61z" class="cls-6"/><path d="M65.35 105.41h5.61v5.61h-5.61zm0 5.61h5.61v5.61h-5.61z" class="cls-6"/><path d="M59.74 111.02h5.61v5.61h-5.61zm0 5.61h5.61v5.61h-5.61zm-5.61 0h5.61v5.61h-5.61z" class="cls-6"/><path d="M54.13 122.23h5.61v5.61h-5.61zm-5.61 0h5.61v5.61h-5.61zm0 5.61h5.61v5.61h-5.61zm-5.61 0h5.61v5.61h-5.61z" class="cls-6"/><path d="M42.91 133.45h5.61v5.61h-5.61z" class="cls-6"/><path d="M37.31 133.45h5.61v5.61h-5.61zm0 5.61h5.61v5.61h-5.61zm-5.61 0h5.61v5.61H31.7z" class="cls-6"/><path d="M31.7 144.66h5.61v5.61H31.7zm-5.61 0h5.61v5.61h-5.61zm0 5.61h5.61v5.61h-5.61zm-5.61 0h5.61v5.61h-5.61z" class="cls-6"/><path d="M20.48 155.88h5.61v5.61h-5.61zm-5.61 0h5.61v5.61h-5.61zm0 5.61h5.61v5.61h-5.61z" class="cls-6"/><path d="M188.72-1.14h5.61v5.61h-5.61z" class="cls-4"/><path d="M183.11-1.14h5.61v5.61h-5.61z" class="cls-4"/><path d="M183.11 4.47h5.61v5.61h-5.61zm-5.61 0h5.61v5.61h-5.61zm0 5.61h5.61v5.61h-5.61z" class="cls-4"/><path d="M171.9 10.08h5.61v5.61h-5.61z" class="cls-4"/><path d="M171.9 15.68h5.61v5.61h-5.61zm-5.61 0h5.61v5.61h-5.61zm0 5.61h5.61v5.61h-5.61z" class="cls-4"/><path d="M160.68 21.29h5.61v5.61h-5.61zm0 5.61h5.61v5.61h-5.61zm-5.61 0h5.61v5.61h-5.61zm0 5.61h5.61v5.61h-5.61z" class="cls-4"/><path d="M149.46 32.51h5.61v5.61h-5.61z" class="cls-4"/><path d="M149.46 38.11h5.61v5.61h-5.61z" class="cls-4"/><path d="M143.86 38.11h5.61v5.61h-5.61zm0 5.61h5.61v5.61h-5.61zm-5.61 0h5.61v5.61h-5.61zm0 5.61h5.61v5.61h-5.61zm-5.61 0h5.61v5.61h-5.61zm0 5.61h5.61v5.61h-5.61z" class="cls-4"/><path d="M127.03 54.94h5.61v5.61h-5.61zm0 5.61h5.61v5.61h-5.61zm-5.61 0h5.61v5.61h-5.61z" class="cls-4"/><path d="M121.42 66.15h5.61v5.61h-5.61z" class="cls-4"/><path d="M115.82 66.15h5.61v5.61h-5.61zm0 5.61h5.61v5.61h-5.61zm-5.61 0h5.61v5.61h-5.61zm0 5.61h5.61v5.61h-5.61zm-5.61 0h5.61v5.61h-5.61zm0 5.61h5.61v5.61h-5.61zm-5.61 0h5.61v5.61h-5.61zm0 5.61h5.61v5.61h-5.61zm-5.61 0h5.61v5.61h-5.61z" class="cls-4"/><path d="M93.38 94.19h5.61v5.61h-5.61z" class="cls-4"/><path d="M87.78 94.19h5.61v5.61h-5.61zm0 5.61h5.61v5.61h-5.61zm-5.61 0h5.61v5.61h-5.61zm0 5.61h5.61v5.61h-5.61zm-5.61 0h5.61v5.61h-5.61zm0 5.61h5.61v5.61h-5.61zm-5.61 0h5.61v5.61h-5.61zm0 5.61h5.61v5.61h-5.61z" class="cls-4"/><path d="M65.35 116.63h5.61v5.61h-5.61z" class="cls-4"/><path d="M65.35 122.23h5.61v5.61h-5.61z" class="cls-4"/><path d="M59.74 122.23h5.61v5.61h-5.61zm0 5.61h5.61v5.61h-5.61zm-5.61 0h5.61v5.61h-5.61z" class="cls-4"/><path d="M54.13 133.45h5.61v5.61h-5.61zm-5.61 0h5.61v5.61h-5.61zm0 5.61h5.61v5.61h-5.61zm-5.61 0h5.61v5.61h-5.61z" class="cls-4"/><path d="M42.91 144.66h5.61v5.61h-5.61z" class="cls-4"/><path d="M37.31 144.66h5.61v5.61h-5.61zm0 5.61h5.61v5.61h-5.61zm-5.61 0h5.61v5.61H31.7z" class="cls-4"/><path d="M31.7 155.88h5.61v5.61H31.7zm-5.61 0h5.61v5.61h-5.61zm0 5.61h5.61v5.61h-5.61zm-5.61 0h5.61v5.61h-5.61z" class="cls-4"/><path d="M20.48 167.1h5.61v5.61h-5.61zm-5.61 0h5.61v5.61h-5.61z" class="cls-4"/><path d="M14.87 172.7h5.61v5.61h-5.61z" class="cls-4"/><path d="M199.93-1.14h5.61v5.61h-5.61z" class="cls-6"/><path d="M194.33-1.14h5.61v5.61h-5.61z" class="cls-6"/><path d="M194.33 4.47h5.61v5.61h-5.61zm-5.61 0h5.61v5.61h-5.61zm0 5.61h5.61v5.61h-5.61z" class="cls-6"/><path d="M183.11 10.08h5.61v5.61h-5.61z" class="cls-6"/><path d="M183.11 15.68h5.61v5.61h-5.61zm-5.61 0h5.61v5.61h-5.61zm0 5.61h5.61v5.61h-5.61z" class="cls-6"/><path d="M171.9 21.29h5.61v5.61h-5.61zm0 5.61h5.61v5.61h-5.61zm-5.61 0h5.61v5.61h-5.61zm0 5.61h5.61v5.61h-5.61z" class="cls-6"/><path d="M160.68 32.51h5.61v5.61h-5.61z" class="cls-6"/><path d="M160.68 38.11h5.61v5.61h-5.61zm-5.61 0h5.61v5.61h-5.61zm0 5.61h5.61v5.61h-5.61z" class="cls-6"/><path d="M149.46 43.72h5.61v5.61h-5.61zm0 5.61h5.61v5.61h-5.61z" class="cls-6"/><path d="M143.86 49.33h5.61v5.61h-5.61zm0 5.61h5.61v5.61h-5.61zm-5.61 0h5.61v5.61h-5.61zm0 5.61h5.61v5.61h-5.61zm-5.61 0h5.61v5.61h-5.61z" class="cls-6"/><path d="M132.64 66.15h5.61v5.61h-5.61z" class="cls-6"/><path d="M127.03 66.15h5.61v5.61h-5.61zm0 5.61h5.61v5.61h-5.61zm-5.61 0h5.61v5.61h-5.61zm0 5.61h5.61v5.61h-5.61z" class="cls-6"/><path d="M115.82 77.37h5.61v5.61h-5.61zm0 5.61h5.61v5.61h-5.61zm-5.61 0h5.61v5.61h-5.61zm0 5.61h5.61v5.61h-5.61zm-5.61 0h5.61v5.61h-5.61z" class="cls-6"/><path d="M104.6 94.19h5.61v5.61h-5.61zm-5.61 0h5.61v5.61h-5.61zm0 5.61h5.61v5.61h-5.61zm-5.61 0h5.61v5.61h-5.61zm0 5.61h5.61v5.61h-5.61z" class="cls-6"/><path d="M87.78 105.41h5.61v5.61h-5.61zm0 5.61h5.61v5.61h-5.61zm-5.61 0h5.61v5.61h-5.61zm0 5.61h5.61v5.61h-5.61zm-5.61 0h5.61v5.61h-5.61z" class="cls-6"/><path d="M76.56 122.23h5.61v5.61h-5.61zm-5.61 0h5.61v5.61h-5.61zm0 5.61h5.61v5.61h-5.61z" class="cls-6"/><path d="M65.35 127.84h5.61v5.61h-5.61z" class="cls-6"/><path d="M65.35 133.45h5.61v5.61h-5.61z" class="cls-6"/><path d="M59.74 133.45h5.61v5.61h-5.61zm0 5.61h5.61v5.61h-5.61zm-5.61 0h5.61v5.61h-5.61z" class="cls-6"/><path d="M54.13 144.66h5.61v5.61h-5.61zm-5.61 0h5.61v5.61h-5.61zm0 5.61h5.61v5.61h-5.61zm-5.61 0h5.61v5.61h-5.61z" class="cls-6"/><path d="M42.91 155.88h5.61v5.61h-5.61z" class="cls-6"/><path d="M37.31 155.88h5.61v5.61h-5.61zm0 5.61h5.61v5.61h-5.61zm-5.61 0h5.61v5.61H31.7z" class="cls-6"/><path d="M31.7 167.1h5.61v5.61H31.7zm-5.61 0h5.61v5.61h-5.61z" class="cls-6"/><path d="M26.09 172.7h5.61v5.61h-5.61zm-5.61 0h5.61v5.61h-5.61zm0 5.61h5.61v5.61h-5.61zm-5.61 0h5.61v5.61h-5.61z" class="cls-6"/><path d="M14.87 183.92h5.61v5.61h-5.61z" class="cls-6"/><path d="M199.93 4.47h5.61v5.61h-5.61zm0 5.61h5.61v5.61h-5.61z" class="cls-4"/><path d="M194.33 10.08h5.61v5.61h-5.61z" class="cls-4"/><path d="M194.33 15.68h5.61v5.61h-5.61zm-5.61 0h5.61v5.61h-5.61zm0 5.61h5.61v5.61h-5.61z" class="cls-4"/><path d="M183.11 21.29h5.61v5.61h-5.61zm0 5.61h5.61v5.61h-5.61zm-5.61 0h5.61v5.61h-5.61zm0 5.61h5.61v5.61h-5.61z" class="cls-4"/><path d="M171.9 32.51h5.61v5.61h-5.61z" class="cls-4"/><path d="M171.9 38.11h5.61v5.61h-5.61zm-5.61 0h5.61v5.61h-5.61zm0 5.61h5.61v5.61h-5.61z" class="cls-4"/><path d="M160.68 43.72h5.61v5.61h-5.61zm0 5.61h5.61v5.61h-5.61zm-5.61 0h5.61v5.61h-5.61zm0 5.61h5.61v5.61h-5.61z" class="cls-4"/><path d="M149.46 54.94h5.61v5.61h-5.61zm0 5.61h5.61v5.61h-5.61z" class="cls-4"/><path d="M143.86 60.55h5.61v5.61h-5.61z" class="cls-4"/><path d="M143.86 66.15h5.61v5.61h-5.61zm-5.61 0h5.61v5.61h-5.61zm0 5.61h5.61v5.61h-5.61zm-5.61 0h5.61v5.61h-5.61zm0 5.61h5.61v5.61h-5.61z" class="cls-4"/><path d="M127.03 77.37h5.61v5.61h-5.61zm0 5.61h5.61v5.61h-5.61zm-5.61 0h5.61v5.61h-5.61zm0 5.61h5.61v5.61h-5.61z" class="cls-4"/><path d="M115.82 88.59h5.61v5.61h-5.61z" class="cls-4"/><path d="M115.82 94.19h5.61v5.61h-5.61zm-5.61 0h5.61v5.61h-5.61zm0 5.61h5.61v5.61h-5.61zm-5.61 0h5.61v5.61h-5.61zm0 5.61h5.61v5.61h-5.61zm-5.61 0h5.61v5.61h-5.61zm0 5.61h5.61v5.61h-5.61zm-5.61 0h5.61v5.61h-5.61zm0 5.61h5.61v5.61h-5.61z" class="cls-4"/><path d="M87.78 116.63h5.61v5.61h-5.61z" class="cls-4"/><path d="M87.78 122.23h5.61v5.61h-5.61zm-5.61 0h5.61v5.61h-5.61zm0 5.61h5.61v5.61h-5.61zm-5.61 0h5.61v5.61h-5.61z" class="cls-4"/><path d="M76.56 133.45h5.61v5.61h-5.61zm-5.61 0h5.61v5.61h-5.61zm0 5.61h5.61v5.61h-5.61z" class="cls-4"/><path d="M65.35 139.06h5.61v5.61h-5.61z" class="cls-4"/><path d="M65.35 144.66h5.61v5.61h-5.61z" class="cls-4"/><path d="M59.74 144.66h5.61v5.61h-5.61zm0 5.61h5.61v5.61h-5.61zm-5.61 0h5.61v5.61h-5.61z" class="cls-4"/><path d="M54.13 155.88h5.61v5.61h-5.61zm-5.61 0h5.61v5.61h-5.61zm0 5.61h5.61v5.61h-5.61zm-5.61 0h5.61v5.61h-5.61z" class="cls-4"/><path d="M42.91 167.1h5.61v5.61h-5.61z" class="cls-4"/><path d="M37.31 167.1h5.61v5.61h-5.61z" class="cls-4"/><path d="M37.31 172.7h5.61v5.61h-5.61zm-5.61 0h5.61v5.61H31.7zm0 5.61h5.61v5.61H31.7zm-5.61 0h5.61v5.61h-5.61z" class="cls-4"/><path d="M26.09 183.92h5.61v5.61h-5.61zm-5.61 0h5.61v5.61h-5.61zm0 5.61h5.61v5.61h-5.61zm-5.61 0h5.61v5.61h-5.61z" class="cls-4"/><path d="M14.87 195.14h5.61v5.61h-5.61z" class="cls-4"/><path d="M199.93 15.68h5.61v5.61h-5.61zm0 5.61h5.61v5.61h-5.61z" class="cls-6"/><path d="M194.33 21.29h5.61v5.61h-5.61zm0 5.61h5.61v5.61h-5.61zm-5.61 0h5.61v5.61h-5.61zm0 5.61h5.61v5.61h-5.61z" class="cls-6"/><path d="M183.11 32.51h5.61v5.61h-5.61z" class="cls-6"/><path d="M183.11 38.11h5.61v5.61h-5.61zm-5.61 0h5.61v5.61h-5.61zm0 5.61h5.61v5.61h-5.61z" class="cls-6"/><path d="M171.9 43.72h5.61v5.61h-5.61zm0 5.61h5.61v5.61h-5.61zm-5.61 0h5.61v5.61h-5.61zm0 5.61h5.61v5.61h-5.61z" class="cls-6"/><path d="M160.68 54.94h5.61v5.61h-5.61zm0 5.61h5.61v5.61h-5.61zm-5.61 0h5.61v5.61h-5.61z" class="cls-6"/><path d="M155.07 66.15h5.61v5.61h-5.61z" class="cls-6"/><path d="M149.46 66.15h5.61v5.61h-5.61zm0 5.61h5.61v5.61h-5.61z" class="cls-6"/><path d="M143.86 71.76h5.61v5.61h-5.61zm0 5.61h5.61v5.61h-5.61zm-5.61 0h5.61v5.61h-5.61zm0 5.61h5.61v5.61h-5.61zm-5.61 0h5.61v5.61h-5.61zm0 5.61h5.61v5.61h-5.61z" class="cls-6"/><path d="M127.03 88.59h5.61v5.61h-5.61z" class="cls-6"/><path d="M127.03 94.19h5.61v5.61h-5.61zm-5.61 0h5.61v5.61h-5.61zm0 5.61h5.61v5.61h-5.61z" class="cls-6"/><path d="M115.82 99.8h5.61v5.61h-5.61zm0 5.61h5.61v5.61h-5.61zm-5.61 0h5.61v5.61h-5.61zm0 5.61h5.61v5.61h-5.61zm-5.61 0h5.61v5.61h-5.61zm0 5.61h5.61v5.61h-5.61zm-5.61 0h5.61v5.61h-5.61z" class="cls-6"/><path d="M98.99 122.23h5.61v5.61h-5.61zm-5.61 0h5.61v5.61h-5.61zm0 5.61h5.61v5.61h-5.61z" class="cls-6"/><path d="M87.78 127.84h5.61v5.61h-5.61z" class="cls-6"/><path d="M87.78 133.45h5.61v5.61h-5.61zm-5.61 0h5.61v5.61h-5.61zm0 5.61h5.61v5.61h-5.61zm-5.61 0h5.61v5.61h-5.61z" class="cls-6"/><path d="M76.56 144.66h5.61v5.61h-5.61zm-5.61 0h5.61v5.61h-5.61zm0 5.61h5.61v5.61h-5.61z" class="cls-6"/><path d="M65.35 150.27h5.61v5.61h-5.61z" class="cls-6"/><path d="M65.35 155.88h5.61v5.61h-5.61z" class="cls-6"/><path d="M59.74 155.88h5.61v5.61h-5.61zm0 5.61h5.61v5.61h-5.61zm-5.61 0h5.61v5.61h-5.61z" class="cls-6"/><path d="M54.13 167.1h5.61v5.61h-5.61zm-5.61 0h5.61v5.61h-5.61z" class="cls-6"/><path d="M48.52 172.7h5.61v5.61h-5.61zm-5.61 0h5.61v5.61h-5.61zm0 5.61h5.61v5.61h-5.61z" class="cls-6"/><path d="M37.31 178.31h5.61v5.61h-5.61z" class="cls-6"/><path d="M37.31 183.92h5.61v5.61h-5.61zm-5.61 0h5.61v5.61H31.7zm0 5.61h5.61v5.61H31.7zm-5.61 0h5.61v5.61h-5.61z" class="cls-6"/><path d="M26.09 195.14h5.61v5.61h-5.61zm-5.61 0h5.61v5.61h-5.61z" class="cls-6"/><path d="M20.48 200.74h5.61v5.61h-5.61zm-5.61 0h5.61v5.61h-5.61z" class="cls-6"/><path d="M199.93 26.9h5.61v5.61h-5.61zm0 5.61h5.61v5.61h-5.61z" class="cls-4"/><path d="M194.33 32.51h5.61v5.61h-5.61z" class="cls-4"/><path d="M194.33 38.11h5.61v5.61h-5.61zm-5.61 0h5.61v5.61h-5.61zm0 5.61h5.61v5.61h-5.61z" class="cls-4"/><path d="M183.11 43.72h5.61v5.61h-5.61zm0 5.61h5.61v5.61h-5.61zm-5.61 0h5.61v5.61h-5.61zm0 5.61h5.61v5.61h-5.61z" class="cls-4"/><path d="M171.9 54.94h5.61v5.61h-5.61zm0 5.61h5.61v5.61h-5.61zm-5.61 0h5.61v5.61h-5.61z" class="cls-4"/><path d="M166.29 66.15h5.61v5.61h-5.61z" class="cls-4"/><path d="M160.68 66.15h5.61v5.61h-5.61zm0 5.61h5.61v5.61h-5.61zm-5.61 0h5.61v5.61h-5.61zm0 5.61h5.61v5.61h-5.61z" class="cls-4"/><path d="M149.46 77.37h5.61v5.61h-5.61zm0 5.61h5.61v5.61h-5.61z" class="cls-4"/><path d="M143.86 82.98h5.61v5.61h-5.61zm0 5.61h5.61v5.61h-5.61zm-5.61 0h5.61v5.61h-5.61z" class="cls-4"/><path d="M138.25 94.19h5.61v5.61h-5.61zm-5.61 0h5.61v5.61h-5.61zm0 5.61h5.61v5.61h-5.61z" class="cls-4"/><path d="M127.03 99.8h5.61v5.61h-5.61zm0 5.61h5.61v5.61h-5.61zm-5.61 0h5.61v5.61h-5.61zm0 5.61h5.61v5.61h-5.61z" class="cls-4"/><path d="M115.82 111.02h5.61v5.61h-5.61zm0 5.61h5.61v5.61h-5.61zm-5.61 0h5.61v5.61h-5.61z" class="cls-4"/><path d="M110.21 122.23h5.61v5.61h-5.61zm-5.61 0h5.61v5.61h-5.61zm0 5.61h5.61v5.61h-5.61zm-5.61 0h5.61v5.61h-5.61z" class="cls-4"/><path d="M98.99 133.45h5.61v5.61h-5.61zm-5.61 0h5.61v5.61h-5.61zm0 5.61h5.61v5.61h-5.61z" class="cls-4"/><path d="M87.78 139.06h5.61v5.61h-5.61z" class="cls-4"/><path d="M87.78 144.66h5.61v5.61h-5.61zm-5.61 0h5.61v5.61h-5.61zm0 5.61h5.61v5.61h-5.61zm-5.61 0h5.61v5.61h-5.61z" class="cls-4"/><path d="M76.56 155.88h5.61v5.61h-5.61zm-5.61 0h5.61v5.61h-5.61zm0 5.61h5.61v5.61h-5.61z" class="cls-4"/><path d="M65.35 161.49h5.61v5.61h-5.61z" class="cls-4"/><path d="M65.35 167.1h5.61v5.61h-5.61z" class="cls-4"/><path d="M59.74 167.1h5.61v5.61h-5.61z" class="cls-4"/><path d="M59.74 172.7h5.61v5.61h-5.61zm-5.61 0h5.61v5.61h-5.61zm0 5.61h5.61v5.61h-5.61zm-5.61 0h5.61v5.61h-5.61z" class="cls-4"/><path d="M48.52 183.92h5.61v5.61h-5.61zm-5.61 0h5.61v5.61h-5.61zm0 5.61h5.61v5.61h-5.61z" class="cls-4"/><path d="M37.31 189.53h5.61v5.61h-5.61z" class="cls-4"/><path d="M37.31 195.14h5.61v5.61h-5.61zm-5.61 0h5.61v5.61H31.7z" class="cls-4"/><path d="M31.7 200.74h5.61v5.61H31.7zm-5.61 0h5.61v5.61h-5.61z" class="cls-4"/><path d="M199.93 38.11h5.61v5.61h-5.61zm0 5.61h5.61v5.61h-5.61z" class="cls-6"/><path d="M194.33 43.72h5.61v5.61h-5.61zm0 5.61h5.61v5.61h-5.61zm-5.61 0h5.61v5.61h-5.61zm0 5.61h5.61v5.61h-5.61z" class="cls-6"/><path d="M183.11 54.94h5.61v5.61h-5.61zm0 5.61h5.61v5.61h-5.61zm-5.61 0h5.61v5.61h-5.61z" class="cls-6"/><path d="M177.5 66.15h5.61v5.61h-5.61z" class="cls-6"/><path d="M171.9 66.15h5.61v5.61h-5.61zm0 5.61h5.61v5.61h-5.61zm-5.61 0h5.61v5.61h-5.61zm0 5.61h5.61v5.61h-5.61z" class="cls-6"/><path d="M160.68 77.37h5.61v5.61h-5.61zm0 5.61h5.61v5.61h-5.61zm-5.61 0h5.61v5.61h-5.61zm0 5.61h5.61v5.61h-5.61z" class="cls-6"/><path d="M149.46 88.59h5.61v5.61h-5.61z" class="cls-6"/><path d="M149.46 94.19h5.61v5.61h-5.61z" class="cls-6"/><path d="M143.86 94.19h5.61v5.61h-5.61zm0 5.61h5.61v5.61h-5.61zm-5.61 0h5.61v5.61h-5.61zm0 5.61h5.61v5.61h-5.61zm-5.61 0h5.61v5.61h-5.61zm0 5.61h5.61v5.61h-5.61z" class="cls-6"/><path d="M127.03 111.02h5.61v5.61h-5.61zm0 5.61h5.61v5.61h-5.61zm-5.61 0h5.61v5.61h-5.61z" class="cls-6"/><path d="M121.42 122.23h5.61v5.61h-5.61z" class="cls-6"/><path d="M115.82 122.23h5.61v5.61h-5.61zm0 5.61h5.61v5.61h-5.61zm-5.61 0h5.61v5.61h-5.61z" class="cls-6"/><path d="M110.21 133.45h5.61v5.61h-5.61zm-5.61 0h5.61v5.61h-5.61zm0 5.61h5.61v5.61h-5.61zm-5.61 0h5.61v5.61h-5.61z" class="cls-6"/><path d="M98.99 144.66h5.61v5.61h-5.61zm-5.61 0h5.61v5.61h-5.61zm0 5.61h5.61v5.61h-5.61z" class="cls-6"/><path d="M87.78 150.27h5.61v5.61h-5.61z" class="cls-6"/><path d="M87.78 155.88h5.61v5.61h-5.61zm-5.61 0h5.61v5.61h-5.61zm0 5.61h5.61v5.61h-5.61zm-5.61 0h5.61v5.61h-5.61z" class="cls-6"/><path d="M76.56 167.1h5.61v5.61h-5.61zm-5.61 0h5.61v5.61h-5.61z" class="cls-6"/><path d="M70.95 172.7h5.61v5.61h-5.61z" class="cls-6"/><path d="M65.35 172.7h5.61v5.61h-5.61zm0 5.61h5.61v5.61h-5.61z" class="cls-6"/><path d="M59.74 178.31h5.61v5.61h-5.61z" class="cls-6"/><path d="M59.74 183.92h5.61v5.61h-5.61zm-5.61 0h5.61v5.61h-5.61zm0 5.61h5.61v5.61h-5.61zm-5.61 0h5.61v5.61h-5.61z" class="cls-6"/><path d="M48.52 195.14h5.61v5.61h-5.61zm-5.61 0h5.61v5.61h-5.61z" class="cls-6"/><path d="M42.91 200.74h5.61v5.61h-5.61z" class="cls-6"/><path d="M37.31 200.74h5.61v5.61h-5.61z" class="cls-6"/><path d="M199.93 49.33h5.61v5.61h-5.61zm0 5.61h5.61v5.61h-5.61z" class="cls-4"/><path d="M194.33 54.94h5.61v5.61h-5.61zm0 5.61h5.61v5.61h-5.61zm-5.61 0h5.61v5.61h-5.61z" class="cls-4"/><path d="M188.72 66.15h5.61v5.61h-5.61z" class="cls-4"/><path d="M183.11 66.15h5.61v5.61h-5.61zm0 5.61h5.61v5.61h-5.61zm-5.61 0h5.61v5.61h-5.61zm0 5.61h5.61v5.61h-5.61z" class="cls-4"/><path d="M171.9 77.37h5.61v5.61h-5.61zm0 5.61h5.61v5.61h-5.61zm-5.61 0h5.61v5.61h-5.61zm0 5.61h5.61v5.61h-5.61z" class="cls-4"/><path d="M160.68 88.59h5.61v5.61h-5.61z" class="cls-4"/><path d="M160.68 94.19h5.61v5.61h-5.61zm-5.61 0h5.61v5.61h-5.61zm0 5.61h5.61v5.61h-5.61z" class="cls-4"/><path d="M149.46 99.8h5.61v5.61h-5.61zm0 5.61h5.61v5.61h-5.61z" class="cls-4"/><path d="M143.86 105.41h5.61v5.61h-5.61zm0 5.61h5.61v5.61h-5.61zm-5.61 0h5.61v5.61h-5.61zm0 5.61h5.61v5.61h-5.61zm-5.61 0h5.61v5.61h-5.61z" class="cls-4"/><path d="M132.64 122.23h5.61v5.61h-5.61z" class="cls-4"/><path d="M127.03 122.23h5.61v5.61h-5.61zm0 5.61h5.61v5.61h-5.61zm-5.61 0h5.61v5.61h-5.61z" class="cls-4"/><path d="M121.42 133.45h5.61v5.61h-5.61z" class="cls-4"/><path d="M115.82 133.45h5.61v5.61h-5.61zm0 5.61h5.61v5.61h-5.61zm-5.61 0h5.61v5.61h-5.61z" class="cls-4"/><path d="M110.21 144.66h5.61v5.61h-5.61zm-5.61 0h5.61v5.61h-5.61zm0 5.61h5.61v5.61h-5.61zm-5.61 0h5.61v5.61h-5.61z" class="cls-4"/><path d="M98.99 155.88h5.61v5.61h-5.61zm-5.61 0h5.61v5.61h-5.61zm0 5.61h5.61v5.61h-5.61z" class="cls-4"/><path d="M87.78 161.49h5.61v5.61h-5.61z" class="cls-4"/><path d="M87.78 167.1h5.61v5.61h-5.61zm-5.61 0h5.61v5.61h-5.61z" class="cls-4"/><path d="M82.17 172.7h5.61v5.61h-5.61zm-5.61 0h5.61v5.61h-5.61zm0 5.61h5.61v5.61h-5.61zm-5.61 0h5.61v5.61h-5.61z" class="cls-4"/><path d="M70.95 183.92h5.61v5.61h-5.61z" class="cls-4"/><path d="M65.35 183.92h5.61v5.61h-5.61zm0 5.61h5.61v5.61h-5.61z" class="cls-4"/><path d="M59.74 189.53h5.61v5.61h-5.61z" class="cls-4"/><path d="M59.74 195.14h5.61v5.61h-5.61zm-5.61 0h5.61v5.61h-5.61z" class="cls-4"/><path d="M54.13 200.74h5.61v5.61h-5.61zm-5.61 0h5.61v5.61h-5.61z" class="cls-4"/><path d="M199.93 60.55h5.61v5.61h-5.61z" class="cls-6"/><path d="M199.93 66.15h5.61v5.61h-5.61z" class="cls-6"/><path d="M194.33 66.15h5.61v5.61h-5.61zm0 5.61h5.61v5.61h-5.61zm-5.61 0h5.61v5.61h-5.61zm0 5.61h5.61v5.61h-5.61z" class="cls-6"/><path d="M183.11 77.37h5.61v5.61h-5.61zm0 5.61h5.61v5.61h-5.61zm-5.61 0h5.61v5.61h-5.61zm0 5.61h5.61v5.61h-5.61z" class="cls-6"/><path d="M171.9 88.59h5.61v5.61h-5.61z" class="cls-6"/><path d="M171.9 94.19h5.61v5.61h-5.61zm-5.61 0h5.61v5.61h-5.61zm0 5.61h5.61v5.61h-5.61z" class="cls-6"/><path d="M160.68 99.8h5.61v5.61h-5.61zm0 5.61h5.61v5.61h-5.61zm-5.61 0h5.61v5.61h-5.61zm0 5.61h5.61v5.61h-5.61z" class="cls-6"/><path d="M149.46 111.02h5.61v5.61h-5.61zm0 5.61h5.61v5.61h-5.61z" class="cls-6"/><path d="M143.86 116.63h5.61v5.61h-5.61z" class="cls-6"/><path d="M143.86 122.23h5.61v5.61h-5.61zm-5.61 0h5.61v5.61h-5.61zm0 5.61h5.61v5.61h-5.61zm-5.61 0h5.61v5.61h-5.61z" class="cls-6"/><path d="M132.64 133.45h5.61v5.61h-5.61z" class="cls-6"/><path d="M127.03 133.45h5.61v5.61h-5.61zm0 5.61h5.61v5.61h-5.61zm-5.61 0h5.61v5.61h-5.61z" class="cls-6"/><path d="M121.42 144.66h5.61v5.61h-5.61z" class="cls-6"/><path d="M115.82 144.66h5.61v5.61h-5.61zm0 5.61h5.61v5.61h-5.61zm-5.61 0h5.61v5.61h-5.61z" class="cls-6"/><path d="M110.21 155.88h5.61v5.61h-5.61zm-5.61 0h5.61v5.61h-5.61zm0 5.61h5.61v5.61h-5.61zm-5.61 0h5.61v5.61h-5.61z" class="cls-6"/><path d="M98.99 167.1h5.61v5.61h-5.61zm-5.61 0h5.61v5.61h-5.61z" class="cls-6"/><path d="M93.38 172.7h5.61v5.61h-5.61z" class="cls-6"/><path d="M87.78 172.7h5.61v5.61h-5.61zm0 5.61h5.61v5.61h-5.61zm-5.61 0h5.61v5.61h-5.61z" class="cls-6"/><path d="M82.17 183.92h5.61v5.61h-5.61zm-5.61 0h5.61v5.61h-5.61zm0 5.61h5.61v5.61h-5.61zm-5.61 0h5.61v5.61h-5.61z" class="cls-6"/><path d="M70.95 195.14h5.61v5.61h-5.61z" class="cls-6"/><path d="M65.35 195.14h5.61v5.61h-5.61z" class="cls-6"/><path d="M65.35 200.74h5.61v5.61h-5.61z" class="cls-6"/><path d="M59.74 200.74h5.61v5.61h-5.61z" class="cls-6"/><path d="M199.93 71.76h5.61v5.61h-5.61zm0 5.61h5.61v5.61h-5.61z" class="cls-4"/><path d="M194.33 77.37h5.61v5.61h-5.61zm0 5.61h5.61v5.61h-5.61zm-5.61 0h5.61v5.61h-5.61zm0 5.61h5.61v5.61h-5.61z" class="cls-4"/><path d="M183.11 88.59h5.61v5.61h-5.61z" class="cls-4"/><path d="M183.11 94.19h5.61v5.61h-5.61zm-5.61 0h5.61v5.61h-5.61zm0 5.61h5.61v5.61h-5.61z" class="cls-4"/><path d="M171.9 99.8h5.61v5.61h-5.61zm0 5.61h5.61v5.61h-5.61zm-5.61 0h5.61v5.61h-5.61zm0 5.61h5.61v5.61h-5.61z" class="cls-4"/><path d="M160.68 111.02h5.61v5.61h-5.61zm0 5.61h5.61v5.61h-5.61zm-5.61 0h5.61v5.61h-5.61z" class="cls-4"/><path d="M155.07 122.23h5.61v5.61h-5.61z" class="cls-4"/><path d="M149.46 122.23h5.61v5.61h-5.61zm0 5.61h5.61v5.61h-5.61z" class="cls-4"/><path d="M143.86 127.84h5.61v5.61h-5.61z" class="cls-4"/><path d="M143.86 133.45h5.61v5.61h-5.61zm-5.61 0h5.61v5.61h-5.61zm0 5.61h5.61v5.61h-5.61zm-5.61 0h5.61v5.61h-5.61z" class="cls-4"/><path d="M132.64 144.66h5.61v5.61h-5.61z" class="cls-4"/><path d="M127.03 144.66h5.61v5.61h-5.61zm0 5.61h5.61v5.61h-5.61zm-5.61 0h5.61v5.61h-5.61z" class="cls-4"/><path d="M121.42 155.88h5.61v5.61h-5.61z" class="cls-4"/><path d="M115.82 155.88h5.61v5.61h-5.61zm0 5.61h5.61v5.61h-5.61zm-5.61 0h5.61v5.61h-5.61z" class="cls-4"/><path d="M110.21 167.1h5.61v5.61h-5.61zm-5.61 0h5.61v5.61h-5.61z" class="cls-4"/><path d="M104.6 172.7h5.61v5.61h-5.61zm-5.61 0h5.61v5.61h-5.61zm0 5.61h5.61v5.61h-5.61zm-5.61 0h5.61v5.61h-5.61z" class="cls-4"/><path d="M93.38 183.92h5.61v5.61h-5.61z" class="cls-4"/><path d="M87.78 183.92h5.61v5.61h-5.61zm0 5.61h5.61v5.61h-5.61zm-5.61 0h5.61v5.61h-5.61z" class="cls-4"/><path d="M82.17 195.14h5.61v5.61h-5.61zm-5.61 0h5.61v5.61h-5.61z" class="cls-4"/><path d="M76.56 200.74h5.61v5.61h-5.61zm-5.61 0h5.61v5.61h-5.61z" class="cls-4"/><path d="M199.93 82.98h5.61v5.61h-5.61zm0 5.61h5.61v5.61h-5.61z" class="cls-6"/><path d="M194.33 88.59h5.61v5.61h-5.61z" class="cls-6"/><path d="M194.33 94.19h5.61v5.61h-5.61zm-5.61 0h5.61v5.61h-5.61zm0 5.61h5.61v5.61h-5.61z" class="cls-6"/><path d="M183.11 99.8h5.61v5.61h-5.61zm0 5.61h5.61v5.61h-5.61zm-5.61 0h5.61v5.61h-5.61zm0 5.61h5.61v5.61h-5.61z" class="cls-6"/><path d="M171.9 111.02h5.61v5.61h-5.61zm0 5.61h5.61v5.61h-5.61zm-5.61 0h5.61v5.61h-5.61z" class="cls-6"/><path d="M166.29 122.23h5.61v5.61h-5.61z" class="cls-6"/><path d="M160.68 122.23h5.61v5.61h-5.61zm0 5.61h5.61v5.61h-5.61zm-5.61 0h5.61v5.61h-5.61z" class="cls-6"/><path d="M155.07 133.45h5.61v5.61h-5.61z" class="cls-6"/><path d="M149.46 133.45h5.61v5.61h-5.61zm0 5.61h5.61v5.61h-5.61z" class="cls-6"/><path d="M143.86 139.06h5.61v5.61h-5.61z" class="cls-6"/><path d="M143.86 144.66h5.61v5.61h-5.61zm-5.61 0h5.61v5.61h-5.61zm0 5.61h5.61v5.61h-5.61zm-5.61 0h5.61v5.61h-5.61z" class="cls-6"/><path d="M132.64 155.88h5.61v5.61h-5.61z" class="cls-6"/><path d="M127.03 155.88h5.61v5.61h-5.61zm0 5.61h5.61v5.61h-5.61zm-5.61 0h5.61v5.61h-5.61z" class="cls-6"/><path d="M121.42 167.1h5.61v5.61h-5.61z" class="cls-6"/><path d="M115.82 167.1h5.61v5.61h-5.61z" class="cls-6"/><path d="M115.82 172.7h5.61v5.61h-5.61zm-5.61 0h5.61v5.61h-5.61zm0 5.61h5.61v5.61h-5.61zm-5.61 0h5.61v5.61h-5.61z" class="cls-6"/><path d="M104.6 183.92h5.61v5.61h-5.61zm-5.61 0h5.61v5.61h-5.61zm0 5.61h5.61v5.61h-5.61zm-5.61 0h5.61v5.61h-5.61z" class="cls-6"/><path d="M93.38 195.14h5.61v5.61h-5.61z" class="cls-6"/><path d="M87.78 195.14h5.61v5.61h-5.61z" class="cls-6"/><path d="M87.78 200.74h5.61v5.61h-5.61zm-5.61 0h5.61v5.61h-5.61z" class="cls-6"/><path d="M199.93 94.19h5.61v5.61h-5.61zm0 5.61h5.61v5.61h-5.61z" class="cls-4"/><path d="M194.33 99.8h5.61v5.61h-5.61zm0 5.61h5.61v5.61h-5.61zm-5.61 0h5.61v5.61h-5.61zm0 5.61h5.61v5.61h-5.61z" class="cls-4"/><path d="M183.11 111.02h5.61v5.61h-5.61zm0 5.61h5.61v5.61h-5.61zm-5.61 0h5.61v5.61h-5.61z" class="cls-4"/><path d="M177.5 122.23h5.61v5.61h-5.61z" class="cls-4"/><path d="M171.9 122.23h5.61v5.61h-5.61zm0 5.61h5.61v5.61h-5.61zm-5.61 0h5.61v5.61h-5.61z" class="cls-4"/><path d="M166.29 133.45h5.61v5.61h-5.61z" class="cls-4"/><path d="M160.68 133.45h5.61v5.61h-5.61zm0 5.61h5.61v5.61h-5.61zm-5.61 0h5.61v5.61h-5.61z" class="cls-4"/><path d="M155.07 144.66h5.61v5.61h-5.61z" class="cls-4"/><path d="M149.46 144.66h5.61v5.61h-5.61zm0 5.61h5.61v5.61h-5.61z" class="cls-4"/><path d="M143.86 150.27h5.61v5.61h-5.61z" class="cls-4"/><path d="M143.86 155.88h5.61v5.61h-5.61zm-5.61 0h5.61v5.61h-5.61zm0 5.61h5.61v5.61h-5.61zm-5.61 0h5.61v5.61h-5.61z" class="cls-4"/><path d="M132.64 167.1h5.61v5.61h-5.61z" class="cls-4"/><path d="M127.03 167.1h5.61v5.61h-5.61z" class="cls-4"/><path d="M127.03 172.7h5.61v5.61h-5.61zm-5.61 0h5.61v5.61h-5.61zm0 5.61h5.61v5.61h-5.61z" class="cls-4"/><path d="M115.82 178.31h5.61v5.61h-5.61z" class="cls-4"/><path d="M115.82 183.92h5.61v5.61h-5.61zm-5.61 0h5.61v5.61h-5.61zm0 5.61h5.61v5.61h-5.61zm-5.61 0h5.61v5.61h-5.61z" class="cls-4"/><path d="M104.6 195.14h5.61v5.61h-5.61zm-5.61 0h5.61v5.61h-5.61z" class="cls-4"/><path d="M98.99 200.74h5.61v5.61h-5.61zm-5.61 0h5.61v5.61h-5.61z" class="cls-4"/><path d="M199.93 105.41h5.61v5.61h-5.61zm0 5.61h5.61v5.61h-5.61z" class="cls-6"/><path d="M194.33 111.02h5.61v5.61h-5.61zm0 5.61h5.61v5.61h-5.61zm-5.61 0h5.61v5.61h-5.61z" class="cls-6"/><path d="M188.72 122.23h5.61v5.61h-5.61z" class="cls-6"/><path d="M183.11 122.23h5.61v5.61h-5.61zm0 5.61h5.61v5.61h-5.61zm-5.61 0h5.61v5.61h-5.61z" class="cls-6"/><path d="M177.5 133.45h5.61v5.61h-5.61z" class="cls-6"/><path d="M171.9 133.45h5.61v5.61h-5.61zm0 5.61h5.61v5.61h-5.61zm-5.61 0h5.61v5.61h-5.61z" class="cls-6"/><path d="M166.29 144.66h5.61v5.61h-5.61z" class="cls-6"/><path d="M160.68 144.66h5.61v5.61h-5.61zm0 5.61h5.61v5.61h-5.61zm-5.61 0h5.61v5.61h-5.61z" class="cls-6"/><path d="M155.07 155.88h5.61v5.61h-5.61z" class="cls-6"/><path d="M149.46 155.88h5.61v5.61h-5.61zm0 5.61h5.61v5.61h-5.61z" class="cls-6"/><path d="M143.86 161.49h5.61v5.61h-5.61z" class="cls-6"/><path d="M143.86 167.1h5.61v5.61h-5.61zm-5.61 0h5.61v5.61h-5.61z" class="cls-6"/><path d="M138.25 172.7h5.61v5.61h-5.61zm-5.61 0h5.61v5.61h-5.61zm0 5.61h5.61v5.61h-5.61z" class="cls-6"/><path d="M127.03 178.31h5.61v5.61h-5.61z" class="cls-6"/><path d="M127.03 183.92h5.61v5.61h-5.61zm-5.61 0h5.61v5.61h-5.61zm0 5.61h5.61v5.61h-5.61z" class="cls-6"/><path d="M115.82 189.53h5.61v5.61h-5.61z" class="cls-6"/><path d="M115.82 195.14h5.61v5.61h-5.61zm-5.61 0h5.61v5.61h-5.61z" class="cls-6"/><path d="M110.21 200.74h5.61v5.61h-5.61zm-5.61 0h5.61v5.61h-5.61z" class="cls-6"/><path d="M199.93 116.63h5.61v5.61h-5.61z" class="cls-4"/><path d="M199.93 122.23h5.61v5.61h-5.61z" class="cls-4"/><path d="M194.33 122.23h5.61v5.61h-5.61zm0 5.61h5.61v5.61h-5.61zm-5.61 0h5.61v5.61h-5.61z" class="cls-4"/><path d="M188.72 133.45h5.61v5.61h-5.61z" class="cls-4"/><path d="M183.11 133.45h5.61v5.61h-5.61zm0 5.61h5.61v5.61h-5.61zm-5.61 0h5.61v5.61h-5.61z" class="cls-4"/><path d="M177.5 144.66h5.61v5.61h-5.61z" class="cls-4"/><path d="M171.9 144.66h5.61v5.61h-5.61zm0 5.61h5.61v5.61h-5.61zm-5.61 0h5.61v5.61h-5.61z" class="cls-4"/><path d="M166.29 155.88h5.61v5.61h-5.61z" class="cls-4"/><path d="M160.68 155.88h5.61v5.61h-5.61zm0 5.61h5.61v5.61h-5.61zm-5.61 0h5.61v5.61h-5.61z" class="cls-4"/><path d="M155.07 167.1h5.61v5.61h-5.61z" class="cls-4"/><path d="M149.46 167.1h5.61v5.61h-5.61z" class="cls-4"/><path d="M149.46 172.7h5.61v5.61h-5.61z" class="cls-4"/><path d="M143.86 172.7h5.61v5.61h-5.61zm0 5.61h5.61v5.61h-5.61zm-5.61 0h5.61v5.61h-5.61z" class="cls-4"/><path d="M138.25 183.92h5.61v5.61h-5.61zm-5.61 0h5.61v5.61h-5.61zm0 5.61h5.61v5.61h-5.61z" class="cls-4"/><path d="M127.03 189.53h5.61v5.61h-5.61z" class="cls-4"/><path d="M127.03 195.14h5.61v5.61h-5.61zm-5.61 0h5.61v5.61h-5.61z" class="cls-4"/><path d="M121.42 200.74h5.61v5.61h-5.61z" class="cls-4"/><path d="M115.82 200.74h5.61v5.61h-5.61z" class="cls-4"/><path d="M199.93 127.84h5.61v5.61h-5.61z" class="cls-6"/><path d="M199.93 133.45h5.61v5.61h-5.61z" class="cls-6"/><path d="M194.33 133.45h5.61v5.61h-5.61zm0 5.61h5.61v5.61h-5.61zm-5.61 0h5.61v5.61h-5.61z" class="cls-6"/><path d="M188.72 144.66h5.61v5.61h-5.61z" class="cls-6"/><path d="M183.11 144.66h5.61v5.61h-5.61zm0 5.61h5.61v5.61h-5.61zm-5.61 0h5.61v5.61h-5.61z" class="cls-6"/><path d="M177.5 155.88h5.61v5.61h-5.61z" class="cls-6"/><path d="M171.9 155.88h5.61v5.61h-5.61zm0 5.61h5.61v5.61h-5.61zm-5.61 0h5.61v5.61h-5.61z" class="cls-6"/><path d="M166.29 167.1h5.61v5.61h-5.61z" class="cls-6"/><path d="M160.68 167.1h5.61v5.61h-5.61z" class="cls-6"/><path d="M160.68 172.7h5.61v5.61h-5.61zm-5.61 0h5.61v5.61h-5.61zm0 5.61h5.61v5.61h-5.61z" class="cls-6"/><path d="M149.46 178.31h5.61v5.61h-5.61z" class="cls-6"/><path d="M149.46 183.92h5.61v5.61h-5.61z" class="cls-6"/><path d="M143.86 183.92h5.61v5.61h-5.61zm0 5.61h5.61v5.61h-5.61zm-5.61 0h5.61v5.61h-5.61z" class="cls-6"/><path d="M138.25 195.14h5.61v5.61h-5.61zm-5.61 0h5.61v5.61h-5.61z" class="cls-6"/><path d="M132.64 200.74h5.61v5.61h-5.61z" class="cls-6"/><path d="M127.03 200.74h5.61v5.61h-5.61z" class="cls-6"/><path d="M199.93 139.06h5.61v5.61h-5.61z" class="cls-4"/><path d="M199.93 144.66h5.61v5.61h-5.61z" class="cls-4"/><path d="M194.33 144.66h5.61v5.61h-5.61zm0 5.61h5.61v5.61h-5.61zm-5.61 0h5.61v5.61h-5.61z" class="cls-4"/><path d="M188.72 155.88h5.61v5.61h-5.61z" class="cls-4"/><path d="M183.11 155.88h5.61v5.61h-5.61zm0 5.61h5.61v5.61h-5.61zm-5.61 0h5.61v5.61h-5.61z" class="cls-4"/><path d="M177.5 167.1h5.61v5.61h-5.61z" class="cls-4"/><path d="M171.9 167.1h5.61v5.61h-5.61z" class="cls-4"/><path d="M171.9 172.7h5.61v5.61h-5.61zm-5.61 0h5.61v5.61h-5.61zm0 5.61h5.61v5.61h-5.61z" class="cls-4"/><path d="M160.68 178.31h5.61v5.61h-5.61z" class="cls-4"/><path d="M160.68 183.92h5.61v5.61h-5.61zm-5.61 0h5.61v5.61h-5.61zm0 5.61h5.61v5.61h-5.61z" class="cls-4"/><path d="M149.46 189.53h5.61v5.61h-5.61z" class="cls-4"/><path d="M149.46 195.14h5.61v5.61h-5.61z" class="cls-4"/><path d="M143.86 195.14h5.61v5.61h-5.61z" class="cls-4"/><path d="M143.86 200.74h5.61v5.61h-5.61zm-5.61 0h5.61v5.61h-5.61z" class="cls-4"/><path d="M199.93 150.27h5.61v5.61h-5.61z" class="cls-6"/><path d="M199.93 155.88h5.61v5.61h-5.61z" class="cls-6"/><path d="M194.33 155.88h5.61v5.61h-5.61zm0 5.61h5.61v5.61h-5.61zm-5.61 0h5.61v5.61h-5.61z" class="cls-6"/><path d="M188.72 167.1h5.61v5.61h-5.61z" class="cls-6"/><path d="M183.11 167.1h5.61v5.61h-5.61z" class="cls-6"/><path d="M183.11 172.7h5.61v5.61h-5.61zm-5.61 0h5.61v5.61h-5.61zm0 5.61h5.61v5.61h-5.61z" class="cls-6"/><path d="M171.9 178.31h5.61v5.61h-5.61z" class="cls-6"/><path d="M171.9 183.92h5.61v5.61h-5.61zm-5.61 0h5.61v5.61h-5.61zm0 5.61h5.61v5.61h-5.61z" class="cls-6"/><path d="M160.68 189.53h5.61v5.61h-5.61z" class="cls-6"/><path d="M160.68 195.14h5.61v5.61h-5.61zm-5.61 0h5.61v5.61h-5.61z" class="cls-6"/><path d="M155.07 200.74h5.61v5.61h-5.61z" class="cls-6"/><path d="M149.46 200.74h5.61v5.61h-5.61z" class="cls-6"/><path d="M199.93 161.49h5.61v5.61h-5.61z" class="cls-4"/><path d="M199.93 167.1h5.61v5.61h-5.61z" class="cls-4"/><path d="M194.33 167.1h5.61v5.61h-5.61z" class="cls-4"/><path d="M194.33 172.7h5.61v5.61h-5.61zm-5.61 0h5.61v5.61h-5.61zm0 5.61h5.61v5.61h-5.61z" class="cls-4"/><path d="M183.11 178.31h5.61v5.61h-5.61z" class="cls-4"/><path d="M183.11 183.92h5.61v5.61h-5.61zm-5.61 0h5.61v5.61h-5.61zm0 5.61h5.61v5.61h-5.61z" class="cls-4"/><path d="M171.9 189.53h5.61v5.61h-5.61z" class="cls-4"/><path d="M171.9 195.14h5.61v5.61h-5.61zm-5.61 0h5.61v5.61h-5.61z" class="cls-4"/><path d="M166.29 200.74h5.61v5.61h-5.61z" class="cls-4"/><path d="M160.68 200.74h5.61v5.61h-5.61z" class="cls-4"/><path d="M199.93 172.7h5.61v5.61h-5.61zm0 5.61h5.61v5.61h-5.61z" class="cls-6"/><path d="M194.33 178.31h5.61v5.61h-5.61z" class="cls-6"/><path d="M194.33 183.92h5.61v5.61h-5.61zm-5.61 0h5.61v5.61h-5.61zm0 5.61h5.61v5.61h-5.61z" class="cls-6"/><path d="M183.11 189.53h5.61v5.61h-5.61z" class="cls-6"/><path d="M183.11 195.14h5.61v5.61h-5.61zm-5.61 0h5.61v5.61h-5.61z" class="cls-6"/><path d="M177.5 200.74h5.61v5.61h-5.61z" class="cls-6"/><path d="M171.9 200.74h5.61v5.61h-5.61z" class="cls-6"/><path d="M199.93 183.92h5.61v5.61h-5.61zm0 5.61h5.61v5.61h-5.61z" class="cls-4"/><path d="M194.33 189.53h5.61v5.61h-5.61z" class="cls-4"/><path d="M194.33 195.14h5.61v5.61h-5.61zm-5.61 0h5.61v5.61h-5.61z" class="cls-4"/><path d="M188.72 200.74h5.61v5.61h-5.61z" class="cls-4"/><path d="M183.11 200.74h5.61v5.61h-5.61z" class="cls-4"/><path d="M199.93 195.14h5.61v5.61h-5.61z" class="cls-6"/><path d="M199.93 200.74h5.61v5.61h-5.61z" class="cls-6"/><path d="M194.33 200.74h5.61v5.61h-5.61z" class="cls-6"/></g></svg>