<svg xmlns="http://www.w3.org/2000/svg" xmlns:xlink="http://www.w3.org/1999/xlink" fill="none" version="1.1" width="100" height="100" viewBox="0 0 100 100"><rect x="1" y="1" width="98" height="98" rx="6.940941333770752" fill-opacity="0" stroke-opacity="1" stroke="#58504A" fill="none" stroke-width="2"/><path d="M24,0L24,99L26,99L26,0L24,0ZM74,0L74,99L76,99L76,0L74,0Z" fill-rule="evenodd" fill="#58504A" fill-opacity="1"/><path d="M38,31L38,77.5Q38,82.263458,41.3682721,85.631729Q44.7365432,89,49.5,89Q54.263457,89,57.631729,85.631729Q61,82.263458,61,77.5L61,22.5Q61,17.736544600000002,57.631729,14.368272300000001Q54.263456,11.00000077,49.5,11.00000125Q44.7365446,11,41.3682723,14.3682721Q38.00000077,17.7365437,38.00000125,22.5L38,31ZM40,50L40,31L40.0000013,22.5Q40.000001,18.564971,42.782486,15.7824855Q45.5649714,13,49.5,13.000001300000001Q53.435031,13.000001,56.217516,15.782486Q59,18.564971,59,22.5L59,77.5Q59,81.435028,56.217516,84.217514Q53.43503,87,49.5,87Q45.5649714,87,42.7824855,84.217514Q40,81.435028,40,77.5L40,50Z" fill-rule="evenodd" fill="#58504A" fill-opacity="1"/><path d="M43,57L46,57L49,43L46.5,43L43,57Z" fill="#58504A" fill-opacity="1"/><path d="M56,57L59,57L62,43L59.5,43L56,57Z" fill="#58504A" fill-opacity="1" transform="matrix(-1,0,0,1,112,0)"/></svg>