<svg xmlns="http://www.w3.org/2000/svg" xmlns:xlink="http://www.w3.org/1999/xlink" fill="none" version="1.1" width="100" height="100" viewBox="0 0 100 100"><g><g><rect x="1" y="1" width="98" height="98" rx="6.940941333770752" fill-opacity="0" stroke-opacity="1" stroke="#58504A" fill="none" stroke-width="2"/></g><g><g><path d="M33.5,44L33.5,99L36.5,99L36.5,44Q36.5,39.65076,39.57538,36.57538Q42.65076,33.5,47,33.5L100,33.5L100,30.5L47,30.5Q41.40812,30.5,37.45406,34.45406Q33.5,38.40812,33.5,44Z" fill-rule="evenodd" fill="#58504A" fill-opacity="1"/></g></g><g><path d="M28.5,45.8367L28.5,98L31.5,98L31.5,45.8367Q31.5,38.6556,36.57779,33.57779Q41.6556,28.5,48.8367,28.5L98,28.5L98,25.5L48.8367,25.5Q40.4129,25.5,34.45647,31.45647Q28.5,37.4129,28.5,45.8367Z" fill-rule="evenodd" fill="#EB9961" fill-opacity="1"/></g></g></svg>