<svg xmlns="http://www.w3.org/2000/svg" xmlns:xlink="http://www.w3.org/1999/xlink" fill="none" version="1.1" width="100" height="100" viewBox="0 0 100 100"><g><g><rect x="1" y="1" width="98" height="98" rx="6.940941333770752" fill-opacity="0" stroke-opacity="1" stroke="#58504A" fill="none" stroke-width="2"/></g><g><path d="M72,40Q72,40.540099999999995,71.9735,41.079499999999996Q71.947,41.6189,71.89410000000001,42.156400000000005Q71.8411,42.693799999999996,71.7619,43.2281Q71.68260000000001,43.762299999999996,71.57730000000001,44.292Q71.4719,44.8217,71.3407,45.345600000000005Q71.20949999999999,45.8694,71.0527,46.3863Q70.8959,46.903099999999995,70.714,47.4116Q70.532,47.920100000000005,70.3253,48.419Q70.11869999999999,48.918,69.8878,49.4062Q69.65690000000001,49.894400000000005,69.4023,50.3707Q69.1477,50.847,68.87,51.3103Q68.5924,51.7735,68.2923,52.2225Q67.9923,52.6716,67.67060000000001,53.1054Q67.3488,53.5392,67.0062,53.9567Q66.6636,54.3741,66.3009,54.7743Q65.9382,55.1745,65.5563,55.5563Q65.1745,55.9382,64.7743,56.3009Q64.3741,56.6636,63.9567,57.0062Q63.5392,57.3488,63.1054,57.6706Q62.6716,57.9923,62.2225,58.2923Q61.7735,58.5924,61.3103,58.87Q60.847,59.1477,60.3707,59.4023Q59.894400000000005,59.6569,59.4062,59.8878Q58.918,60.1187,58.419,60.3253Q57.920100000000005,60.532,57.4116,60.714Q56.903099999999995,60.8959,56.3863,61.0527Q55.8694,61.2095,55.345600000000005,61.3407Q54.8217,61.4719,54.292,61.5773Q53.762299999999996,61.6826,53.2281,61.7619Q52.693799999999996,61.8411,52.156400000000005,61.8941Q51.6189,61.947,51.079499999999996,61.9735Q50.540099999999995,62,50,62Q49.459900000000005,62,48.920500000000004,61.9735Q48.3811,61.947,47.843599999999995,61.8941Q47.306200000000004,61.8411,46.7719,61.7619Q46.237700000000004,61.6826,45.708,61.5773Q45.1783,61.4719,44.654399999999995,61.3407Q44.1305,61.2095,43.6137,61.0527Q43.0969,60.8959,42.5884,60.714Q42.0799,60.532,41.581,60.3253Q41.082,60.1187,40.5938,59.8878Q40.1056,59.6569,39.6293,59.4023Q39.153,59.1477,38.6897,58.87Q38.2265,58.5924,37.77745,58.2923Q37.3284,57.9923,36.89461,57.6706Q36.46083,57.3488,36.043350000000004,57.0062Q35.62587,56.6636,35.2257,56.3009Q34.825540000000004,55.9382,34.44365,55.5563Q34.06176,55.1745,33.69907,54.7743Q33.33639,54.3741,32.99377,53.9567Q32.65115,53.5392,32.32943,53.1054Q32.00771,52.6716,31.70767,52.2225Q31.40762,51.7735,31.12997,51.3103Q30.85232,50.847,30.59773,50.3707Q30.34314,49.894400000000005,30.11224,49.4062Q29.88133,48.918,29.67465,48.419Q29.46797,47.920100000000005,29.28603,47.4116Q29.10409,46.903099999999995,28.947312,46.3863Q28.790539,45.8694,28.659312,45.345600000000005Q28.528086000000002,44.8217,28.422724,44.292Q28.317361,43.762299999999996,28.238117,43.2281Q28.158872,42.693799999999996,28.105936,42.156400000000005Q28.0529999,41.6189,28.0265,41.079499999999996Q28,40.540099999999995,28,40Q28,39.459900000000005,28.0265,38.920500000000004Q28.0529999,38.3811,28.105936,37.843599999999995Q28.158872,37.306200000000004,28.238117,36.7719Q28.317361,36.237700000000004,28.422724,35.708Q28.528086000000002,35.1783,28.659312,34.654399999999995Q28.790539,34.1305,28.947312,33.6137Q29.10409,33.0969,29.28603,32.5884Q29.46797,32.0799,29.67465,31.581Q29.88133,31.082,30.11223,30.5938Q30.34314,30.105600000000003,30.59773,29.6293Q30.85232,29.153,31.12997,28.689700000000002Q31.40762,28.2265,31.70767,27.77745Q32.00771,27.328400000000002,32.32943,26.89461Q32.65115,26.46083,32.99377,26.04335Q33.33639,25.62587,33.69907,25.2257Q34.06176,24.82554,34.44365,24.443649999999998Q34.825540000000004,24.06176,35.2257,23.69907Q35.62587,23.33639,36.043350000000004,22.993769999999998Q36.46083,22.65115,36.89462,22.329430000000002Q37.3284,22.00771,37.77745,21.70767Q38.2265,21.40762,38.6897,21.12997Q39.153,20.85232,39.6293,20.59773Q40.1056,20.34314,40.5938,20.11224Q41.082,19.88133,41.581,19.67465Q42.0799,19.46797,42.5884,19.28603Q43.0969,19.10409,43.6137,18.947312Q44.1305,18.790539,44.654399999999995,18.659312Q45.1783,18.528086000000002,45.708,18.422724Q46.237700000000004,18.317361,46.7719,18.238117Q47.306200000000004,18.158872,47.843599999999995,18.105936Q48.3811,18.0529999,48.920500000000004,18.0265Q49.459900000000005,18,50,18Q50.540099999999995,18,51.079499999999996,18.0265Q51.6189,18.0529999,52.156400000000005,18.105936Q52.693799999999996,18.158872,53.2281,18.238117Q53.762299999999996,18.317361,54.292,18.422724Q54.8217,18.528086000000002,55.345600000000005,18.659312Q55.8694,18.790539,56.3863,18.947312Q56.903099999999995,19.10409,57.4116,19.28603Q57.920100000000005,19.46797,58.419,19.67465Q58.918,19.88133,59.4062,20.11223Q59.894400000000005,20.34314,60.3707,20.59773Q60.847,20.85232,61.3103,21.12997Q61.7735,21.40762,62.2225,21.70767Q62.6716,22.00771,63.1054,22.329430000000002Q63.5392,22.65115,63.9567,22.993769999999998Q64.3741,23.33639,64.7743,23.69907Q65.1745,24.06176,65.5563,24.443649999999998Q65.9382,24.82554,66.3009,25.2257Q66.6636,25.62587,67.0062,26.04335Q67.3488,26.46083,67.67060000000001,26.89462Q67.9923,27.328400000000002,68.2923,27.77745Q68.5924,28.2265,68.87,28.689700000000002Q69.1477,29.153,69.4023,29.6293Q69.65690000000001,30.105600000000003,69.8878,30.5938Q70.11869999999999,31.082,70.3253,31.581Q70.532,32.0799,70.714,32.5884Q70.8959,33.0969,71.0527,33.6137Q71.20949999999999,34.1305,71.3407,34.654399999999995Q71.4719,35.1783,71.57730000000001,35.708Q71.68260000000001,36.237700000000004,71.7619,36.7719Q71.8411,37.306200000000004,71.89410000000001,37.843599999999995Q71.947,38.3811,71.9735,38.920500000000004Q72,39.459900000000005,72,40ZM69,40Q69,39.5336,68.97710000000001,39.0677Q68.9542,38.6019,68.9085,38.137699999999995Q68.8628,37.673500000000004,68.79429999999999,37.2121Q68.7259,36.750699999999995,68.6349,36.2933Q68.54390000000001,35.8358,68.4306,35.3834Q68.3173,34.9309,68.1819,34.4846Q68.04650000000001,34.0382,67.88929999999999,33.5991Q67.7322,33.1599,67.55369999999999,32.729Q67.3752,32.2981,67.17580000000001,31.8765Q66.9764,31.4548,66.7565,31.0435Q66.53659999999999,30.6321,66.29679999999999,30.232Q66.057,29.832,65.7979,29.444200000000002Q65.53880000000001,29.0563,65.26089999999999,28.6817Q64.98310000000001,28.3071,64.68719999999999,27.94653Q64.3913,27.58598,64.0781,27.240380000000002Q63.7648,26.89478,63.435,26.564970000000002Q63.1052,26.23516,62.7596,25.92193Q62.414,25.6087,62.0535,25.3128Q61.6929,25.0169,61.3183,24.739060000000002Q60.9437,24.46121,60.5558,24.20208Q60.168,23.94295,59.768,23.70316Q59.3679,23.46337,58.9565,23.2435Q58.5452,23.02362,58.1235,22.8242Q57.701899999999995,22.62478,57.271,22.44629Q56.8401,22.2678,56.4009,22.11066Q55.9617,21.95353,55.5154,21.81813Q55.0691,21.68274,54.6166,21.56941Q54.1642,21.45607,53.7067,21.36508Q53.249300000000005,21.27408,52.7879,21.20565Q52.326499999999996,21.13721,51.862300000000005,21.09149Q51.3981,21.04577,50.9323,21.02289Q50.4664,21,50,21Q49.5336,21,49.0677,21.02289Q48.6019,21.04577,48.137699999999995,21.09149Q47.673500000000004,21.13721,47.2121,21.20565Q46.750699999999995,21.27409,46.2933,21.36508Q45.8358,21.45607,45.3834,21.56941Q44.9309,21.68274,44.4846,21.81813Q44.0382,21.95353,43.5991,22.11066Q43.1599,22.2678,42.729,22.44629Q42.2981,22.62478,41.8765,22.8242Q41.4548,23.02363,41.0435,23.2435Q40.6321,23.46337,40.232,23.70316Q39.832,23.94295,39.4442,24.20208Q39.0563,24.46121,38.6817,24.739060000000002Q38.3071,25.0169,37.946529999999996,25.3128Q37.58598,25.6087,37.24038,25.92193Q36.89478,26.23516,36.56497,26.564970000000002Q36.23516,26.89478,35.92193,27.240380000000002Q35.6087,27.58598,35.3128,27.94653Q35.0169,28.3071,34.73906,28.6817Q34.46121,29.0563,34.20208,29.444200000000002Q33.942949999999996,29.832,33.70316,30.232Q33.46337,30.6321,33.2435,31.0435Q33.02362,31.4548,32.8242,31.8765Q32.62478,32.2981,32.44629,32.729Q32.2678,33.1599,32.11066,33.5991Q31.95353,34.0382,31.81813,34.4846Q31.68274,34.9309,31.56941,35.3834Q31.45607,35.8358,31.36508,36.2933Q31.27408,36.750699999999995,31.20565,37.2121Q31.13721,37.673500000000004,31.09149,38.137699999999995Q31.04577,38.6019,31.02289,39.0677Q31,39.5336,31,40Q31,40.4664,31.02289,40.9323Q31.04577,41.3981,31.09149,41.862300000000005Q31.13721,42.326499999999996,31.20565,42.7879Q31.27408,43.249300000000005,31.36508,43.7067Q31.45607,44.1642,31.56941,44.6166Q31.68274,45.0691,31.81813,45.5154Q31.95353,45.9617,32.11066,46.4009Q32.2678,46.8401,32.44629,47.271Q32.62478,47.701899999999995,32.8242,48.1235Q33.02362,48.5452,33.2435,48.9565Q33.46337,49.3679,33.70316,49.768Q33.942949999999996,50.168,34.20208,50.5558Q34.46121,50.9437,34.73906,51.3183Q35.0169,51.6929,35.3128,52.0535Q35.6087,52.414,35.92193,52.7596Q36.23516,53.1052,36.56497,53.435Q36.89478,53.7648,37.24038,54.0781Q37.58598,54.3913,37.946529999999996,54.6872Q38.3071,54.9831,38.6817,55.2609Q39.0563,55.5388,39.4442,55.7979Q39.832,56.057,40.232,56.2968Q40.6321,56.5366,41.0435,56.7565Q41.4548,56.9764,41.8765,57.1758Q42.2981,57.3752,42.729,57.5537Q43.1599,57.7322,43.5991,57.8893Q44.0382,58.0465,44.4846,58.1819Q44.9309,58.3173,45.3834,58.4306Q45.8358,58.5439,46.2933,58.6349Q46.750699999999995,58.7259,47.2121,58.7943Q47.673500000000004,58.8628,48.137699999999995,58.9085Q48.6019,58.9542,49.0677,58.9771Q49.5336,59,50,59Q50.4664,59,50.9323,58.9771Q51.3981,58.9542,51.862300000000005,58.9085Q52.326499999999996,58.8628,52.7879,58.7943Q53.249300000000005,58.7259,53.7067,58.6349Q54.1642,58.5439,54.6166,58.4306Q55.0691,58.3173,55.5154,58.1819Q55.9617,58.0465,56.4009,57.8893Q56.8401,57.7322,57.271,57.5537Q57.701899999999995,57.3752,58.1235,57.1758Q58.5452,56.9764,58.9565,56.7565Q59.3679,56.5366,59.768,56.2968Q60.168,56.057,60.5558,55.7979Q60.9437,55.5388,61.3183,55.2609Q61.6929,54.9831,62.0535,54.6872Q62.414,54.3913,62.7596,54.0781Q63.1052,53.7648,63.435,53.435Q63.7648,53.1052,64.0781,52.7596Q64.3913,52.414,64.68719999999999,52.0535Q64.98310000000001,51.6929,65.26089999999999,51.3183Q65.53880000000001,50.9437,65.7979,50.5558Q66.057,50.168,66.29679999999999,49.768Q66.53659999999999,49.3679,66.7565,48.9565Q66.9764,48.5452,67.17580000000001,48.1235Q67.3752,47.701899999999995,67.55369999999999,47.271Q67.7322,46.8401,67.88929999999999,46.4009Q68.04650000000001,45.9617,68.1819,45.5154Q68.3173,45.0691,68.4306,44.6166Q68.54390000000001,44.1642,68.6349,43.7067Q68.7259,43.249300000000005,68.79429999999999,42.7879Q68.8628,42.326499999999996,68.9085,41.862300000000005Q68.9542,41.3981,68.97710000000001,40.9323Q69,40.4664,69,40Z" fill="#58504A" fill-opacity="1"/></g><g><rect x="49" y="66" width="3" height="16" rx="1.5" fill="#58504A" fill-opacity="1"/></g><g><path d="M57.3721,39.4428L53.0987,39.4428C52.7136,39.4428,52.4193,39.0738,52.482,38.6715L54.0035,28.774284C54.1037,28.125995,53.349199999999996,27.733697,52.926500000000004,28.212434000000002L42.169425,40.4368C41.796871,40.8624,42.0786342,41.5572,42.626507,41.5572L46.89991,41.5572C47.28499,41.5572,47.57928,41.9262,47.51666,42.3285L45.99514,52.2257C45.89496,52.873999999999995,46.64946,53.2663,47.0721,52.7876L57.8292,40.5632C58.204899999999995,40.1376,57.92,39.4428,57.3721,39.4428Z" fill="#EB9961" fill-opacity="1" style="mix-blend-mode:passthrough"/></g></g></svg>