<svg xmlns="http://www.w3.org/2000/svg" xmlns:xlink="http://www.w3.org/1999/xlink" fill="none" version="1.1" width="100" height="100" viewBox="0 0 100 100"><g><g><path d="M37.499999,75.00000800000001L98.5,75.00000800000001L98.5,73.00000800000001L37.499999,73.00000800000001Q33.7720785,73.00000800000001,31.1360388,70.36396400000001Q28.49999952,67.72792100000001,28.4999994,63.999996L28.5,37.4704695Q28.5,32.5470474,32.6459651,29.8916626L32.7233634,29.842090849999998L31.6446924,28.157909150000002L31.567290800000002,28.20748264Q26.5,31.4529529,26.5,37.4704695L26.4999993,63.999996Q26.499999,68.556351,29.7218244,71.778179Q32.9436488,75.00000800000001,37.499999,75.00000800000001Z" fill-rule="evenodd" fill="#EB9961" fill-opacity="1"/></g><g><rect x="1" y="1" width="98" height="98" rx="6.940941333770752" fill-opacity="0" stroke-opacity="1" stroke="#58504A" fill="none" stroke-width="2"/></g><g><path d="M41,69L100,69L100,67L41,67Q37.6862922,67,35.3431454,64.656853Q33,62.313709,33,59L33,40.0000019Q33,36.6862922,35.3431458,34.3431461Q37.6862922,31.99999952,41,32L100,32L100,30L41,30Q36.8578644,29.9999995,33.928932,32.9289324Q31,35.8578644,31,40.0000019L31,59Q30.9999996,63.142136,33.9289316,66.071068Q36.8578634,69,41,69Z" fill-rule="evenodd" fill="#58504A" fill-opacity="1"/></g></g></svg>