<svg xmlns="http://www.w3.org/2000/svg" xmlns:xlink="http://www.w3.org/1999/xlink" fill="none" version="1.1" width="100" height="100" viewBox="0 0 100 100"><g><g><path d="M24.60811,86.68L24.60811,99L30.60811,99L30.60811,74.36Q30.60811,66.0437,25.5,60.0775L25.5,44.9739Q25.5,36.2862,31.64312,30.14312Q37.7862,24,46.4739,24L57.9416,24Q62.784,28.08,70.7432,28.08L99.5,28.08L99.5,22.08L70.7432,22.08Q64.4483,22.08,61.2176,18.8714L60.3402,18L46.4739,18Q35.301,18,27.40048,25.90048Q19.5,33.801,19.5,44.9739L19.5,62.4303L20.32733,63.2992Q24.60811,67.79509999999999,24.60811,74.36L24.60811,86.68Z" fill-rule="evenodd" fill="#EB9961" fill-opacity="1"/></g><g><path d="M26.5,45.8367L26.5,99L32.5,99L32.5,45.8367Q32.5,39.2769,37.13845,34.63845Q41.7769,30,48.3367,30L99.5,30L99.5,24L48.3367,24Q39.29162,24,32.89581,30.39581Q26.5,36.79162,26.5,45.8367Z" fill-rule="evenodd" fill="#EB9961" fill-opacity="1"/></g><g><g><path d="M35,46L35,99L38,99L38,46Q38,41.65076,41.07538,38.57538Q44.15076,35.5,48.5,35.5L99.5,35.5L99.5,32.5L48.5,32.5Q42.90812,32.5,38.95406,36.45406Q35,40.40812,35,46Z" fill-rule="evenodd" fill="#58504A" fill-opacity="1"/></g></g><g><rect x="1" y="1" width="98" height="98" rx="6.940941333770752" fill-opacity="0" stroke-opacity="1" stroke="#58504A" fill="none" stroke-width="2"/></g><g><path d="M29.11135,31.953310000000002Q23,42.048500000000004,23,62L28,62Q28,43.4441,33.38865,34.542699999999996Q38.3898,26.28138,48.4441,26.50614L48.5559,21.50739Q35.6102,21.21799,29.11135,31.953310000000002Z" fill-rule="evenodd" fill="#EB9961" fill-opacity="1"/></g></g></svg>