<svg xmlns="http://www.w3.org/2000/svg" xmlns:xlink="http://www.w3.org/1999/xlink" fill="none" version="1.1" width="100" height="100" viewBox="0 0 100 100"><g><g><rect x="1" y="1" width="98" height="98" rx="6.940941333770752" fill-opacity="0" stroke-opacity="1" stroke="#58504A" fill="none" stroke-width="2"/></g><g><rect x="34" y="8.5" width="33" height="83" rx="16.5" fill-opacity="0" stroke-opacity="1" stroke="#EB9961" fill="none" stroke-width="3"/></g><g><path d="M37.5,25L37.5,75Q37.5,75.31909999999999,37.5156591,75.6379Q37.5313181,75.95660000000001,37.5625985,76.2742Q37.593879,76.5918,37.640705,76.9075Q37.687532,77.2232,37.749791,77.5362Q37.812051,77.8492,37.889594,78.1587Q37.967135999999996,78.4683,38.059776,78.7737Q38.152415,79.0791,38.259927,79.3796Q38.367439,79.68,38.489565999999996,79.9749Q38.61169,80.2697,38.74814,80.5582Q38.88459,80.8467,39.03502,81.1282Q39.18546,81.4096,39.34953,81.6833Q39.51359,81.957,39.6909,82.2224Q39.8682,82.4877,40.0583,82.7441Q40.24841,83.0004,40.45086,83.2471Q40.65332,83.4938,40.86764,83.7303Q41.08195,83.9667,41.30761,84.1924Q41.53327,84.418,41.76973,84.6324Q42.006190000000004,84.8467,42.25289,85.0491Q42.49958,85.2516,42.75591,85.4417Q43.01224,85.6318,43.277590000000004,85.8091Q43.54293,85.9864,43.81666,86.1505Q44.09039,86.3145,44.37184,86.465Q44.65329,86.6154,44.94178,86.7519Q45.23027,86.8883,45.52511,87.0104Q45.81995,87.1326,46.12043,87.2401Q46.42091,87.3476,46.7263,87.4402Q47.03169,87.5329,47.34126,87.6104Q47.650800000000004,87.688,47.9638,87.7502Q48.2768,87.8125,48.5925,87.8593Q48.9082,87.9061,49.2258,87.9374Q49.5434,87.9687,49.8621,87.9843Q50.1809,88,50.5,88Q50.8191,88,51.1379,87.9843Q51.4566,87.9687,51.7742,87.9374Q52.0918,87.9061,52.4075,87.8593Q52.7232,87.8125,53.0362,87.7502Q53.349199999999996,87.688,53.658699999999996,87.6104Q53.9683,87.5329,54.273700000000005,87.4402Q54.5791,87.3476,54.879599999999996,87.2401Q55.18,87.1326,55.474900000000005,87.0104Q55.7697,86.8883,56.0582,86.7519Q56.3467,86.6154,56.6282,86.465Q56.9096,86.3145,57.1833,86.1505Q57.4571,85.9864,57.7224,85.8091Q57.9878,85.6318,58.2441,85.4417Q58.5004,85.2516,58.7471,85.0491Q58.9938,84.8467,59.2303,84.6324Q59.4667,84.418,59.6924,84.1924Q59.918,83.9667,60.132400000000004,83.7303Q60.3467,83.4938,60.549099999999996,83.2471Q60.751599999999996,83.0004,60.9417,82.7441Q61.1318,82.4877,61.3091,82.2224Q61.4864,81.957,61.6505,81.6833Q61.814499999999995,81.4096,61.965,81.1282Q62.1154,80.8467,62.2519,80.5582Q62.3883,80.2697,62.510400000000004,79.9749Q62.6326,79.68,62.7401,79.3796Q62.8476,79.0791,62.940200000000004,78.7737Q63.0329,78.4683,63.1104,78.1587Q63.1879,77.8492,63.2502,77.5362Q63.3125,77.2232,63.359300000000005,76.9075Q63.406099999999995,76.5918,63.4374,76.2742Q63.4687,75.95660000000001,63.484300000000005,75.6379Q63.5,75.31909999999999,63.5,75L63.5,25Q63.5,24.6809,63.484300000000005,24.362099999999998Q63.4687,24.0434,63.4374,23.7258Q63.406099999999995,23.4082,63.359300000000005,23.0925Q63.3125,22.7768,63.2502,22.4638Q63.1879,22.1508,63.1104,21.84126Q63.0329,21.531689999999998,62.940200000000004,21.226300000000002Q62.8476,20.92091,62.7401,20.62043Q62.6326,20.31995,62.510400000000004,20.025109999999998Q62.3883,19.73027,62.2519,19.44178Q62.1154,19.15329,61.965,18.87184Q61.814499999999995,18.59039,61.6505,18.31666Q61.4864,18.04293,61.3091,17.77759Q61.1318,17.51224,60.9417,17.25591Q60.751599999999996,16.99958,60.549099999999996,16.75289Q60.3467,16.50619,60.132400000000004,16.26973Q59.918,16.03327,59.6924,15.80761Q59.4667,15.581949999999999,59.2303,15.36764Q58.9938,15.15332,58.7471,14.95086Q58.5004,14.74841,58.2441,14.5583Q57.9878,14.3682,57.7224,14.1909Q57.4571,14.01359,57.1833,13.84953Q56.9096,13.685459999999999,56.6282,13.53502Q56.3467,13.38459,56.0582,13.24814Q55.7697,13.11169,55.474900000000005,12.989566Q55.18,12.867439,54.879599999999996,12.759927Q54.5791,12.652415,54.273700000000005,12.559776Q53.9683,12.467136,53.658699999999996,12.389594Q53.349199999999996,12.312051,53.0362,12.249791Q52.7232,12.187532,52.4075,12.140705Q52.0918,12.093879,51.7742,12.0625985Q51.4566,12.0313181,51.1379,12.0156591Q50.8191,12,50.5,12Q50.1809,12,49.8621,12.0156591Q49.5434,12.0313181,49.2258,12.0625985Q48.9082,12.093879,48.5925,12.140705Q48.2768,12.187532,47.9638,12.249791Q47.650800000000004,12.312051,47.34126,12.389594Q47.03169,12.467136,46.7263,12.559776Q46.42091,12.652415,46.12043,12.759927Q45.81995,12.867439,45.52511,12.989566Q45.23027,13.11169,44.94178,13.24814Q44.65329,13.38459,44.37184,13.53502Q44.09039,13.685459999999999,43.81666,13.84953Q43.54293,14.01359,43.277590000000004,14.1909Q43.01224,14.3682,42.75591,14.5583Q42.49958,14.74841,42.25289,14.95086Q42.006190000000004,15.15332,41.76973,15.36764Q41.53327,15.581949999999999,41.30761,15.80761Q41.08195,16.03327,40.86764,16.26973Q40.65332,16.50619,40.45086,16.75289Q40.24841,16.99958,40.0583,17.25591Q39.8682,17.51224,39.6909,17.77759Q39.51359,18.04293,39.34953,18.31666Q39.18546,18.59039,39.03502,18.87184Q38.88459,19.15329,38.74814,19.44178Q38.61169,19.73027,38.489565999999996,20.025109999999998Q38.367439,20.31995,38.259927,20.62043Q38.152415,20.92091,38.059776,21.226300000000002Q37.967135999999996,21.531689999999998,37.889594,21.84126Q37.812051,22.1508,37.749791,22.4638Q37.687532,22.7768,37.640705,23.0925Q37.593879,23.4082,37.5625985,23.7258Q37.5313181,24.0434,37.5156591,24.362099999999998Q37.5,24.6809,37.5,25ZM50.5,37Q50.769999999999996,37,51.039699999999996,36.9867Q51.3095,36.9735,51.5782,36.947Q51.8469,36.9206,52.114000000000004,36.8809Q52.3811,36.841300000000004,52.646,36.7886Q52.9108,36.736000000000004,53.1728,36.6703Q53.4347,36.6047,53.6931,36.5263Q53.951499999999996,36.448,54.205799999999996,36.357Q54.46,36.266,54.7095,36.1627Q54.959,36.0593,55.2031,35.9439Q55.447199999999995,35.8284,55.6854,35.7011Q55.923500000000004,35.5738,56.155100000000004,35.435Q56.386700000000005,35.2962,56.6113,35.1462Q56.8358,34.9961,57.0527,34.835300000000004Q57.2696,34.6744,57.478300000000004,34.5031Q57.6871,34.3318,57.887100000000004,34.1505Q58.087199999999996,33.9691,58.2782,33.7782Q58.4691,33.587199999999996,58.6505,33.387100000000004Q58.8318,33.1871,59.0031,32.978300000000004Q59.1744,32.7696,59.335300000000004,32.5527Q59.4961,32.3358,59.6462,32.1113Q59.7962,31.8867,59.935,31.6551Q60.0738,31.4235,60.2011,31.1854Q60.3284,30.9472,60.4439,30.7031Q60.5593,30.459,60.6627,30.2095Q60.766,29.96,60.857,29.7058Q60.948,29.4515,61.0263,29.1931Q61.1047,28.9347,61.1703,28.6728Q61.236000000000004,28.4108,61.2886,28.146Q61.341300000000004,27.8811,61.3809,27.614Q61.4206,27.346899999999998,61.447,27.078200000000002Q61.4735,26.8095,61.4867,26.5397Q61.5,26.27,61.5,26Q61.5,25.73,61.4867,25.4603Q61.4735,25.1905,61.447,24.921799999999998Q61.4206,24.653100000000002,61.3809,24.386Q61.341300000000004,24.1189,61.2886,23.854Q61.236000000000004,23.589199999999998,61.1703,23.327199999999998Q61.1047,23.0653,61.0263,22.8069Q60.948,22.5485,60.857,22.2942Q60.766,22.04,60.6627,21.790480000000002Q60.5593,21.541,60.4439,21.296889999999998Q60.3284,21.05278,60.2011,20.81464Q60.0738,20.57649,59.935,20.34487Q59.7962,20.11325,59.6462,19.88873Q59.4961,19.6642,59.335300000000004,19.44731Q59.1744,19.23041,59.0031,19.02167Q58.8318,18.81293,58.6505,18.61285Q58.4691,18.412770000000002,58.2782,18.22183Q58.087199999999996,18.03088,57.887100000000004,17.84954Q57.6871,17.66819,57.478300000000004,17.49688Q57.2696,17.325580000000002,57.0527,17.16472Q56.8358,17.00386,56.6113,16.853830000000002Q56.386700000000005,16.70381,56.155100000000004,16.56499Q55.923500000000004,16.42616,55.6854,16.29887Q55.447199999999995,16.17157,55.2031,16.05612Q54.959,15.94066,54.7095,15.83732Q54.46,15.73399,54.205799999999996,15.64301Q53.951499999999996,15.55204,53.6931,15.47366Q53.4347,15.39527,53.1728,15.32966Q52.9108,15.26404,52.646,15.211359999999999Q52.3811,15.15868,52.114000000000004,15.119060000000001Q51.8469,15.07944,51.5782,15.05297Q51.3095,15.0265,51.039699999999996,15.01325Q50.769999999999996,15,50.5,15Q50.230000000000004,15,49.960300000000004,15.01325Q49.6905,15.0265,49.4218,15.05297Q49.1531,15.07944,48.885999999999996,15.119060000000001Q48.6189,15.15868,48.354,15.211359999999999Q48.0892,15.26404,47.8272,15.32966Q47.5653,15.39527,47.30687,15.47366Q47.04846,15.55204,46.79421,15.64302Q46.53996,15.73399,46.29048,15.83732Q46.041,15.94066,45.79689,16.05612Q45.55278,16.17157,45.31463,16.29887Q45.07649,16.42616,44.84487,16.56499Q44.61325,16.70381,44.38873,16.853830000000002Q44.1642,17.00386,43.94731,17.16472Q43.73041,17.325580000000002,43.52167,17.49688Q43.31293,17.66819,43.11285,17.84954Q42.91277,18.03088,42.72182,18.22183Q42.530879999999996,18.412770000000002,42.34954,18.61285Q42.16819,18.81293,41.99688,19.02167Q41.82558,19.23041,41.66472,19.44731Q41.50386,19.6642,41.35383,19.88873Q41.20381,20.11325,41.06499,20.34487Q40.92616,20.57649,40.79887,20.81464Q40.67157,21.05278,40.55612,21.296889999999998Q40.44066,21.541,40.33732,21.790480000000002Q40.23399,22.04,40.14302,22.2942Q40.05204,22.5485,39.97366,22.8069Q39.89527,23.0653,39.82966,23.327199999999998Q39.76404,23.589199999999998,39.71136,23.854Q39.65868,24.1189,39.61906,24.386Q39.57944,24.653100000000002,39.55297,24.921799999999998Q39.5265,25.1905,39.51325,25.4603Q39.5,25.73,39.5,26Q39.5,26.27,39.51325,26.5397Q39.5265,26.8095,39.55297,27.078200000000002Q39.57944,27.346899999999998,39.61906,27.614Q39.65868,27.8811,39.71136,28.146Q39.76404,28.4108,39.82966,28.6728Q39.89527,28.9347,39.97366,29.1931Q40.05204,29.4515,40.14302,29.7058Q40.23399,29.96,40.33732,30.2095Q40.44066,30.459,40.55612,30.7031Q40.67157,30.9472,40.79887,31.1854Q40.92616,31.4235,41.06499,31.6551Q41.20381,31.8867,41.35383,32.1113Q41.50386,32.3358,41.66472,32.5527Q41.82558,32.7696,41.99688,32.978300000000004Q42.16819,33.1871,42.34954,33.387100000000004Q42.530879999999996,33.587199999999996,42.72182,33.7782Q42.91277,33.9691,43.11285,34.1505Q43.31293,34.3318,43.52167,34.5031Q43.73041,34.6744,43.94731,34.835300000000004Q44.1642,34.9961,44.38873,35.1462Q44.61325,35.2962,44.84487,35.435Q45.07649,35.5738,45.31463,35.7011Q45.55278,35.8284,45.79689,35.9439Q46.041,36.0593,46.29048,36.1627Q46.53996,36.266,46.79421,36.357Q47.04846,36.448,47.30687,36.5263Q47.5653,36.6047,47.8272,36.6703Q48.0892,36.736000000000004,48.354,36.7886Q48.6189,36.841300000000004,48.885999999999996,36.8809Q49.1531,36.9206,49.4218,36.947Q49.6905,36.9735,49.960300000000004,36.9867Q50.230000000000004,37,50.5,37ZM61.5,50Q61.5,50.27,61.4867,50.5397Q61.4735,50.8095,61.447,51.0782Q61.4206,51.3469,61.3809,51.614Q61.341300000000004,51.8811,61.2886,52.146Q61.236000000000004,52.4108,61.1703,52.6728Q61.1047,52.9347,61.0263,53.1931Q60.948,53.4515,60.857,53.7058Q60.766,53.96,60.6627,54.2095Q60.5593,54.459,60.4439,54.7031Q60.3284,54.9472,60.2011,55.1854Q60.0738,55.4235,59.935,55.6551Q59.7962,55.8867,59.6462,56.1113Q59.4961,56.3358,59.335300000000004,56.5527Q59.1744,56.7696,59.0031,56.9783Q58.8318,57.1871,58.6505,57.3871Q58.4691,57.5872,58.2782,57.7782Q58.087199999999996,57.9691,57.887100000000004,58.1505Q57.6871,58.3318,57.478300000000004,58.5031Q57.2696,58.6744,57.0527,58.8353Q56.8358,58.9961,56.6113,59.1462Q56.386700000000005,59.2962,56.155100000000004,59.435Q55.923500000000004,59.5738,55.6854,59.7011Q55.447199999999995,59.8284,55.2031,59.9439Q54.959,60.0593,54.7095,60.1627Q54.46,60.266,54.205799999999996,60.357Q53.951499999999996,60.448,53.6931,60.5263Q53.4347,60.6047,53.1728,60.6703Q52.9108,60.736,52.646,60.7886Q52.3811,60.8413,52.114000000000004,60.8809Q51.8469,60.9206,51.5782,60.947Q51.3095,60.9735,51.039699999999996,60.9867Q50.769999999999996,61,50.5,61Q50.230000000000004,61,49.960300000000004,60.9868Q49.6905,60.9735,49.4218,60.947Q49.1531,60.9206,48.885999999999996,60.8809Q48.6189,60.8413,48.354,60.7886Q48.0892,60.736,47.8272,60.6703Q47.5653,60.6047,47.30687,60.5263Q47.04846,60.448,46.79421,60.357Q46.53996,60.266,46.29048,60.1627Q46.041,60.0593,45.79689,59.9439Q45.55278,59.8284,45.31463,59.7011Q45.07649,59.5738,44.84487,59.435Q44.61325,59.2962,44.38873,59.1462Q44.1642,58.9961,43.94731,58.8353Q43.73041,58.6744,43.52167,58.5031Q43.31293,58.3318,43.11285,58.1505Q42.91277,57.9691,42.72182,57.7782Q42.530879999999996,57.5872,42.34954,57.3871Q42.16819,57.1871,41.99688,56.9783Q41.82558,56.7696,41.66472,56.5527Q41.50386,56.3358,41.35383,56.1113Q41.20381,55.8867,41.06499,55.6551Q40.92616,55.4235,40.79887,55.1854Q40.67157,54.9472,40.55612,54.7031Q40.44066,54.459,40.33732,54.2095Q40.23399,53.96,40.14302,53.7058Q40.05204,53.4515,39.97366,53.1931Q39.89527,52.9347,39.82966,52.6728Q39.76404,52.4108,39.71136,52.146Q39.65868,51.8811,39.61906,51.614Q39.57944,51.3469,39.55297,51.0782Q39.5265,50.8095,39.51325,50.5397Q39.5,50.27,39.5,50Q39.5,49.73,39.51325,49.4603Q39.5265,49.1905,39.55297,48.9218Q39.57944,48.6531,39.61906,48.386Q39.65868,48.1189,39.71136,47.854Q39.76404,47.5892,39.82966,47.3272Q39.89527,47.0653,39.97366,46.8069Q40.05204,46.5485,40.14302,46.2942Q40.23399,46.04,40.33732,45.7905Q40.44066,45.541,40.55612,45.2969Q40.67157,45.0528,40.79887,44.8146Q40.92616,44.5765,41.06499,44.3449Q41.20381,44.1133,41.35383,43.8887Q41.50386,43.6642,41.66472,43.4473Q41.82558,43.2304,41.99688,43.021699999999996Q42.16819,42.8129,42.34954,42.6128Q42.530879999999996,42.412800000000004,42.72182,42.2218Q42.91277,42.0309,43.11285,41.8495Q43.31293,41.6682,43.52167,41.4969Q43.73041,41.3256,43.94731,41.164699999999996Q44.1642,41.0039,44.38873,40.8538Q44.61325,40.7038,44.84487,40.565Q45.07649,40.4262,45.31463,40.2989Q45.55278,40.1716,45.79689,40.0561Q46.041,39.9407,46.29048,39.8373Q46.53996,39.734,46.79421,39.643Q47.04846,39.552,47.30687,39.4737Q47.5653,39.3953,47.8272,39.3297Q48.0892,39.263999999999996,48.354,39.2114Q48.6189,39.158699999999996,48.885999999999996,39.1191Q49.1531,39.0794,49.4218,39.053Q49.6905,39.0265,49.960300000000004,39.0133Q50.230000000000004,39,50.5,39Q50.769999999999996,39,51.039699999999996,39.0133Q51.3095,39.0265,51.5782,39.053Q51.8469,39.0794,52.114000000000004,39.1191Q52.3811,39.158699999999996,52.646,39.2114Q52.9108,39.263999999999996,53.1728,39.3297Q53.4347,39.3953,53.6931,39.4737Q53.951499999999996,39.552,54.205799999999996,39.643Q54.46,39.734,54.7095,39.8373Q54.959,39.9407,55.2031,40.0561Q55.447199999999995,40.1716,55.6854,40.2989Q55.923500000000004,40.4262,56.155100000000004,40.565Q56.386700000000005,40.7038,56.6113,40.8538Q56.8358,41.0039,57.0527,41.164699999999996Q57.2696,41.3256,57.478300000000004,41.4969Q57.6871,41.6682,57.887100000000004,41.8495Q58.087199999999996,42.0309,58.2782,42.2218Q58.4691,42.412800000000004,58.6505,42.6128Q58.8318,42.8129,59.0031,43.021699999999996Q59.1744,43.2304,59.335300000000004,43.4473Q59.4961,43.6642,59.6462,43.8887Q59.7962,44.1133,59.935,44.3449Q60.0738,44.5765,60.2011,44.8146Q60.3284,45.0528,60.4439,45.2969Q60.5593,45.541,60.6627,45.7905Q60.766,46.04,60.857,46.2942Q60.948,46.5485,61.0263,46.8069Q61.1047,47.0653,61.1703,47.3272Q61.236000000000004,47.5892,61.2886,47.854Q61.341300000000004,48.1189,61.3809,48.386Q61.4206,48.6531,61.447,48.9218Q61.4735,49.1905,61.4867,49.4603Q61.5,49.73,61.5,50ZM50.5,85Q50.769999999999996,85,51.039699999999996,84.9867Q51.3095,84.9735,51.5782,84.947Q51.8469,84.9206,52.114000000000004,84.8809Q52.3811,84.8413,52.646,84.7886Q52.9108,84.736,53.1728,84.6703Q53.4347,84.6047,53.6931,84.5263Q53.951499999999996,84.4479,54.205799999999996,84.357Q54.46,84.266,54.7095,84.1627Q54.959,84.0593,55.2031,83.9439Q55.447199999999995,83.8284,55.6854,83.7011Q55.923500000000004,83.5738,56.155100000000004,83.435Q56.386700000000005,83.2962,56.6113,83.1462Q56.8358,82.9961,57.0527,82.8353Q57.2696,82.6744,57.478300000000004,82.5031Q57.6871,82.3318,57.887100000000004,82.1505Q58.087199999999996,81.9691,58.2782,81.7782Q58.4691,81.5872,58.6505,81.3871Q58.8318,81.1871,59.0031,80.9783Q59.1744,80.7696,59.335300000000004,80.5527Q59.4961,80.3358,59.6462,80.1113Q59.7962,79.8867,59.935,79.6551Q60.0738,79.4235,60.2011,79.1853Q60.3284,78.9472,60.4439,78.7031Q60.5593,78.459,60.6627,78.2095Q60.766,77.96,60.857,77.7058Q60.948,77.4515,61.0263,77.1931Q61.1047,76.9347,61.1703,76.6728Q61.236000000000004,76.4108,61.2886,76.146Q61.341300000000004,75.8811,61.3809,75.614Q61.4206,75.3469,61.447,75.07820000000001Q61.4735,74.8095,61.4867,74.53970000000001Q61.5,74.27000000000001,61.5,74Q61.5,73.72999999999999,61.4867,73.46029999999999Q61.4735,73.1905,61.447,72.92179999999999Q61.4206,72.6531,61.3809,72.386Q61.341300000000004,72.1188,61.2886,71.854Q61.236000000000004,71.5892,61.1703,71.3272Q61.1047,71.06530000000001,61.0263,70.8069Q60.948,70.54849999999999,60.857,70.29419999999999Q60.766,70.03999999999999,60.6627,69.79050000000001Q60.5593,69.541,60.4439,69.2969Q60.3284,69.05279999999999,60.2011,68.8146Q60.0738,68.57650000000001,59.935,68.3449Q59.7962,68.1132,59.6462,67.8887Q59.4961,67.6642,59.335300000000004,67.4473Q59.1744,67.2304,59.0031,67.02170000000001Q58.8318,66.8129,58.6505,66.6128Q58.4691,66.4128,58.2782,66.2218Q58.087199999999996,66.0309,57.887100000000004,65.8495Q57.6871,65.6682,57.478300000000004,65.4969Q57.2696,65.32560000000001,57.0527,65.16470000000001Q56.8358,65.0039,56.6113,64.8538Q56.386700000000005,64.7038,56.155100000000004,64.565Q55.923500000000004,64.4262,55.6854,64.2989Q55.447199999999995,64.1716,55.2031,64.0561Q54.959,63.9407,54.7095,63.8373Q54.46,63.734,54.205799999999996,63.643Q53.951499999999996,63.552,53.6931,63.4737Q53.4347,63.3953,53.1728,63.3297Q52.9108,63.264,52.646,63.2114Q52.3811,63.1587,52.114000000000004,63.1191Q51.8469,63.0794,51.5782,63.053Q51.3095,63.0265,51.039699999999996,63.0133Q50.769999999999996,63,50.5,63Q50.230000000000004,63,49.960300000000004,63.0133Q49.6905,63.0265,49.4218,63.053Q49.1531,63.0794,48.885999999999996,63.1191Q48.6189,63.1587,48.354,63.2114Q48.0892,63.264,47.8272,63.3297Q47.5653,63.3953,47.30687,63.4736Q47.04846,63.552,46.79421,63.643Q46.53996,63.734,46.29048,63.8373Q46.041,63.9407,45.79689,64.0561Q45.55278,64.1716,45.31463,64.2989Q45.07649,64.4262,44.84487,64.565Q44.61325,64.7038,44.38873,64.8538Q44.1642,65.0039,43.94731,65.16470000000001Q43.73041,65.32560000000001,43.52167,65.4969Q43.31293,65.6682,43.11285,65.8495Q42.91277,66.0309,42.72182,66.2218Q42.530879999999996,66.4128,42.34954,66.6128Q42.16819,66.8129,41.99688,67.02170000000001Q41.82558,67.2304,41.66472,67.4473Q41.50386,67.6642,41.35383,67.8887Q41.20381,68.1132,41.06499,68.3449Q40.92616,68.57650000000001,40.79887,68.8146Q40.67157,69.05279999999999,40.55612,69.2969Q40.44066,69.541,40.33732,69.79050000000001Q40.23399,70.03999999999999,40.14302,70.29419999999999Q40.05204,70.54849999999999,39.97366,70.8069Q39.89527,71.06530000000001,39.82966,71.3272Q39.76404,71.5892,39.71136,71.854Q39.65868,72.1188,39.61906,72.386Q39.57944,72.6531,39.55297,72.92179999999999Q39.5265,73.1905,39.51325,73.46029999999999Q39.5,73.72999999999999,39.5,74Q39.5,74.27000000000001,39.51325,74.53970000000001Q39.5265,74.8095,39.55297,75.07820000000001Q39.57944,75.3469,39.61906,75.614Q39.65868,75.8811,39.71136,76.146Q39.76404,76.4108,39.82966,76.6728Q39.89527,76.9347,39.97366,77.1931Q40.05204,77.4515,40.14302,77.7058Q40.23399,77.96,40.33732,78.2095Q40.44066,78.459,40.55612,78.7031Q40.67157,78.9472,40.79887,79.1854Q40.92616,79.4235,41.06499,79.6551Q41.20381,79.8867,41.35383,80.1113Q41.50386,80.3358,41.66472,80.5527Q41.82558,80.7696,41.99688,80.9783Q42.16819,81.1871,42.34954,81.3871Q42.530879999999996,81.5872,42.72182,81.7782Q42.91277,81.9691,43.11285,82.1505Q43.31293,82.3318,43.52167,82.5031Q43.73041,82.6744,43.94731,82.8353Q44.1642,82.9961,44.38873,83.1462Q44.61325,83.2962,44.84487,83.435Q45.07649,83.5738,45.31463,83.7011Q45.55278,83.8284,45.79689,83.9439Q46.041,84.0593,46.29048,84.1627Q46.53996,84.266,46.79421,84.357Q47.04846,84.4479,47.30687,84.5263Q47.5653,84.6047,47.8272,84.6703Q48.0892,84.736,48.354,84.7886Q48.6189,84.8413,48.885999999999996,84.8809Q49.1531,84.9206,49.4218,84.947Q49.6905,84.9735,49.960300000000004,84.9867Q50.230000000000004,85,50.5,85Z" fill-rule="evenodd" fill="#58504A" fill-opacity="1"/></g></g></svg>