<svg xmlns="http://www.w3.org/2000/svg" xmlns:xlink="http://www.w3.org/1999/xlink" fill="none" version="1.1" width="100" height="100" viewBox="0 0 100 100"><g><g><rect x="1" y="1" width="98" height="98" rx="6.940941333770752" fill-opacity="0" stroke-opacity="1" stroke="#58504A" fill="none" stroke-width="2"/></g><g><path d="M23,44.8367L23,98L31,98L31,44.8367Q31,38.6911,35.34556,34.34556Q39.6911,30,45.8367,30L98,30L98,22L45.8367,22Q36.37741,22,29.6887,28.6887Q23,35.37741,23,44.8367Z" fill-rule="evenodd" fill="#EB9961" fill-opacity="1"/></g><g><path d="M33.5,46L33.5,98L36.5,98L36.5,46Q36.5,41.65076,39.57538,38.57538Q42.65076,35.5,47,35.5L98,35.5L98,32.5L47,32.5Q41.40812,32.5,37.45406,36.45406Q33.5,40.40812,33.5,46Z" fill-rule="evenodd" fill="#58504A" fill-opacity="1"/></g><g></g></g></svg>