<svg xmlns="http://www.w3.org/2000/svg" xmlns:xlink="http://www.w3.org/1999/xlink" fill="none" version="1.1" width="100" height="100" viewBox="0 0 100 100"><g><g><rect x="1" y="1" width="98" height="98" rx="6.940941333770752" fill-opacity="0" stroke-opacity="1" stroke="#58504A" fill="none" stroke-width="2"/></g><g><rect x="15" y="15" width="70" height="70" rx="13.911412239074707" fill-opacity="0" stroke-opacity="1" stroke="#EB9961" fill="none" stroke-width="4"/></g><g><path d="M20,69.7902L20,30.2098Q20,29.95915,20.0122981,29.70881Q20.0245963,29.45848,20.0491629,29.209049999999998Q20.0737295,28.95962,20.110505,28.71169Q20.147281,28.46377,20.196178,28.217950000000002Q20.245075,27.97213,20.305974,27.72901Q20.366874,27.48588,20.43963,27.24604Q20.512385,27.00619,20.596822,26.77021Q20.681259,26.53422,20.777173,26.30267Q20.873088,26.07111,20.980248,25.844540000000002Q21.08741,25.61796,21.20556,25.39692Q21.32371,25.17588,21.45256,24.9609Q21.581409999999998,24.74593,21.72066,24.53753Q21.8599,24.32913,22.00921,24.12782Q22.15851,23.92651,22.31751,23.73276Q22.47652,23.53902,22.64483,23.35331Q22.81315,23.1676,22.990380000000002,22.990380000000002Q23.1676,22.81315,23.35331,22.64483Q23.53902,22.47652,23.73276,22.31751Q23.92651,22.15851,24.12782,22.00921Q24.32913,21.8599,24.53753,21.72066Q24.74593,21.581409999999998,24.9609,21.45256Q25.17588,21.32371,25.39692,21.20556Q25.61796,21.08741,25.844540000000002,20.980248Q26.07111,20.873088,26.30267,20.777173Q26.53422,20.681259,26.77021,20.596822Q27.00619,20.512385,27.24604,20.43963Q27.48588,20.366874,27.72901,20.305974Q27.97213,20.245075,28.217950000000002,20.196178Q28.46377,20.147281,28.71169,20.110505Q28.95962,20.0737295,29.209049999999998,20.0491629Q29.45848,20.0245963,29.70881,20.0122981Q29.95915,20,30.2098,20L69.7902,20Q70.0409,20,70.2912,20.0122981Q70.5415,20.0245963,70.791,20.0491629Q71.0404,20.0737295,71.28829999999999,20.110505Q71.53620000000001,20.147281,71.782,20.196178Q72.0279,20.245075,72.271,20.305974Q72.5141,20.366874,72.75399999999999,20.43963Q72.9938,20.512385,73.2298,20.596822Q73.4658,20.681259,73.6973,20.777173Q73.9289,20.873088,74.1555,20.980248Q74.382,21.08741,74.6031,21.20556Q74.8241,21.32371,75.03909999999999,21.45256Q75.2541,21.581409999999998,75.4625,21.72066Q75.6709,21.8599,75.87219999999999,22.00921Q76.0735,22.15851,76.2672,22.31751Q76.461,22.47652,76.64670000000001,22.64483Q76.8324,22.81315,77.0096,22.990380000000002Q77.1868,23.1676,77.3552,23.35331Q77.5235,23.53902,77.6825,23.73276Q77.8415,23.92651,77.99080000000001,24.12782Q78.14009999999999,24.32913,78.2793,24.53753Q78.4186,24.74593,78.54740000000001,24.9609Q78.6763,25.17588,78.7944,25.39692Q78.9126,25.61796,79.0197,25.844540000000002Q79.1269,26.07111,79.2228,26.30267Q79.3187,26.53422,79.4032,26.77021Q79.4876,27.00619,79.5604,27.24604Q79.6331,27.48588,79.694,27.72901Q79.75489999999999,27.97213,79.8038,28.217950000000002Q79.8527,28.46377,79.8895,28.71169Q79.9263,28.95962,79.9508,29.209049999999998Q79.97540000000001,29.45848,79.98769999999999,29.70881Q80,29.95915,80,30.2098L80,69.7902Q80,70.0409,79.98769999999999,70.2912Q79.97540000000001,70.5415,79.9508,70.791Q79.9263,71.0404,79.8895,71.28829999999999Q79.8527,71.53620000000001,79.8038,71.782Q79.75489999999999,72.0279,79.694,72.271Q79.6331,72.5141,79.5604,72.75399999999999Q79.4876,72.9938,79.4032,73.2298Q79.3187,73.4658,79.2228,73.6973Q79.1269,73.9289,79.0197,74.1555Q78.9126,74.382,78.7944,74.6031Q78.6763,74.8241,78.54740000000001,75.03909999999999Q78.4186,75.2541,78.2793,75.4625Q78.14009999999999,75.6709,77.99080000000001,75.87219999999999Q77.8415,76.0735,77.6825,76.2672Q77.5235,76.461,77.3552,76.64670000000001Q77.1868,76.8324,77.0096,77.0096Q76.8324,77.1868,76.64670000000001,77.3552Q76.461,77.5235,76.2672,77.6825Q76.0735,77.8415,75.87219999999999,77.99080000000001Q75.6709,78.14009999999999,75.4625,78.2793Q75.2541,78.4186,75.03909999999999,78.54740000000001Q74.8241,78.6763,74.6031,78.7944Q74.382,78.9126,74.1555,79.0197Q73.9289,79.1269,73.6973,79.2228Q73.4658,79.3187,73.2298,79.4032Q72.9938,79.4876,72.75399999999999,79.5604Q72.5141,79.6331,72.271,79.694Q72.0279,79.75489999999999,71.782,79.8038Q71.53620000000001,79.8527,71.28829999999999,79.8895Q71.0404,79.9263,70.791,79.9508Q70.5415,79.97540000000001,70.2912,79.98769999999999Q70.0409,80,69.7902,80L30.2098,80Q29.95915,80,29.70881,79.98769999999999Q29.45848,79.97540000000001,29.209049999999998,79.9508Q28.95962,79.9263,28.71169,79.8895Q28.46377,79.8527,28.217950000000002,79.8038Q27.97213,79.75489999999999,27.72901,79.694Q27.48588,79.6331,27.24604,79.5604Q27.00619,79.4876,26.77021,79.4032Q26.53422,79.3187,26.30267,79.2228Q26.07111,79.1269,25.844540000000002,79.0197Q25.61796,78.9126,25.39692,78.7944Q25.17588,78.6763,24.9609,78.54740000000001Q24.74593,78.4186,24.53753,78.2793Q24.32913,78.14009999999999,24.12782,77.99080000000001Q23.92651,77.8415,23.73276,77.6825Q23.53902,77.5235,23.35331,77.3552Q23.1676,77.1868,22.990380000000002,77.0096Q22.81315,76.8324,22.64483,76.64670000000001Q22.47652,76.461,22.31751,76.2672Q22.15851,76.0735,22.00921,75.87219999999999Q21.8599,75.6709,21.72066,75.4625Q21.581409999999998,75.2541,21.45256,75.03909999999999Q21.32371,74.8241,21.20556,74.6031Q21.08741,74.382,20.980248,74.1555Q20.873088,73.9289,20.777173,73.6973Q20.681259,73.4658,20.596822,73.2298Q20.512385,72.9938,20.43963,72.75399999999999Q20.366874,72.5141,20.305974,72.271Q20.245075,72.0279,20.196178,71.782Q20.147281,71.53620000000001,20.110505,71.28829999999999Q20.0737295,71.0404,20.0491629,70.791Q20.0245963,70.5415,20.0122981,70.2912Q20,70.0409,20,69.7902ZM50,36Q50,36.3191,49.984300000000005,36.6379Q49.9687,36.9566,49.9374,37.2742Q49.906099999999995,37.5918,49.859300000000005,37.9075Q49.8125,38.2232,49.7502,38.5362Q49.6879,38.849199999999996,49.6104,39.158699999999996Q49.5329,39.4683,49.440200000000004,39.773700000000005Q49.3476,40.0791,49.2401,40.379599999999996Q49.1326,40.68,49.010400000000004,40.974900000000005Q48.8883,41.2697,48.7519,41.5582Q48.6154,41.8467,48.465,42.1282Q48.314499999999995,42.4096,48.1505,42.6833Q47.9864,42.9571,47.8091,43.2224Q47.6318,43.4878,47.4417,43.7441Q47.251599999999996,44.0004,47.049099999999996,44.2471Q46.8467,44.4938,46.632400000000004,44.7303Q46.418,44.9667,46.1924,45.1924Q45.9667,45.418,45.7303,45.632400000000004Q45.4938,45.8467,45.2471,46.049099999999996Q45.0004,46.251599999999996,44.7441,46.4417Q44.4878,46.6318,44.2224,46.8091Q43.9571,46.9864,43.6833,47.1505Q43.4096,47.314499999999995,43.1282,47.465Q42.8467,47.6154,42.5582,47.7519Q42.2697,47.8883,41.974900000000005,48.010400000000004Q41.68,48.1326,41.379599999999996,48.2401Q41.0791,48.3476,40.773700000000005,48.440200000000004Q40.4683,48.5329,40.158699999999996,48.6104Q39.849199999999996,48.6879,39.5362,48.7502Q39.2232,48.8125,38.9075,48.859300000000005Q38.5918,48.906099999999995,38.2742,48.9374Q37.9566,48.9687,37.6379,48.984300000000005Q37.3191,49,37,49Q36.6809,49,36.3621,48.984300000000005Q36.0434,48.9687,35.7258,48.9374Q35.4082,48.906099999999995,35.0925,48.859300000000005Q34.7768,48.8125,34.4638,48.7502Q34.150800000000004,48.6879,33.841300000000004,48.6104Q33.5317,48.5329,33.2263,48.440200000000004Q32.9209,48.3476,32.620400000000004,48.2401Q32.32,48.1326,32.0251,48.010400000000004Q31.7303,47.8883,31.4418,47.7519Q31.1533,47.6154,30.8718,47.465Q30.590400000000002,47.314499999999995,30.3167,47.1505Q30.0429,46.9864,29.77759,46.8091Q29.51224,46.6318,29.25591,46.4417Q28.99958,46.251599999999996,28.75289,46.049099999999996Q28.5062,45.8467,28.26973,45.632400000000004Q28.03327,45.418,27.80761,45.1924Q27.58195,44.9667,27.36764,44.7303Q27.15332,44.4938,26.95086,44.2471Q26.74841,44.0004,26.5583,43.7441Q26.36819,43.4878,26.19089,43.2224Q26.01359,42.9571,25.84953,42.6833Q25.68546,42.4096,25.53502,42.1282Q25.38458,41.8467,25.24814,41.5582Q25.11169,41.2697,24.98957,40.974900000000005Q24.867440000000002,40.68,24.75993,40.379599999999996Q24.65241,40.0791,24.55978,39.773700000000005Q24.46714,39.4683,24.38959,39.158699999999996Q24.31205,38.849199999999996,24.24979,38.5362Q24.18753,38.2232,24.14071,37.9075Q24.09388,37.5918,24.0626,37.2742Q24.03132,36.9566,24.01566,36.6379Q24,36.3191,24,36Q24,35.6809,24.01566,35.3621Q24.03132,35.0434,24.0626,34.7258Q24.09388,34.4082,24.1407,34.0925Q24.18753,33.7768,24.24979,33.4638Q24.31205,33.150800000000004,24.38959,32.841300000000004Q24.46714,32.5317,24.55978,32.2263Q24.65241,31.9209,24.75993,31.6204Q24.867440000000002,31.32,24.98957,31.025100000000002Q25.11169,30.7303,25.24814,30.4418Q25.38458,30.1533,25.53502,29.87184Q25.68546,29.59039,25.84953,29.31666Q26.01359,29.04294,26.19089,28.77759Q26.36819,28.51224,26.5583,28.25591Q26.74841,27.99958,26.95086,27.75289Q27.15332,27.50619,27.36763,27.26973Q27.58195,27.03327,27.80761,26.80761Q28.03327,26.58195,28.26973,26.36763Q28.5062,26.15332,28.75289,25.95086Q28.99958,25.74841,29.25591,25.5583Q29.51224,25.36819,29.77759,25.19089Q30.0429,25.01359,30.3167,24.84953Q30.590400000000002,24.68546,30.8718,24.53502Q31.1533,24.38459,31.4418,24.24814Q31.7303,24.11169,32.0251,23.98957Q32.32,23.867440000000002,32.620400000000004,23.75993Q32.9209,23.65241,33.2263,23.55978Q33.5317,23.46714,33.841300000000004,23.38959Q34.150800000000004,23.31205,34.4638,23.24979Q34.7768,23.18753,35.0925,23.14071Q35.4082,23.09388,35.7258,23.0626Q36.0434,23.03132,36.3621,23.01566Q36.6809,23,37,23Q37.3191,23,37.6379,23.01566Q37.9566,23.03132,38.2742,23.0626Q38.5918,23.09388,38.9075,23.14071Q39.2232,23.18753,39.5362,23.24979Q39.849199999999996,23.31205,40.158699999999996,23.38959Q40.4683,23.46714,40.773700000000005,23.55978Q41.0791,23.65241,41.379599999999996,23.75993Q41.68,23.867440000000002,41.974900000000005,23.98957Q42.2697,24.11169,42.5582,24.24814Q42.8467,24.38459,43.1282,24.53502Q43.4096,24.68546,43.6833,24.84953Q43.9571,25.01359,44.2224,25.19089Q44.4878,25.36819,44.7441,25.5583Q45.0004,25.74841,45.2471,25.95086Q45.4938,26.15332,45.7303,26.36764Q45.9667,26.58195,46.1924,26.80761Q46.418,27.03327,46.632400000000004,27.26973Q46.8467,27.50619,47.049099999999996,27.75289Q47.251599999999996,27.99958,47.4417,28.25591Q47.6318,28.51224,47.8091,28.77759Q47.9864,29.04294,48.1505,29.31666Q48.314499999999995,29.59039,48.465,29.87184Q48.6154,30.1533,48.7519,30.4418Q48.8883,30.7303,49.010400000000004,31.025100000000002Q49.1326,31.32,49.2401,31.6204Q49.3476,31.9209,49.440200000000004,32.2263Q49.5329,32.5317,49.6104,32.841300000000004Q49.6879,33.150800000000004,49.7502,33.4638Q49.8125,33.7768,49.859300000000005,34.0925Q49.906099999999995,34.4082,49.9374,34.7258Q49.9687,35.0434,49.984300000000005,35.3621Q50,35.6809,50,36ZM67.5,32Q67.6105,32,67.7208,31.9946Q67.83109999999999,31.9892,67.9411,31.9783Q68.051,31.9675,68.1603,31.9513Q68.2696,31.9351,68.3779,31.9135Q68.4862,31.892,68.5934,31.865099999999998Q68.70060000000001,31.8383,68.8063,31.8062Q68.912,31.7742,69.01599999999999,31.7369Q69.12,31.6997,69.2221,31.6575Q69.3241,31.6152,69.424,31.5679Q69.5238,31.520699999999998,69.62129999999999,31.468600000000002Q69.7187,31.416600000000003,69.8134,31.3598Q69.9082,31.303,70.0001,31.2416Q70.09190000000001,31.1802,70.1806,31.1144Q70.26939999999999,31.0486,70.3548,30.9785Q70.4402,30.9085,70.52199999999999,30.8343Q70.60390000000001,30.7601,70.682,30.682000000000002Q70.7601,30.6039,70.8343,30.522Q70.9085,30.4402,70.9785,30.354799999999997Q71.0486,30.269399999999997,71.1144,30.1806Q71.1802,30.091900000000003,71.2416,30.0001Q71.303,29.90821,71.3598,29.81346Q71.4166,29.71871,71.46860000000001,29.62128Q71.5207,29.52386,71.56790000000001,29.424Q71.6152,29.32413,71.6574,29.222070000000002Q71.6997,29.12001,71.73689999999999,29.016Q71.77420000000001,28.91199,71.80619999999999,28.80628Q71.8383,28.70057,71.8651,28.59341Q71.892,28.48625,71.9135,28.37791Q71.9351,28.26956,71.9513,28.16029Q71.9675,28.051009999999998,71.97829999999999,27.94108Q71.9892,27.83114,71.99459999999999,27.7208Q72,27.61047,72,27.5Q72,27.38953,71.99459999999999,27.2792Q71.9892,27.16886,71.97829999999999,27.05892Q71.9675,26.948990000000002,71.9513,26.83971Q71.9351,26.73044,71.9135,26.62209Q71.892,26.51375,71.8651,26.40659Q71.8383,26.29943,71.80619999999999,26.19372Q71.77420000000001,26.08801,71.73689999999999,25.984Q71.6997,25.87998,71.6575,25.77792Q71.6152,25.67586,71.56790000000001,25.576Q71.5207,25.47614,71.46860000000001,25.378709999999998Q71.4166,25.28129,71.3598,25.18654Q71.303,25.09178,71.2416,24.99993Q71.1802,24.908079999999998,71.1144,24.81935Q71.0486,24.730620000000002,70.9785,24.645229999999998Q70.9085,24.55984,70.8343,24.47798Q70.7601,24.39613,70.682,24.31802Q70.60390000000001,24.239910000000002,70.52199999999999,24.16572Q70.4402,24.09153,70.3548,24.02145Q70.26939999999999,23.95137,70.1806,23.88557Q70.09190000000001,23.81976,70,23.75839Q69.9082,23.69701,69.8134,23.64022Q69.7187,23.58343,69.62129999999999,23.53135Q69.5238,23.47928,69.424,23.43205Q69.3241,23.38482,69.2221,23.34254Q69.12,23.30027,69.01599999999999,23.26305Q68.912,23.225839999999998,68.8063,23.19377Q68.70060000000001,23.1617,68.5934,23.13486Q68.4862,23.10802,68.3779,23.08647Q68.2696,23.06491,68.1603,23.04871Q68.051,23.0325,67.9411,23.02167Q67.83109999999999,23.01084,67.7208,23.00542Q67.6105,23,67.5,23Q67.3895,23,67.2792,23.00542Q67.16890000000001,23.01084,67.0589,23.02167Q66.949,23.0325,66.8397,23.04871Q66.7304,23.06492,66.6221,23.08647Q66.5137,23.10802,66.4066,23.13486Q66.29939999999999,23.1617,66.1937,23.19377Q66.088,23.225839999999998,65.98400000000001,23.26305Q65.88,23.30027,65.7779,23.34254Q65.6759,23.38482,65.576,23.43205Q65.4761,23.47928,65.37870000000001,23.53135Q65.2813,23.58343,65.1865,23.64022Q65.0918,23.69701,64.9999,23.75839Q64.90809999999999,23.81976,64.8194,23.88557Q64.73060000000001,23.95137,64.6452,24.02145Q64.5598,24.09153,64.47800000000001,24.16572Q64.39609999999999,24.239910000000002,64.318,24.31802Q64.2399,24.39613,64.1657,24.47798Q64.0915,24.55984,64.0215,24.645229999999998Q63.9514,24.730620000000002,63.8856,24.81935Q63.8198,24.908079999999998,63.7584,24.99993Q63.697,25.09178,63.6402,25.18654Q63.5834,25.28129,63.5314,25.378709999999998Q63.4793,25.47614,63.4321,25.576Q63.3848,25.67586,63.3425,25.77792Q63.3003,25.87998,63.263,25.984Q63.2258,26.08801,63.1938,26.19372Q63.1617,26.29943,63.1349,26.40659Q63.108,26.51375,63.0865,26.62209Q63.0649,26.73044,63.0487,26.83971Q63.0325,26.948990000000002,63.0217,27.05892Q63.0108,27.16886,63.0054,27.2792Q63,27.38953,63,27.5Q63,27.61047,63.0054,27.7208Q63.0108,27.83114,63.0217,27.94108Q63.0325,28.051009999999998,63.0487,28.16029Q63.0649,28.26956,63.0865,28.37791Q63.108,28.48625,63.1349,28.59341Q63.1617,28.70057,63.1938,28.80628Q63.2258,28.91199,63.2631,29.016Q63.3003,29.12001,63.3425,29.222070000000002Q63.3848,29.32413,63.432,29.424Q63.4793,29.52386,63.5314,29.62128Q63.5834,29.71871,63.6402,29.81346Q63.697,29.90821,63.7584,30.0001Q63.8198,30.091900000000003,63.8856,30.1806Q63.9514,30.269399999999997,64.0215,30.354799999999997Q64.0915,30.4402,64.1657,30.522Q64.2399,30.6039,64.318,30.682000000000002Q64.39609999999999,30.7601,64.47800000000001,30.8343Q64.5598,30.9085,64.6452,30.9785Q64.73060000000001,31.0486,64.8194,31.1144Q64.90809999999999,31.1802,64.9999,31.2416Q65.0918,31.303,65.1865,31.3598Q65.2813,31.416600000000003,65.37870000000001,31.468600000000002Q65.4761,31.520699999999998,65.576,31.5679Q65.6759,31.6152,65.7779,31.6575Q65.88,31.6997,65.98400000000001,31.7369Q66.088,31.7742,66.1937,31.8062Q66.29939999999999,31.8383,66.4066,31.865099999999998Q66.5137,31.892,66.6221,31.9135Q66.7304,31.9351,66.8397,31.9513Q66.949,31.9675,67.0589,31.9783Q67.16890000000001,31.9892,67.2792,31.9946Q67.3895,32,67.5,32ZM76,51Q76,51.3191,75.98429999999999,51.6379Q75.9687,51.9566,75.9374,52.2742Q75.90610000000001,52.5918,75.85929999999999,52.9075Q75.8125,53.2232,75.7502,53.5362Q75.6879,53.8492,75.6104,54.1587Q75.5329,54.4683,75.4402,54.7737Q75.3476,55.0791,75.2401,55.3796Q75.1326,55.68,75.0104,55.9749Q74.8883,56.2697,74.7519,56.5582Q74.6154,56.8467,74.465,57.1282Q74.31450000000001,57.4096,74.1505,57.6833Q73.9864,57.9571,73.8091,58.2224Q73.6318,58.4878,73.4417,58.7441Q73.2516,59.0004,73.04910000000001,59.2471Q72.8467,59.4938,72.63239999999999,59.7303Q72.418,59.9667,72.19239999999999,60.1924Q71.9667,60.418,71.7303,60.6324Q71.4938,60.8467,71.2471,61.0491Q71.0004,61.2516,70.7441,61.4417Q70.4878,61.6318,70.2224,61.8091Q69.9571,61.9864,69.6833,62.1505Q69.4096,62.3145,69.12819999999999,62.465Q68.8467,62.6154,68.5582,62.7519Q68.2697,62.8883,67.97489999999999,63.0104Q67.68,63.1326,67.37960000000001,63.2401Q67.0791,63.3476,66.77369999999999,63.4402Q66.4683,63.5329,66.15870000000001,63.6104Q65.8492,63.6879,65.53620000000001,63.7502Q65.22319999999999,63.8125,64.9075,63.8593Q64.5918,63.9061,64.27420000000001,63.9374Q63.9566,63.9687,63.6379,63.9843Q63.3191,64,63,64Q62.6809,64,62.3621,63.9843Q62.0434,63.9687,61.7258,63.9374Q61.4082,63.9061,61.0925,63.8593Q60.7768,63.8125,60.4638,63.7502Q60.1508,63.6879,59.8413,63.6104Q59.5317,63.5329,59.2263,63.4402Q58.9209,63.3476,58.6204,63.2401Q58.32,63.1326,58.0251,63.0104Q57.7303,62.8883,57.4418,62.7519Q57.1533,62.6154,56.8718,62.465Q56.5904,62.3145,56.3167,62.1505Q56.0429,61.9864,55.7776,61.8091Q55.5122,61.6318,55.2559,61.4417Q54.9996,61.2516,54.7529,61.0491Q54.5062,60.8467,54.2697,60.6324Q54.0333,60.418,53.8076,60.1924Q53.582,59.9667,53.3676,59.7303Q53.1533,59.4938,52.9509,59.2471Q52.7484,59.0004,52.5583,58.7441Q52.3682,58.4878,52.1909,58.2224Q52.0136,57.9571,51.8495,57.6833Q51.685500000000005,57.4096,51.535,57.1282Q51.3846,56.8467,51.2481,56.5582Q51.1117,56.2697,50.989599999999996,55.9749Q50.8674,55.68,50.7599,55.3796Q50.6524,55.0791,50.559799999999996,54.7737Q50.4671,54.4683,50.3896,54.1587Q50.312,53.8492,50.2498,53.5362Q50.1875,53.2232,50.140699999999995,52.9075Q50.093900000000005,52.5918,50.0626,52.2742Q50.0313,51.9566,50.015699999999995,51.6379Q50,51.3191,50,51Q50,50.6809,50.015699999999995,50.3621Q50.0313,50.0434,50.0626,49.7258Q50.093900000000005,49.4082,50.140699999999995,49.0925Q50.1875,48.7768,50.2498,48.4638Q50.312,48.150800000000004,50.3896,47.841300000000004Q50.4671,47.5317,50.559799999999996,47.226299999999995Q50.6524,46.9209,50.7599,46.620400000000004Q50.8674,46.32,50.989599999999996,46.025099999999995Q51.1117,45.7303,51.2481,45.4418Q51.3846,45.1533,51.535,44.8718Q51.685500000000005,44.5904,51.8495,44.3167Q52.0136,44.0429,52.1909,43.7776Q52.3682,43.5122,52.5583,43.2559Q52.7484,42.9996,52.9509,42.7529Q53.1533,42.5062,53.3676,42.2697Q53.582,42.0333,53.8076,41.8076Q54.0333,41.581900000000005,54.2697,41.367599999999996Q54.5062,41.1533,54.7529,40.950900000000004Q54.9996,40.748400000000004,55.2559,40.5583Q55.5122,40.3682,55.7776,40.1909Q56.0429,40.0136,56.3167,39.8495Q56.5904,39.685500000000005,56.8718,39.535Q57.1533,39.3846,57.4418,39.2481Q57.7303,39.1117,58.0251,38.989599999999996Q58.32,38.8674,58.6204,38.7599Q58.9209,38.6524,59.2263,38.559799999999996Q59.5317,38.4671,59.8413,38.3896Q60.1508,38.312,60.4638,38.2498Q60.7768,38.1875,61.0925,38.140699999999995Q61.4082,38.093900000000005,61.7258,38.0626Q62.0434,38.0313,62.3621,38.015699999999995Q62.6809,38,63,38Q63.3191,38,63.6379,38.015699999999995Q63.9566,38.0313,64.27420000000001,38.0626Q64.5918,38.093900000000005,64.9075,38.140699999999995Q65.22319999999999,38.1875,65.53620000000001,38.2498Q65.8492,38.312,66.15870000000001,38.3896Q66.4683,38.4671,66.77369999999999,38.559799999999996Q67.0791,38.6524,67.37960000000001,38.7599Q67.68,38.8674,67.97489999999999,38.989599999999996Q68.2697,39.1117,68.5582,39.2481Q68.8467,39.3846,69.12819999999999,39.535Q69.4096,39.685500000000005,69.6833,39.8495Q69.9571,40.0136,70.2224,40.1909Q70.4878,40.3682,70.7441,40.5583Q71.0004,40.748400000000004,71.2471,40.950900000000004Q71.4938,41.1533,71.7303,41.367599999999996Q71.9667,41.581900000000005,72.19239999999999,41.8076Q72.418,42.0333,72.63239999999999,42.2697Q72.8467,42.5062,73.04910000000001,42.7529Q73.2516,42.9996,73.4417,43.2559Q73.6318,43.5122,73.8091,43.7776Q73.9864,44.0429,74.1505,44.3167Q74.31450000000001,44.5904,74.465,44.8718Q74.6154,45.1533,74.7519,45.4418Q74.8883,45.7303,75.0104,46.025099999999995Q75.1326,46.32,75.2401,46.620400000000004Q75.3476,46.9209,75.4402,47.226299999999995Q75.5329,47.5317,75.6104,47.841300000000004Q75.6879,48.150800000000004,75.7502,48.4638Q75.8125,48.7768,75.85929999999999,49.0925Q75.90610000000001,49.4082,75.9374,49.7258Q75.9687,50.0434,75.98429999999999,50.3621Q76,50.6809,76,51ZM37,77Q37.3191,77,37.6379,76.98429999999999Q37.9566,76.9687,38.2742,76.9374Q38.5918,76.90610000000001,38.9075,76.85929999999999Q39.2232,76.8125,39.5362,76.7502Q39.849199999999996,76.6879,40.158699999999996,76.6104Q40.4683,76.5329,40.773700000000005,76.4402Q41.0791,76.3476,41.379599999999996,76.2401Q41.68,76.1326,41.974900000000005,76.0104Q42.2697,75.8883,42.5582,75.7519Q42.8467,75.6154,43.1282,75.465Q43.4096,75.31450000000001,43.6833,75.1505Q43.9571,74.9864,44.2224,74.8091Q44.4878,74.6318,44.7441,74.4417Q45.0004,74.2516,45.2471,74.04910000000001Q45.4938,73.8467,45.7303,73.63239999999999Q45.9667,73.418,46.1924,73.19239999999999Q46.418,72.9667,46.632400000000004,72.7303Q46.8467,72.4938,47.049099999999996,72.2471Q47.251599999999996,72.0004,47.4417,71.7441Q47.6318,71.4878,47.8091,71.2224Q47.9864,70.9571,48.1505,70.6833Q48.314499999999995,70.4096,48.465,70.12819999999999Q48.6154,69.8467,48.7519,69.5582Q48.8883,69.2697,49.010400000000004,68.97489999999999Q49.1326,68.68,49.2401,68.37960000000001Q49.3476,68.0791,49.440200000000004,67.77369999999999Q49.5329,67.4683,49.6104,67.15870000000001Q49.6879,66.8492,49.7502,66.53620000000001Q49.8125,66.22319999999999,49.859300000000005,65.9075Q49.906099999999995,65.5918,49.9374,65.27420000000001Q49.9687,64.95660000000001,49.984300000000005,64.6379Q50,64.31909999999999,50,64Q50,63.6809,49.984300000000005,63.3621Q49.9687,63.0434,49.9374,62.7258Q49.906099999999995,62.4082,49.859300000000005,62.0925Q49.8125,61.7768,49.7502,61.4638Q49.6879,61.1508,49.6104,60.8413Q49.5329,60.5317,49.440200000000004,60.2263Q49.3476,59.9209,49.2401,59.6204Q49.1326,59.32,49.010400000000004,59.0251Q48.8883,58.7303,48.7519,58.4418Q48.6154,58.1533,48.465,57.8718Q48.314499999999995,57.5904,48.1505,57.3167Q47.9864,57.0429,47.8091,56.7776Q47.6318,56.5122,47.4417,56.2559Q47.251599999999996,55.9996,47.049099999999996,55.7529Q46.8467,55.5062,46.632400000000004,55.2697Q46.418,55.0333,46.1924,54.8076Q45.9667,54.582,45.7303,54.3676Q45.4938,54.1533,45.2471,53.9509Q45.0004,53.7484,44.7441,53.5583Q44.4878,53.3682,44.2224,53.1909Q43.9571,53.0136,43.6833,52.8495Q43.4096,52.6855,43.1282,52.535Q42.8467,52.3846,42.5582,52.2481Q42.2697,52.1117,41.974900000000005,51.989599999999996Q41.68,51.8674,41.379599999999996,51.7599Q41.0791,51.6524,40.773700000000005,51.559799999999996Q40.4683,51.4671,40.158699999999996,51.3896Q39.849199999999996,51.312,39.5362,51.2498Q39.2232,51.1875,38.9075,51.140699999999995Q38.5918,51.093900000000005,38.2742,51.0626Q37.9566,51.0313,37.6379,51.015699999999995Q37.3191,51,37,51Q36.6809,51,36.3621,51.015699999999995Q36.0434,51.0313,35.7258,51.0626Q35.4082,51.093900000000005,35.0925,51.140699999999995Q34.7768,51.1875,34.4638,51.2498Q34.150800000000004,51.312,33.841300000000004,51.3896Q33.5317,51.4671,33.2263,51.559799999999996Q32.9209,51.6524,32.620400000000004,51.7599Q32.32,51.8674,32.0251,51.989599999999996Q31.7303,52.1117,31.4418,52.2481Q31.1533,52.3846,30.8718,52.535Q30.590400000000002,52.6855,30.3167,52.8495Q30.0429,53.0136,29.77759,53.1909Q29.51224,53.3682,29.25591,53.5583Q28.99958,53.7484,28.75289,53.9509Q28.5062,54.1533,28.26973,54.3676Q28.03327,54.582,27.80761,54.8076Q27.58195,55.0333,27.36764,55.2697Q27.15332,55.5062,26.95086,55.7529Q26.74841,55.9996,26.5583,56.2559Q26.36819,56.5122,26.19089,56.7776Q26.01359,57.0429,25.84953,57.3167Q25.68546,57.5904,25.53502,57.8718Q25.38458,58.1533,25.24814,58.4418Q25.11169,58.7303,24.98957,59.0251Q24.867440000000002,59.32,24.75993,59.6204Q24.65241,59.9209,24.55978,60.2263Q24.46714,60.5317,24.38959,60.8413Q24.31205,61.1508,24.24979,61.4638Q24.18753,61.7768,24.14071,62.0925Q24.09388,62.4082,24.0626,62.7258Q24.03132,63.0434,24.01566,63.3621Q24,63.6809,24,64Q24,64.31909999999999,24.01566,64.6379Q24.03132,64.95660000000001,24.0626,65.27420000000001Q24.09388,65.5918,24.1407,65.9075Q24.18753,66.22319999999999,24.24979,66.53620000000001Q24.31205,66.8492,24.38959,67.15870000000001Q24.46714,67.4683,24.55978,67.77369999999999Q24.65241,68.0791,24.75993,68.37960000000001Q24.867440000000002,68.68,24.98957,68.97489999999999Q25.11169,69.2697,25.24814,69.5582Q25.38458,69.8467,25.53502,70.12819999999999Q25.68546,70.4096,25.84953,70.6833Q26.01359,70.9571,26.19089,71.2224Q26.36819,71.4878,26.5583,71.7441Q26.74841,72.0004,26.95086,72.2471Q27.15332,72.4938,27.36763,72.7303Q27.58195,72.9667,27.80761,73.19239999999999Q28.03327,73.418,28.26973,73.63239999999999Q28.5062,73.8467,28.75289,74.04910000000001Q28.99958,74.2516,29.25591,74.4417Q29.51224,74.6318,29.77759,74.8091Q30.0429,74.9864,30.3167,75.1505Q30.590400000000002,75.31450000000001,30.8718,75.465Q31.1533,75.6154,31.4418,75.7519Q31.7303,75.8883,32.0251,76.0104Q32.32,76.1326,32.620400000000004,76.2401Q32.9209,76.3476,33.2263,76.4402Q33.5317,76.5329,33.841300000000004,76.6104Q34.150800000000004,76.688,34.4638,76.7502Q34.7768,76.8125,35.0925,76.85929999999999Q35.4082,76.90610000000001,35.7258,76.9374Q36.0434,76.9687,36.3621,76.98429999999999Q36.6809,77,37,77Z" fill-rule="evenodd" fill="#58504A" fill-opacity="1"/></g></g></svg>