<svg xmlns="http://www.w3.org/2000/svg" xmlns:xlink="http://www.w3.org/1999/xlink" fill="none" version="1.1" width="100" height="100" viewBox="0 0 100 100"><g><g><rect x="1" y="1" width="98" height="98" rx="6.940941333770752" fill-opacity="0" stroke-opacity="1" stroke="#58504A" fill="none" stroke-width="2"/></g><g><path d="M41,69L100,69L100,67L41,67Q37.6862922,67,35.3431454,64.656853Q33,62.313709,33,59L33,40.0000019Q33,36.6862922,35.3431458,34.3431461Q37.6862922,31.99999952,41,32L100,32L100,30L41,30Q36.8578644,29.9999995,33.928932,32.9289324Q31,35.8578644,31,40.0000019L31,59Q30.9999996,63.142136,33.9289316,66.071068Q36.8578634,69,41,69Z" fill-rule="evenodd" fill="#58504A" fill-opacity="1"/></g><g><path d="M37,75.50000399999999L99,75.50000399999999L99,72.50000399999999L37,72.50000399999999Q33.4791861,72.50000399999999,30.9895926,70.01041000000001Q28.5,67.520817,28.5,64.00000399999999L28.5,35.499999Q28.5,32.186290299999996,30.8431456,29.8431454Q33.1862917,27.4999995,36.5,27.5L36.5,24.5Q31.9436507,24.4999996,28.7218254,27.7218248Q25.5,30.9436498,25.5,35.499999L25.5,64.00000399999999Q25.5000001,68.763462,28.8682719,72.131733Q32.2365422,75.50000399999999,37,75.50000399999999Z" fill-rule="evenodd" fill="#EB9961" fill-opacity="1"/></g></g></svg>