<svg xmlns="http://www.w3.org/2000/svg" xmlns:xlink="http://www.w3.org/1999/xlink" fill="none" version="1.1" width="100" height="100" viewBox="0 0 100 100"><g><g><rect x="1" y="1" width="98" height="98" rx="6.940941333770752" fill-opacity="0" stroke-opacity="1" stroke="#58504A" fill="none" stroke-width="2"/></g><g><path d="M41,69L100,69L100,67L41,67Q37.6862922,67,35.3431454,64.656853Q33,62.313709,33,59L33,40.0000019Q33,36.6862922,35.3431458,34.3431461Q37.6862922,31.99999952,41,32L100,32L100,30L41,30Q36.8578644,29.9999995,33.928932,32.9289324Q31,35.8578644,31,40.0000019L31,59Q30.9999996,63.142136,33.9289316,66.071068Q36.8578634,69,41,69Z" fill-rule="evenodd" fill="#58504A" fill-opacity="1"/></g><g><path d="M37,76.00000399999999L99,76.00000399999999L99,72.00000399999999L37,72.00000399999999Q33.6862926,72.00000399999999,31.343145800000002,69.656857Q29,67.313709,29,64.00000399999999L29,35.499999Q29,32.393397300000004,31.1966991,30.1966987Q33.3933983,27.9999998,36.5,28L36.5,24Q31.7365441,23.9999995,28.3682719,27.3682714Q25,30.7365432,25,35.499999L25,64.00000399999999Q25.0000002,68.97056599999999,28.5147185,72.485287Q32.0294356,76.00000399999999,37,76.00000399999999Z" fill-rule="evenodd" fill="#EB9961" fill-opacity="1"/></g></g></svg>