<svg xmlns="http://www.w3.org/2000/svg" xmlns:xlink="http://www.w3.org/1999/xlink" fill="none" version="1.1" width="24" height="24" viewBox="0 0 24 24">
	<clipPath id="master_svg0_3_789">
		<rect x="0" y="0" width="24" height="24" rx="0" />
	</clipPath>
	<g clip-path="url(#master_svg0_3_789)">
		<g>
			<path d="M7,8L7,6C7,3.23858,9.238579999999999,1,12,1C14.7614,1,17,3.23858,17,6L17,8L20,8C20.5523,8,21,8.44771,21,9L21,21C21,21.5523,20.5523,22,20,22L4,22C3.447715,22,3,21.5523,3,21L3,9C3,8.44771,3.447715,8,4,8L7,8ZM7,10L5,10L5,20L19,20L19,10L17,10L17,12L15,12L15,10L9,10L9,12L7,12L7,10ZM9,8L15,8L15,6C15,4.34315,13.6569,3,12,3C10.34315,3,9,4.34315,9,6L9,8Z" fill="#000000" fill-opacity="1" />
		</g>
	</g>
</svg>
