<svg xmlns="http://www.w3.org/2000/svg" xmlns:xlink="http://www.w3.org/1999/xlink" fill="none" version="1.1" width="20" height="18.994140625" viewBox="0 0 20 18.994140625"><g><g><path d="M3.78259,2.88777Q1.25,5.73693,1.25,9.75L2.75,9.75Q2.75,6.30723,4.903700000000001,3.88431Q7.02309,1.4999980000000002,10,1.4999989999999999Q12.9769,1.5,15.0963,3.88431Q17.25,6.30722,17.25,9.75L18.75,9.75Q18.75,5.73693,16.217399999999998,2.88777Q13.6505,0,10,-0.0000010000000000287557Q6.34949,-0.0000010000000000287557,3.78259,2.88777Z" fill-rule="evenodd" fill="#000000" fill-opacity="1"/></g><g><rect x="0.75" y="9.5" width="3.5" height="5.5" rx="1.75" fill-opacity="0" stroke-opacity="1" stroke="#000000" fill="none" stroke-width="1.5"/></g><g><rect x="15.75" y="9.5" width="3.5" height="5.5" rx="1.75" fill-opacity="0" stroke-opacity="1" stroke="#000000" fill="none" stroke-width="1.5"/></g><g><path d="M15.829180000000001,14.41459Q14.50869,17.05558,10.906974,17.50579L11.093026,18.99421Q15.49131,18.44442,17.17082,15.08541L15.829180000000001,14.41459Z" fill-rule="evenodd" fill="#000000" fill-opacity="1"/></g></g></svg>