<svg xmlns="http://www.w3.org/2000/svg" xmlns:xlink="http://www.w3.org/1999/xlink" fill="none" version="1.1" width="122" height="122" viewBox="0 0 122 122"><defs><clipPath id="master_svg0_234_22684"><rect x="17" y="18" width="87.41999816894531" height="85.41000366210938" rx="0"/></clipPath></defs><g><g></g><g clip-path="url(#master_svg0_234_22684)"><g><path d="M68.670406,70.11038556677246Q99.024918,65.48816856677246,101.015663,44.19307452477246L99.024353,44.00691860877246Q97.179047,63.74619656677246,68.369331,68.13317656677246Q59.212353,69.52755156677246,48.395528999999996,69.16758156677247Q43.621469000000005,69.00870556677246,40.280003,68.63306656677246L40.280003,55.809998566772464Q40.280003,55.711506566772464,40.260788000000005,55.61490756677246Q40.241571,55.51830856677246,40.20388,55.42731356677246Q40.166189,55.33631956677246,40.111469,55.25442656677246Q40.056751,55.17253456677246,39.987108,55.10289056677246Q39.917465,55.03324656677246,39.835571,54.97852856677246Q39.753676999999996,54.923808566772465,39.662682000000004,54.88611756677246Q39.571690000000004,54.84842756677246,39.47509,54.829214566772464Q39.378492,54.809998566772464,39.280003,54.809998566772464Q39.072573,54.809998566772464,38.882256999999996,54.89250056677246Q38.691942,54.97500556677246,38.550144,55.12639956677246L17.27014232,77.84639956677246Q17.20670491,77.91412956677246,17.15681398,77.99237656677246Q17.10692316,78.07062356677247,17.07228273,78.15671356677245Q17.0376423,78.24280356677247,17.01943541,78.33380356677246Q17.00122851,78.42479556677246,17.00007695,78.51758756677246Q16.9989254,78.61038056677246,17.0148685,78.70180356677247Q17.03081155,78.79321856677245,17.06330478,78.88014456677246Q17.09579802,78.96706956677247,17.14373165,79.04652956677246Q17.19166529,79.12598956677246,17.25340229,79.19527256677246L38.523407,103.06527856677246Q38.655737,103.21378556677246,38.834827000000004,103.30034856677247Q39.013915999999995,103.38690756677246,39.2125,103.39834356677247Q39.411083000000005,103.40978856677246,39.598927,103.34435856677246Q39.786774,103.27893256677245,39.93528,103.14659656677246Q40.01424,103.07623856677246,40.076736,102.99091956677246Q40.139230999999995,102.90560756677246,40.182495,102.80910256677245Q40.225761,102.71259856677247,40.247883,102.60917856677247Q40.270004,102.50575856677247,40.270004,102.39999956677246L40.270004,89.75695956677245Q43.858631,89.89188956677246,48.923538,89.69975056677245Q60.586445,89.25730656677246,70.464264,87.09052056677245Q102.516373,80.05962156677246,104.326675,57.94157556677246L102.333336,57.778427566772464Q100.643646,78.42287256677247,70.035736,85.13697256677247Q60.332291,87.26550456677246,48.847723,87.70118556677247Q43.107183,87.91895856677246,39.324771999999996,87.71150056677246Q39.297409,87.70999756677246,39.270004,87.70999756677246Q39.171513000000004,87.70999756677246,39.074912999999995,87.72920756677246Q38.978313,87.74842656677245,38.887318,87.78611556677245Q38.796324,87.82380456677245,38.714432,87.87852256677246Q38.63254,87.93324056677247,38.562897,88.00288956677247Q38.493252,88.07253056677246,38.438534000000004,88.15442456677246Q38.383815999999996,88.23631456677246,38.346123,88.32731056677247Q38.308434,88.41830256677247,38.289219,88.51490256677246Q38.270004,88.61150156677246,38.270004,88.70999756677246L38.270004,99.77462556677247L19.354388,78.54680856677246L38.280003,58.34051356677246L38.280003,69.51999856677246Q38.280003,69.61042256677246,38.296223,69.69937656677246Q38.312443,69.78833156677246,38.344357,69.87293656677247Q38.376270000000005,69.95754056677247,38.422842,70.03504556677245Q38.469414,70.11255256677246,38.529133,70.18044856677247Q38.588852,70.24834456677246,38.659779,70.30442656677246Q38.730709000000004,70.36050756677247,38.810547,70.40295556677246Q38.890384999999995,70.44540556677246,38.976543,70.47284356677247Q39.062702,70.50028056677246,39.152384,70.51181956677246L39.152542,70.51183656677246Q42.818584,70.98309156677246,48.32901,71.16647156677246Q59.33065,71.53259056677246,68.670406,70.11038556677246Z" fill-rule="evenodd" fill="#000000" fill-opacity="1" style="mix-blend-mode:passthrough"/></g><g><path d="M73.38607388912965,99.35114965779114Q61.50963888912964,102.86796465779113,49.71155688912964,99.13655065779113L49.10845288912964,101.04344865779113Q61.49036788912964,104.95951765779114,73.95393688912964,101.26884365779114Q90.83735188912964,96.27603065779114,99.24846988912964,80.81283165779114Q107.66097588912965,65.34708665779114,102.66896388912964,48.46641865779114Q97.67604388912964,31.582667657791138,82.21283288912963,23.17154955779114Q66.74707788912964,14.759046757791138,49.86640288912964,19.75105583779114Q35.42759688912964,24.021046857791138,26.90994308912964,36.39938065779114Q18.515129189129638,48.59919665779114,19.492204189129637,63.286383657791134L21.48779318912964,63.15362065779114Q20.55686840912964,49.16017465779114,28.557557589129637,37.53312265779114Q36.67381088912964,25.738127957791136,50.43356688912964,21.668951057791137Q66.51947388912964,16.91197325779114,81.25717488912963,24.92845555779114Q95.99297688912964,32.94390265779114,100.75106388912964,49.03358165779114Q105.50804488912964,65.11948665779113,97.49155788912964,79.85717365779114Q89.47611588912964,94.59295565779114,73.38607388912965,99.35114965779114Z" fill-rule="evenodd" fill="#000000" fill-opacity="1" style="mix-blend-mode:passthrough"/></g></g></g></svg>