<svg xmlns="http://www.w3.org/2000/svg" xmlns:xlink="http://www.w3.org/1999/xlink" fill="none" version="1.1" width="122" height="122" viewBox="0 0 122 122"><defs><clipPath id="master_svg0_234_22689"><rect x="1" y="18" width="119.04000091552734" height="85" rx="0"/></clipPath></defs><g><g></g><g clip-path="url(#master_svg0_234_22689)"><g><path d="M59.36000042504883,20Q73.24116142504883,20,84.17676142504882,28.4898968L85.40324042504882,26.9101028Q73.92638042504882,18,59.36000042504883,18Q41.75579042504883,18,29.30789742504883,30.447895000000003Q16.86000567504883,42.895787999999996,16.860004425048828,60.5Q16.860004425048828,78.104218,29.30789742504883,90.552109Q41.755786425048825,103,59.36000442504883,103Q76.04030942504883,103,88.25888442504883,91.664345Q100.40822242504883,80.39291399999999,101.72681042504882,63.929817L99.73319642504883,63.770138Q98.47681842504883,79.456604,86.89863242504883,90.198151Q75.25543642504883,101,59.36000442504883,101Q42.584215425048825,101,30.722109425048828,89.137894Q18.860004425048828,77.27578700000001,18.860004425048828,60.5Q18.860007025048827,43.724213,30.722109425048828,31.862108Q42.58421742504883,20,59.36000042504883,20Z" fill-rule="evenodd" fill="#000000" fill-opacity="1" style="mix-blend-mode:passthrough"/></g><g><path d="M116.24873394750976,42.6605720670166L116.23649194750976,42.6483001670166L117.43265194750977,42.0159339670166Q118.05877294750977,41.6849288670166,118.03796394750977,40.9820890670166Q118.01720794750977,40.2809963670166,117.37446194750976,39.9895605670166Q109.17871494750977,36.2450793670166,101.22022294750977,40.472558467016604L97.70402494750977,42.345830467016604Q96.37308094750976,43.042985867016604,94.92135594750977,42.643231367016604L75.38368094750976,37.193877967016604Q73.33380394750976,36.627463047016604,71.30353594750977,37.2459506670166L67.75493004750976,38.335520767016604Q67.71234704750977,38.3486633670166,67.70205114750976,38.398771767016605Q67.69196704750976,38.447849067016605,67.72781894750976,38.4781892670166L77.81870094750977,47.0589415670166Q79.33994294750977,48.3555725670166,79.12552294750977,50.3482365670166Q78.91049594750976,52.3465535670166,77.13895794750977,53.2832255670166L74.07314094750977,54.910993567016604Q72.94342394750977,55.5176925670166,71.67759694750977,55.30672256701661L62.805610647509766,53.8463955670166Q62.29763404750977,53.7617325670166,62.053742647509765,54.21642856701661Q61.80976366750976,54.6712895670166,62.163047047509764,55.0498145670166L68.08323044750976,61.4300135670166Q69.95949364750976,63.4531725670166,72.68147194750976,63.912704567016604Q75.40365394750977,64.3722705670166,77.84063294750976,63.076997567016605L116.24873394750976,42.6605720670166ZM119.39115494750976,42.9788598670166L119.57127394750977,43.1594276670166L78.77937894750977,64.8430005670166Q75.74156594750977,66.4576165670166,72.34853694750977,65.8847965670166Q68.95568084750977,65.3120045670166,66.61678214750977,62.7899875670166L60.696968857509766,56.4101865670166Q59.37006854750977,54.988510567016604,60.29127293750977,53.2710705670166Q61.21264728750977,51.5533145670166,63.13440704750977,51.873605567016604L72.00242594750976,53.3332765670166Q72.59871194750977,53.4326555670166,73.12688694750976,53.14900356701661L76.20106894750977,51.516771567016605Q77.03572694750977,51.0754565670166,77.13700294750977,50.134262567016606Q77.23836894750977,49.192226567016604,76.52132694750976,48.5810545670166L66.43221564750976,40.0018067670166Q65.49399994750976,39.2079388670166,65.74298144750976,37.9962241670166Q65.99151424750977,36.7866925570166,67.16509914750976,36.4244739370166L70.71649934750977,35.3340435070166Q73.30661194750977,34.5450029670166,75.91635294750976,35.2661173970166L95.45867894750977,40.716761567016604Q96.14368794750976,40.9053816670166,96.77601594750976,40.5741643670166L100.27982694750978,38.7074343670166Q109.11212194750976,34.015800467016604,118.20558594750977,38.1704315670166Q119.97941194750976,38.9747075670166,120.03708994750977,40.922903067016605Q120.07369594750978,42.1593255670166,119.39115494750976,42.9788598670166Z" fill-rule="evenodd" fill="#000000" fill-opacity="1" style="mix-blend-mode:passthrough"/></g><g><path d="M26.582769290039064,81.75916506811524Q42.198486290039064,76.93317226811523,55.58637629003906,69.27810786811523L54.593628290039064,67.54189189811524Q41.39721329003906,75.08747196811524,25.992233290039064,79.84833706811523Q9.212941690039063,85.03392806811523,5.114253490039062,81.75878006811523Q1.2132847900390624,78.64331206811524,4.529105690039063,73.28496266811524Q6.333822690039063,70.36854906811523,9.017081690039063,68.15080177811524L7.742928490039063,66.60920035811523Q4.806173090039063,69.03646506811523,2.8283972100390624,72.23254106811524Q-1.4207821099609377,79.09919406811524,3.8657474900390625,83.32122406811524Q8.791724190039062,87.25743506811523,26.582769290039064,81.75916506811524Z" fill-rule="evenodd" fill="#000000" fill-opacity="1" style="mix-blend-mode:passthrough"/></g></g></g></svg>