<svg xmlns="http://www.w3.org/2000/svg" xmlns:xlink="http://www.w3.org/1999/xlink" fill="none" version="1.1" width="122" height="122" viewBox="0 0 122 122"><defs><clipPath id="master_svg0_234_22676"><rect x="18" y="18" width="85" height="85" rx="0"/></clipPath></defs><g><g></g><g clip-path="url(#master_svg0_234_22676)"><g><path d="M18,62.169319L30.571826,55.441696L29.628177,53.67831L20.0303875,58.814423Q20.6003835,43.123833000000005,31.862105,31.862108Q43.724209,20.0000026,60.499996,20.0000051Q77.27578700000001,20,89.132889,31.857105L90.547104,30.442892999999998Q78.104214,18,60.499996,18.00000507Q42.895782,18.0000025,30.447893,30.447895000000003Q18,42.895790000000005,18,60.5L18,62.169319Z" fill-rule="evenodd" fill="#000000" fill-opacity="1" style="mix-blend-mode:passthrough"/></g><g><path d="M102.98999561853027,58.82068026376953L90.41818061853027,65.54830456376953L91.36182261853028,67.31168886376953L100.95960761853027,62.175576763769534Q100.38960861853027,77.86616486376953,89.12788561853027,89.12788986376952Q77.26577561853027,100.98999786376953,60.489986618530274,100.98999786376953Q43.714215618530275,100.98999786376953,31.857103768530273,89.13289286376953L30.442890408530275,90.54710786376953Q42.88578561853027,102.98999786376953,60.489986618530274,102.98999786376953Q78.09420561853028,102.98999786376953,90.54210061853027,90.54210486376954Q102.98999561853027,78.09421186376953,102.98999561853027,60.48999786376953L102.98999561853027,58.82068026376953Z" fill-rule="evenodd" fill="#000000" fill-opacity="1" style="mix-blend-mode:passthrough"/></g><g><path d="M59.61194616455078,88.38000071118165L59.569439164550786,88.38000071118165L59.34848216455078,88.26185571118164Q44.51120276455078,80.32853271118164,39.53355756455078,65.15291171118164Q36.628061564550784,56.294763711181645,37.51486641455078,47.34142571118164Q37.69971478455078,45.57205391118164,39.33265459455078,45.08217431118164Q50.82217816455078,41.51529261118164,59.01094016455078,35.22687712118164Q60.510002164550784,34.06721501118164,62.01187516455078,35.22904244118164Q70.19783016455078,41.51529311118164,81.69648716455077,45.08496091118164Q83.32321216455078,45.60007951118164,83.50459316455078,47.33608471118164Q84.39229616455077,56.28139071118164,81.48265816455078,65.14925771118163Q76.50217816455078,80.32856771118165,61.67168416455078,88.26176871118165Q60.63446616455078,88.81656671118165,59.61194616455078,88.38000071118165ZM60.07191516455078,86.38000071118165L60.09588416455078,86.38000071118165L60.320318164550784,86.50290271118163Q60.51760516455078,86.61094271118165,60.72832516455078,86.49822971118164Q74.85182216455078,78.94321871118164,79.58233616455078,64.52574371118163Q82.36039016455078,56.058900711181636,81.51541516455077,47.543913711181645Q81.47020316455078,47.11117171118164,81.10351916455079,46.99503571118164Q69.26332616455079,43.31934121118164,60.78813016455078,36.810954711181644Q60.510002164550784,36.59579939118164,60.22906916455078,36.81312001118164Q51.75667616455078,43.31934361118164,39.90734716455078,46.99782871118164Q39.55045366455078,47.10489571118164,39.505127664550784,47.53855671118164Q38.65989369455078,56.07218571118164,41.43394136455078,64.52958071118164Q46.12475726455078,78.83073771118164,60.07191516455078,86.38000071118165Z" fill-rule="evenodd" fill="#000000" fill-opacity="1" style="mix-blend-mode:passthrough"/></g><g><path d="M58.290229765942385,70.7744428474121L74.43733446594239,54.61687761741211L73.02266346594239,53.20312207741211L58.28977106594238,67.9455578474121L50.01710617594238,59.67289444741211L48.602892755942385,61.08710764741211L58.290229765942385,70.7744428474121Z" fill-rule="evenodd" fill="#000000" fill-opacity="1" style="mix-blend-mode:passthrough"/></g></g></g></svg>