<svg xmlns="http://www.w3.org/2000/svg" xmlns:xlink="http://www.w3.org/1999/xlink" fill="none" version="1.1" width="122" height="122" viewBox="0 0 122 122"><defs><clipPath id="master_svg0_234_22696"><rect x="17" y="18" width="84.41999816894531" height="85.01000213623047" rx="0"/></clipPath></defs><g><g></g><g clip-path="url(#master_svg0_234_22696)"><g transform="matrix(0.9820945262908936,-0.18838897347450256,0.18838897347450256,0.9820945262908936,-4.967707532865461,2.647387883531337)"><path d="M26.539078234374998,100.61742425Q15.631542234375,91.89100625,12.415921394375,78.38540625L10.470309074375,78.84864425Q13.845194834375,93.02315525,25.289655234374997,102.17913025Q36.911520234375004,111.47703525,51.823116234375,111.47703525Q69.43483723437501,111.47703525,81.883972234375,99.02789325Q94.333114234375,86.57874724999999,94.333114234375,68.96703325Q94.333114234375,51.35699425,81.880165234375,38.90611525Q69.429012234375,26.45703375,51.823116234375,26.45703632Q47.061340234375,26.45703125,42.454078234375004,27.491315048L42.892154234375,29.44274745Q47.283066234375,28.45703125,51.823116234375,28.45703635Q68.60068523437499,28.45703385,80.466072234375,40.32044825Q92.333114234375,52.18551625,92.333114234375,68.96703325Q92.333114234375,85.75031625,80.469757234375,97.61367825Q68.606399234375,109.47703525,51.823116234375,109.47703525Q37.613098234375,109.47703525,26.539078234374998,100.61742425Z" fill-rule="evenodd" fill="#000000" fill-opacity="1" style="mix-blend-mode:passthrough"/></g><g><path d="M72.407768,29.91308731Q72.540031,29.85402292,72.650097,29.75985777Q72.76016200000001,29.66569263,72.838982,29.54416722Q72.917809,29.42264184,72.95890800000001,29.28374571Q73.00000800000001,29.14484954,73.00000399999999,29Q73,28.9015086,72.980785,28.80490969Q72.961567,28.70831078,72.923874,28.6173166Q72.886185,28.52632242,72.831467,28.44442987Q72.776749,28.36253726,72.707108,28.29289329Q72.637463,28.22324938,72.55557300000001,28.16853052Q72.473679,28.11381161,72.382683,28.07612056Q72.291691,28.0384295,72.19509099999999,28.01921481Q72.098495,28.00000006,72.00000399999999,28Q71.786861,28,71.592247,28.08690983L71.59034299999999,28.08776116L44.193653,40.322433000000004Q43.009176,40.851389,43.009176,42.148609L43.009176,55.875256Q43.009176,56.977171,43.940639000000004,57.565886Q44.872101,58.1546,45.867407,57.681753L71.00000800000001,45.741768L71.00000800000001,65.07009500000001L44.025406000000004,77.885178L19,65.09027900000001L19.0000004,30.3610437L29.591063,33.6777058Q29.736991,33.7234039,29.889908,33.7234039Q29.9884,33.7234039,30.084997,33.7041888Q30.181597,33.6849742,30.272591,33.6472831Q30.363585,33.6095924,30.445477,33.5548735Q30.527369,33.5001545,30.597013,33.4305105Q30.666657,33.3608665,30.721376,33.2789736Q30.776094,33.1970806,30.813786,33.1060867Q30.851477,33.0150928,30.870691,32.9184937Q30.889907,32.8218951,30.889908,32.7234039Q30.889908,32.6440308,30.877386,32.565651700000004Q30.864865,32.4872723,30.840136,32.4118497Q30.815407999999998,32.3364272,30.77909,32.2658501Q30.742773,32.1952729,30.695776000000002,32.1313086Q30.648780000000002,32.0673444,30.592281,32.011595Q30.535783000000002,31.9558456,30.471197,31.9097068Q30.40661,31.8635683,30.335555,31.8281958Q30.264499999999998,31.7928233,30.188754,31.7691028L19.5976918,28.45244062Q18.63161802,28.14990842,17.81580909,28.74930793Q17,29.34870753,17,30.3610437L17,65.09027900000001Q17,66.313972,18.089544222,66.871033L43.114956,79.665932Q43.992943,80.114822,44.883635999999996,79.691677L71.858231,66.87659500000001Q73.00000800000001,66.33416,73.00000800000001,65.07009099999999L73.00000800000001,45.741768Q73.00000800000001,44.639857,72.068539,44.051139Q71.137077,43.462424,70.141769,43.93527L45.009176,55.875256L45.009178,42.148611L72.407768,29.9130882L72.407768,29.91308731Z" fill-rule="evenodd" fill="#000000" fill-opacity="1"/></g></g></g></svg>