<svg xmlns="http://www.w3.org/2000/svg" xmlns:xlink="http://www.w3.org/1999/xlink" fill="none" version="1.1" width="304" height="56" viewBox="0 0 304 56"><g><g><path d="M141.00097510375977,2.1929821968078613L104.09187510375978,2.1929821968078613L104.09187510375978,11.36304219680786L117.72037510375976,11.36304219680786L117.72037510375976,35.45488219680786L71.43670510375976,35.45488219680786L71.43670510375976,2.1929821968078613L61.773075103759766,2.1929821968078613L61.773075103759766,55.99998219680786L71.43670510375976,55.99998219680786L71.43670510375976,44.02988219680786L117.72037510375976,44.02988219680786L117.72037510375976,55.99998219680786L127.38407510375977,55.99998219680786L127.38407510375977,11.36304219680786L141.00097510375977,11.36304219680786L141.00097510375977,2.1929821968078613Z" fill="#FFFFFF" fill-opacity="1" style="mix-blend-mode:passthrough"/></g><g><path d="M208.9123709716797,35.443727164459226L174.9856709716797,35.443727164459226L163.12577097167969,4.165207164459229C162.70957097167968,3.0568671644592285,162.50157097167968,2.5085311644592285,162.0507709716797,2.1935291644592283C161.59987097167968,1.8785271644592285,161.0103709716797,1.8785271644592285,159.8428709716797,1.8785271644592285L156.7680709716797,1.8785271644592285C155.6005709716797,1.8785271644592285,155.0110709716797,1.8785271644592285,154.5602709716797,2.1935291644592283C154.10947097167968,2.5085311644592285,153.90137097167968,3.0568671644592285,153.48527097167968,4.165207164459229L133.8458709716797,55.98892716445923L142.93153097167968,55.98892716445923L147.46277097167967,44.01882716445923L169.1712709716797,44.01882716445923L173.70257097167968,55.98892716445923L182.78827097167968,55.98892716445923L178.2569709716797,44.01882716445923L208.9354709716797,44.01882716445923L208.9354709716797,55.98892716445923L218.59917097167968,55.98892716445923L218.59917097167968,2.3218641644592286L208.9354709716797,2.3218641644592286L208.9354709716797,35.43212716445923L208.9123709716797,35.443727164459226ZM150.69937097167968,35.443727164459226L158.30547097167968,15.330327164459229L165.91157097167968,35.443727164459226L150.68787097167967,35.443727164459226L150.69937097167968,35.443727164459226Z" fill="#FFFFFF" fill-opacity="1" style="mix-blend-mode:passthrough"/></g><g><path d="M303.9768181152344,35.443727164459226L285.8980181152344,35.443727164459226L274.0381181152344,4.165207164459229C273.62201811523437,3.0568671644592285,273.41391811523437,2.5085311644592285,272.96311811523435,2.1935291644592283C272.5123181152344,1.8785271644592285,271.93431811523436,1.8785271644592285,270.75521811523436,1.8785271644592285L267.6804181152344,1.8785271644592285C266.5130181152344,1.8785271644592285,265.92341811523437,1.8785271644592285,265.47261811523435,2.1935291644592283C265.0218181152344,2.5085311644592285,264.8137181152344,3.0568671644592285,264.39761811523437,4.165207164459229L246.56151811523438,51.228827164459226L237.62611811523436,38.873727164459225C240.93211811523437,31.67542716445923,247.57871811523438,14.711927164459228,252.00601811523438,2.4618651644592284L242.19211811523436,2.4618651644592284Q238.96701811523437,11.176917164459228,235.39511811523437,20.755327164459228C231.81174811523437,30.33372716445923,230.58645811523436,33.46042716445923,229.76575811523438,34.53372716445923C229.06062811523438,35.45542716445923,228.27460811523437,35.443727164459226,226.39041811523438,35.43212716445923Q226.08988811523437,35.43212716445923,224.03231811523438,35.43212716445923L224.03231811523438,44.00712716445923L230.74830811523438,44.00712716445923L239.31381811523437,55.97722716445923L244.7698181152344,55.97722716445923L253.85551811523436,55.97722716445923L258.3867181152344,44.00712716445923L280.0952181152344,44.00712716445923L284.6265181152344,55.97722716445923L293.70061811523436,55.97722716445923L289.1693181152344,44.00712716445923L304.00001811523435,44.00712716445923L304.00001811523435,35.43212716445923L303.9768181152344,35.443727164459226ZM261.61181811523437,35.443727164459226L269.21781811523437,15.330327164459229L276.8239181152344,35.443727164459226L261.61181811523437,35.443727164459226Z" fill="#FFFFFF" fill-opacity="1" style="mix-blend-mode:passthrough"/></g><g><path d="M42.5616,1.47001C38.5389,0.221668,34.3544,-0.175001,28.6325,0.0700005C23.4424,0.303335,20.5872,0.770005,17.9517,1.31834L17.9517,34.8836L0,34.8836L0,44.0186L17.9517,44.0186L17.9517,55.9887L27.6269,55.9887L27.6269,44.0186L33.0482,44.0186C46.8964,44.0186,54.6411,35.5252,55.2538,22.7151C55.7971,12.0167,51.7744,4.51502,42.5616,1.47001ZM46.1219,22.7152C45.5786,30.0535,41.868,34.8719,33.0482,34.8719L27.6269,34.8719L27.6269,9.29839C32.0194,8.85506,36.4004,8.94839,39.1516,9.90507C43.6366,11.4684,46.6536,15.2134,46.1219,22.7152Z" fill="#FFFFFF" fill-opacity="1" style="mix-blend-mode:passthrough"/></g></g></svg>