<svg xmlns="http://www.w3.org/2000/svg" xmlns:xlink="http://www.w3.org/1999/xlink" fill="none" version="1.1" width="300" height="300" viewBox="0 0 300 300"><defs><mask id="master_svg0_2052_02943" style="mask-type:alpha" maskUnits="userSpaceOnUse"><g><rect x="0" y="0" width="300" height="300" rx="0" fill="#FFFFFF" fill-opacity="1"/></g></mask></defs><g mask="url(#master_svg0_2052_02943)"><g><g><path d="M138.71800000000002,129.5043Q135.257,127.9024,133.555,127.65350000000001Q133.483,127.643,133.411,127.643Q133.312,127.643,133.215,127.6622Q133.119,127.6814,133.02800000000002,127.7191Q132.937,127.7568,132.85500000000002,127.8116Q132.773,127.8663,132.703,127.9359Q132.63400000000001,128.00560000000002,132.579,128.0874Q132.524,128.1693,132.487,128.2603Q132.449,128.3513,132.43,128.4479Q132.411,128.5445,132.411,128.643Q132.411,128.73239999999998,132.426,128.8203Q132.442,128.9082,132.473,128.9919Q132.505,129.07569999999998,132.55,129.1525Q132.596,129.2294,132.654,129.297Q132.712,129.3646,132.78199999999998,129.4207Q132.851,129.4769,132.93,129.5198Q133.00799999999998,129.5628,133.09300000000002,129.59120000000001Q133.17700000000002,129.6196,133.26600000000002,129.6325Q134.68099999999998,129.8393,137.878,131.3193Q138.608,131.6575,138.902,131.7832Q140.464,132.4511,148.183,137.2643Q153.164,140.3708,187.618,172.0018Q187.7,172.0778,187.798,172.1335L202.002,184.47910000000002Q202.605,185.43540000000002,202.458,185.8419Q202.322,186.2178,201.263,186.4389L94.1151,208.096Q89.2869,209.101,84.791,207.155L22.0729,179.3819Q21.904899999999998,179.30759999999998,21.7215,179.29770000000002Q21.538,179.28789999999998,21.3631,179.34390000000002Q20.98693,179.46429999999998,20.75685,179.3875Q20.53821,179.3145,20.33524,179.0144Q19.69954,178.0744,19.522080000000003,175.57760000000002Q19.127760000000002,170.02960000000002,12.07495,107.4526Q11.714128,101.98591,13.00276,100.54526Q14.10277,99.31549,15.275559999999999,99.79817Q15.439779999999999,99.86576,15.61722,99.87267Q15.71564,99.87651,15.812909999999999,99.86107Q15.91018,99.84563,16.002580000000002,99.81151Q16.09497,99.77739,16.17893,99.7259Q16.26289,99.67441,16.33519,99.60753Q16.4075,99.54065,16.46536,99.46095Q16.523229999999998,99.38125,16.56443,99.29179Q16.60564,99.20233,16.6286,99.10656Q16.65156,99.01078,16.6554,98.91236Q16.69518,97.89126,17.27037,97.31771Q18.58082,96.02343,18.90927,95.00242Q18.93166,94.93281,18.93701,94.91891Q19.17792,94.30349,19.26265,93.32727Q19.27697,93.16222,19.288429999999998,93.05777L139.82,119.7798Q151.894,122.7384,155.362,124.0052L163.539,128.4129Q163.549,128.4183,163.559,128.4235L286.455,191.0684Q286.581,191.1327,286.72,191.15949999999998Q287.539,191.3169,287.712,191.6676Q287.91,192.07,287.549,193.001Q286.747,195.067,284.858,198.506L156.232,132.1958Q156.017,132.0846,155.774,132.0846Q155.676,132.0846,155.579,132.1038Q155.482,132.123,155.391,132.1607Q155.3,132.1984,155.218,132.25310000000002Q155.137,132.3078,155.067,132.3775Q154.997,132.4471,154.943,132.529Q154.888,132.61090000000002,154.85,132.7019Q154.812,132.7929,154.793,132.8895Q154.774,132.9861,154.774,133.0846Q154.774,133.2223,154.811,133.3549Q154.848,133.4875,154.92,133.6051Q154.992,133.7227,155.093,133.8165Q155.193,133.9103,155.316,133.9734L283.769,200.195Q282.576,200.50400000000002,280.285,199.647Q280.263,199.639,280.24,199.632L188.808,170.3798Q154.368,138.7645,149.241,135.5672Q141.392,130.6727,139.689,129.9444Q139.422,129.83010000000002,138.71800000000002,129.5043ZM192.664,173.7133L203.421,183.0632Q203.526,183.1542,203.602,183.2702Q204.835,185.15269999999998,204.338,186.5231Q203.822,187.9477,201.659,188.3992L94.523,210.054Q89.0741,211.189,83.9812,208.98399999999998L21.582,181.3519Q20.80493,181.5121,20.12332,181.28449999999998Q19.26143,180.9966,18.67856,180.13479999999998Q17.74258,178.7509,17.52711,175.7194Q17.135640000000002,170.2116,10.084952,107.6537Q10.082387,107.631,10.080867,107.60810000000001Q9.660029999999999,101.28242,11.512089,99.21188Q13.05125,97.49115,14.83888,97.64598Q15.12798,96.6296,15.86496,95.89474Q16.826909999999998,94.94466,17.00536,94.38994Q17.04517,94.26621,17.07462,94.18987Q17.21036,93.84312,17.270139999999998,93.15434Q17.34131,92.334349,17.55136,91.9401828Q17.97261,91.149731,19.002119999999998,91.00919Q19.179270000000002,90.98501,19.353830000000002,91.023705L140.264,117.8296Q140.274,117.832,140.285,117.8346Q152.593,120.8505,156.12,122.15299999999999Q156.187,122.1774,156.249,122.2108L164.477,126.6468L164.488,126.6524L287.243,189.2253Q288.918,189.5915,289.506,190.7827Q290.093,191.9734,289.413,193.725Q288.345,196.478,285.518,201.417Q285.375,201.667,285.121,201.80200000000002Q283.157,202.85,279.608,201.529L192.664,173.7133Z" fill-rule="evenodd" fill="#000000" fill-opacity="1"/></g><g><path d="M18.250292052215578,93.58764435813904L134.75927305221558,122.52146435813904Q146.35627305221558,124.32786435813904,157.90227305221558,133.26136435813905Q157.90527305221556,133.26356435813904,157.90827305221558,133.26576435813905Q157.99827305221558,133.33586435813905,158.07027305221558,133.42456435813904Q158.14327305221556,133.51336435813903,158.19327305221557,133.61616435813903Q158.2442730522156,133.71896435813903,158.27027305221557,133.83056435813904Q158.29627305221558,133.94206435813902,158.29627305221558,134.05666435813905Q158.29627305221558,134.15516435813905,158.27627305221557,134.25176435813904Q158.25727305221557,134.34836435813904,158.21927305221558,134.43926435813904Q158.18227305221558,134.53026435813905,158.12727305221557,134.61216435813904Q158.07227305221556,134.69406435813903,158.00327305221558,134.76376435813904Q157.93327305221558,134.83336435813902,157.8512730522156,134.88806435813905Q157.76927305221557,134.94286435813905,157.6782730522156,134.98046435813905Q157.58727305221558,135.01816435813905,157.49127305221558,135.03746435813903Q157.39427305221557,135.05666435813905,157.29627305221558,135.05666435813905Q157.12927305221558,135.05666435813905,156.97227305221557,135.00286435813905Q156.8152730522156,134.94916435813903,156.68327305221558,134.84746435813904Q156.68127305221557,134.84526435813905,156.6782730522156,134.84306435813903Q145.5182730522156,126.20826435813903,134.40827305221558,124.49106435813904Q134.3642730522156,124.48416435813904,134.32027305221558,124.47326435813903L17.768254052215575,95.52868435813903Q17.687553052215577,95.50864335813904,17.611270052215577,95.47554835813904Q17.534988052215578,95.44245335813903,17.465219052215577,95.39721435813904Q17.395450052215576,95.35197535813904,17.334112052215577,95.29583435813903Q17.272773052215577,95.23969335813904,17.221549052215575,95.17419235813904Q17.170325052215578,95.10869135813904,17.130622052215575,95.03562935813903Q17.090920052215576,94.96256835813904,17.063830052215575,94.88395235813904Q17.036740052215578,94.80533635813904,17.023007052215576,94.72332635813903Q17.009273052215576,94.64131645813904,17.009273052215576,94.55816435813904Q17.009273052215576,94.45967295813904,17.028488052215575,94.36307435813904Q17.047703052215574,94.26647535813903,17.085394052215577,94.17548135813904Q17.123085052215576,94.08448635813903,17.177803052215577,94.00259435813904Q17.232522052215575,93.92070135813904,17.302166052215576,93.85105735813904Q17.371810052215576,93.78141335813903,17.453703052215577,93.72669435813904Q17.535595052215577,93.67197635813903,17.626590052215576,93.63428535813904Q17.717584052215575,93.59659435813904,17.814183052215576,93.57737935813904Q17.910781652215576,93.55816435813904,18.009273052215576,93.55816435813904Q18.131586052215575,93.55816435813904,18.250292052215578,93.58764435813904Z" fill-rule="evenodd" fill="#000000" fill-opacity="1"/></g><g><path d="M15.905160510314941,97.90455925778198L135.06982151031494,128.06209625778197Q135.20382151031492,128.09579625778198,135.32282151031495,128.16409625778198Q135.49482151031492,128.262996257782,135.61682151031494,128.420496257782Q135.73782151031494,128.577896257782,135.78982151031494,128.769896257782Q135.84182151031496,128.96189625778197,135.81682151031492,129.15909625778198Q135.79182151031495,129.35639625778197,135.69282151031496,129.52899625778198L89.43782151031495,210.19999625778198Q89.37212151031494,210.31399625778198,89.27902151031495,210.40799625778197Q89.18582151031494,210.50199625778197,89.07162151031494,210.567996257782Q88.95732151031494,210.63399625778197,88.82982151031494,210.66799625778197Q88.70232151031495,210.70199625778199,88.57032151031494,210.70199625778199Q88.47182151031494,210.70199625778199,88.37522151031494,210.68299625778198Q88.27862151031493,210.663996257782,88.18762151031494,210.625996257782Q88.09662151031495,210.588996257782,88.01472151031494,210.53399625778198Q87.93282151031494,210.478996257782,87.86322151031494,210.40999625778198Q87.79352151031495,210.339996257782,87.73882151031493,210.257996257782Q87.68412151031494,210.175996257782,87.64642151031494,210.084996257782Q87.60872151031494,209.993996257782,87.58952151031494,209.89799625778198Q87.57032151031494,209.800996257782,87.57032151031494,209.70199625778199Q87.57032151031494,209.435996257782,87.70282151031495,209.204996257782L133.30182151031494,129.67759625778197L15.414482510314942,99.84343325778198Q15.334143510314941,99.82310225778198,15.258247510314941,99.78982225778198Q15.182350510314942,99.75654325778198,15.112968510314941,99.71122425778198Q15.04358551031494,99.66590625778198,14.98260951031494,99.60978425778198Q14.921633510314942,99.55366225778198,14.870727510314941,99.48826825778198Q14.819821510314942,99.42287525778198,14.78037451031494,99.34999325778199Q14.740927510314942,99.27711225778198,14.714016510314941,99.19873125778199Q14.687105510314941,99.12035125778198,14.673463510314942,99.03860925778199Q14.659821510314941,98.95686815778198,14.659821510314941,98.87399625778198Q14.659821510314941,98.77550485778198,14.67903651031494,98.67890625778199Q14.698251510314941,98.58230725778198,14.735942510314942,98.49131325778198Q14.77363351031494,98.40031825778198,14.828351510314942,98.31842625778198Q14.88307051031494,98.23653325778199,14.95271451031494,98.16688925778199Q15.022358510314941,98.09724525778198,15.104251510314942,98.04252625778199Q15.186143510314942,97.98780825778198,15.277138510314941,97.95011725778198Q15.368132510314942,97.91242625778199,15.464731510314941,97.89321125778199Q15.561330110314941,97.87399625778198,15.659821510314941,97.87399625778198Q15.784394510314941,97.87399625778198,15.905160510314941,97.90455925778198Z" fill-rule="evenodd" fill="#000000" fill-opacity="1"/></g><g><path d="M178.60599768945312,141.70061474365235Q193.0463816894531,149.21612474365236,193.87368168945312,149.78622474365235Q194.67548168945314,150.33882474365234,195.54228168945312,150.22132474365233Q196.40718168945313,150.10422474365234,197.07218168945312,149.35162474365234Q197.6105816894531,148.74242474365235,197.42408168945312,148.01493474365233Q197.26508168945313,147.39456474365235,196.54498168945312,146.76164474365234Q196.49688168945312,146.71939474365234,196.43968168945312,146.69060474365233Q181.51892168945312,139.17942274365234,180.95546168945313,138.73906574365233Q180.30099168945313,138.22757474365235,179.55483168945312,138.14860374365233Q178.53384868945312,138.04054774365235,177.9506286894531,138.83781874365235Q177.1130916894531,139.98274474365235,178.45401468945312,141.57872474365234Q178.5179006894531,141.65476474365235,178.60599768945312,141.70061474365235ZM196.32288168945314,148.68942474365235Q195.46048168945313,149.66532474365235,194.4410816894531,148.96282474365233Q193.56558168945313,148.35950474365234,179.15783168945313,140.86049474365234Q178.39755168945314,139.92059474365234,178.75772968945313,139.42823074365234Q179.00107068945312,139.09558074365233,179.4495816894531,139.14304974365234Q179.9109016894531,139.19187374365234,180.33968168945313,139.52698174365236Q180.97974168945314,140.02721474365234,195.93128168945313,147.55423474365233Q196.37708168945312,147.95750474365235,196.45538168945313,148.26318474365235Q196.51028168945314,148.47735474365234,196.32288168945314,148.68942474365235Z" fill-rule="evenodd" fill="#000000" fill-opacity="1"/></g><g><path d="M260.8678072265625,184.3172006225586Q260.0559072265625,183.7729506225586,246.8203612265625,176.9866306225586Q246.7322482265625,176.9414506225586,246.6680052265625,176.8661006225586Q245.4072262265625,175.3873306225586,246.2037342265625,174.3193946225586Q246.7543262265625,173.5811746225586,247.7180672265625,173.6802806225586Q248.4285472265625,173.7533416225586,249.0252572265625,174.2265695225586Q249.5222872265625,174.6207536225586,263.2664072265625,181.4329306225586Q263.3236072265625,181.4612706225586,263.3718072265625,181.5030506225586Q264.0453072265625,182.0866706225586,264.1954072265625,182.6651306225586Q264.3710072265625,183.34221062255858,263.87580722656253,183.9092606225586Q263.3463072265625,184.6040006225586,262.4612072265625,184.7245006225586Q261.5754072265625,184.8452006225586,260.8678072265625,184.3172006225586ZM261.4595072265625,183.51100062255858Q261.4503072265625,183.5040606225586,261.4408072265625,183.49756062255858Q260.6393072265625,182.94876062255858,247.3669842265625,176.1431206225586Q246.6995632265625,175.3272206225586,247.0053322265625,174.9172566225586Q247.2166072265625,174.63398562255858,247.6157772265625,174.6750346225586Q248.0358772265625,174.71823562255858,248.40387722656249,175.0100816225586Q248.9823872265625,175.4688806225586,262.7635072265625,182.2997306225586Q263.1593072265625,182.65381062255858,263.2274072265625,182.91618062255858Q263.2712072265625,183.08514062255858,263.1154072265625,183.25966062255858Q263.1010072265625,183.2757606225586,263.0881072265625,183.2930406225586Q262.8073072265625,183.6681606225586,262.3262072265625,183.73369062255858Q261.8420072265625,183.7996606225586,261.4595072265625,183.51100062255858Z" fill-rule="evenodd" fill="#000000" fill-opacity="1"/></g></g></g></svg>