<svg xmlns="http://www.w3.org/2000/svg" xmlns:xlink="http://www.w3.org/1999/xlink" fill="none" version="1.1" width="300" height="300" viewBox="0 0 300 300"><defs><mask id="master_svg0_2052_2703" style="mask-type:alpha" maskUnits="userSpaceOnUse"><g><rect x="0" y="0" width="300" height="300" rx="0" fill="#FFFFFF" fill-opacity="1"/></g></mask></defs><g mask="url(#master_svg0_2052_2703)"><g><g><path d="M115.112849375,62.07085000683594Q113.161419375,66.14479200683594,112.880060375,66.76855200683593Q112.861554375,66.80958200683594,112.813020375,66.91392200683593Q112.320770375,67.97220200683594,112.206649375,68.63554200683593Q111.953760375,70.10549200683593,113.052839375,70.59685200683595Q113.730429375,70.92450200683594,114.454589375,70.71204200683594Q115.184949375,70.49776200683594,115.573999375,69.84842200683593Q115.592579375,69.81742200683594,115.606499375,69.78407200683594Q116.919999375,66.63779200683594,117.466329375,65.62722200683594Q118.051839375,64.54418200683594,118.257349375,63.570832006835936Q118.578829375,62.048183006835934,117.727789375,61.46507800683594Q116.527589375,60.64274200683594,115.213889375,61.92967700683594Q115.150929375,61.99135800683594,115.112849375,62.07085000683594ZM113.719729375,67.33567200683594Q113.770719375,67.22606200683593,113.791619375,67.17972200683593Q114.065429375,66.57270200683594,115.975219375,62.58531300683594Q116.662569375,61.94743700683594,117.162569375,62.290018006835936Q117.462359375,62.49542400683594,117.278919375,63.36425200683594Q117.103319375,64.19596200683594,116.586649375,65.15165200683593Q116.019759375,66.20024200683594,114.698989375,69.36219200683594Q114.512219375,69.65298200683594,114.173069375,69.75248200683593Q113.816479375,69.85710200683593,113.483316375,69.69422200683594Q113.474504375,69.68991200683594,113.465529375,69.68595200683593Q113.070603375,69.51172200683594,113.192171375,68.80509200683593Q113.283694375,68.27310200683594,113.719729375,67.33567200683594Z" fill-rule="evenodd" fill="#000000" fill-opacity="1"/></g><g><path d="M110.51991625,72.05863933959961Q108.55794425,76.1344293395996,108.28056625,76.76016933959961Q108.26060325,76.80519933959961,108.20648725,76.92262933959961Q107.71792325,77.9827893395996,107.60800225,78.64047933959961Q107.36467425,80.09637933959961,108.46016525,80.58108933959961Q109.13590625,80.90853933959961,109.85906625,80.69820933959961Q110.58913625,80.48585933959961,110.97983625,79.8384393395996Q110.99875625,79.80708933959961,111.01290625,79.77331933959961Q112.33164625,76.62590933959962,112.87382625,75.61428933959961Q113.45414625,74.53151933959961,113.65820625,73.55422933959962Q113.97686625,72.02803133959961,113.12913625,71.4486413395996Q111.93388625,70.6317393395996,110.62053625,71.91833333959961Q110.55792625,71.97966733959962,110.51991625,72.05863933959961ZM109.11468625,77.34116933959962Q109.17184625,77.21713933959961,109.19476625,77.16541933959961Q109.46304625,76.56022933959962,111.38153625,72.57426333959961Q112.06923625,71.93549033959961,112.56487625,72.2742393395996Q112.86155625,72.4770083395996,112.67931625,73.34983933959961Q112.50470625,74.18609933959961,111.99243625,75.1418993395996Q111.43104625,76.18936933959961,110.10612625,79.34979933959961Q109.91862625,79.6394393395996,109.57977625,79.73799933959961Q109.22325625,79.84168933959961,108.89064425,79.67844933959961Q108.88046525,79.67345933959962,108.87006925,79.66892933959961Q108.47850025,79.4983193395996,108.59432225,78.80532933959961Q108.68216925,78.2797093395996,109.11468625,77.34116933959962Z" fill-rule="evenodd" fill="#000000" fill-opacity="1"/></g><g transform="matrix(0.5041676163673401,-0.8636058568954468,0.868411660194397,0.49584388732910156,10.453322012017452,148.80510613828665)"><ellipse cx="138.09055066108704" cy="67.47939610481262" rx="3.588597536087036" ry="2.720820665359497" fill-opacity="0" stroke-opacity="1" stroke="#000000" fill="none" stroke-width="1" stroke-linecap="ROUND" stroke-linejoin="round"/></g><g transform="matrix(0.5041676163673401,-0.8636058568954468,0.8684116005897522,0.4958440661430359,-0.28405598324252423,150.18094984603204)"><ellipse cx="133.87180066108704" cy="77.43023228645325" rx="3.588597536087036" ry="2.716021776199341" fill-opacity="0" stroke-opacity="1" stroke="#000000" fill="none" stroke-width="1" stroke-linecap="ROUND" stroke-linejoin="round"/></g><g><path d="M168.58698543167114,233.1653717956543L168.69998543167114,233.4793717956543L168.70098543167114,233.4813717956543Q169.58198543167114,235.91337179565429,171.93698543167113,237.0273717956543Q219.38498543167114,259.4723717956543,221.57298543167116,259.3303717956543Q223.17498543167113,259.2243717956543,224.23698543167114,257.2153717956543Q225.10898543167113,255.5663717956543,225.69498543167114,252.4553717956543Q225.70198543167115,252.41937179565429,225.70598543167114,252.38337179565428L243.09398543167114,99.6441717956543Q259.1399854316711,68.6409717956543,263.06198543167113,61.387371795654296Q265.4349854316712,56.9993817956543,264.3439854316712,53.9615817956543Q263.23498543167113,50.8730317956543,258.7169854316711,49.486491795654295Q258.58498543167116,49.4460017956543,258.4469854316711,49.4427617956543Q153.11398543167115,46.9678517956543,139.58538543167114,47.1012747956543Q125.37688543167114,47.241410795654296,121.24338543167114,60.0098717956543L41.016577431671145,248.7263717956543Q39.767615431671146,251.8153717956543,40.43345543167114,253.9143717956543Q41.14327903167114,256.1523717956543,43.84991543167114,257.0713717956543Q44.094145431671144,257.1543717956543,44.34803543167114,257.1093717956543L160.04498543167114,236.35937179565428Q165.84198543167116,235.4283717956543,168.58698543167114,233.1653717956543ZM170.58098543167114,232.80037179565429L170.58098543167114,232.7993717956543L169.92698543167114,230.9873717956543Q169.89298543167115,230.8943717956543,169.84198543167113,230.8103717956543Q169.79098543167115,230.7263717956543,169.72498543167114,230.6533717956543Q169.65898543167114,230.5803717956543,169.57898543167113,230.5223717956543Q169.49998543167115,230.4633717956543,169.41098543167115,230.4213717956543Q169.32198543167115,230.3793717956543,169.22598543167115,230.3563717956543Q169.13098543167115,230.3323717956543,169.03198543167116,230.3283717956543Q168.93398543167115,230.3233717956543,168.83598543167113,230.3383717956543Q168.73898543167115,230.35337179565428,168.64598543167114,230.3863717956543Q168.36798543167114,230.4873717956543,168.18898543167114,230.7233717956543Q166.20298543167115,233.3443717956543,159.72798543167113,234.3843717956543L44.25918543167114,255.0933717956543Q42.71620543167114,254.49637179565428,42.33985543167114,253.3093717956543Q41.89177943167114,251.8973717956543,42.870765431671146,249.4753717956543L123.10148543167114,60.750971795654294Q123.11928543167114,60.709271795654296,123.13318543167114,60.6660717956543Q126.81458543167115,49.2273417956543,139.60518543167115,49.1011817956543Q153.09098543167113,48.9681727956543,258.2599854316711,51.438921795654295Q261.70498543167116,52.5306017956543,262.4619854316711,54.6372917956543Q263.2499854316711,56.8340117956543,261.30198543167114,60.4359717956543Q257.36198543167114,67.7253717956543,241.23298543167115,98.8883717956543Q241.14898543167115,99.0519717956543,241.12798543167114,99.2349717956543L223.72298543167113,252.1203717956543Q223.19498543167114,254.90737179565429,222.46898543167114,256.28037179565433Q221.92798543167115,257.30237179565427,221.44198543167116,257.3353717956543Q221.04598543167114,257.36037179565426,214.74798543167114,254.6083717956543Q209.35998543167113,252.2543717956543,200.11698543167114,247.9973717956543Q188.24598543167113,242.5303717956543,172.79198543167115,235.2193717956543Q171.18298543167114,234.4583717956543,170.58098543167114,232.80037179565429Z" fill-rule="evenodd" fill="#000000" fill-opacity="1"/></g><g><path d="M264.078984375,54.977216015625004Q264.078984375,54.980116015625,264.078984375,54.983016015625Q264.076984375,55.013616015625004,264.076984375,55.044416015625Q264.076984375,55.142916015625005,264.095984375,55.239516015625Q264.11598437500004,55.336116015624995,264.15298437499996,55.427116015625Q264.19098437499997,55.518116015625,264.24598437500003,55.600016015625Q264.299984375,55.681816015625,264.369984375,55.751516015625Q264.439984375,55.821116015625,264.521984375,55.875816015625Q264.602984375,55.930616015625,264.693984375,55.968316015625Q264.784984375,56.006016015625,264.881984375,56.025216015625Q264.978984375,56.044416015625,265.076984375,56.044416015625Q265.17198437499997,56.044416015625,265.26498437500004,56.026616015624995Q265.357984375,56.008916015625005,265.44598437499997,55.974016015625Q265.533984375,55.939116015625004,265.613984375,55.888316015625Q265.69298437500004,55.837516015625,265.761984375,55.772716015625Q265.830984375,55.707816015625,265.886984375,55.631116015625Q265.941984375,55.554516015625,265.982984375,55.468816015624995Q266.02298437499996,55.383116015625,266.045984375,55.291416015625Q266.069984375,55.199616015625,266.074984375,55.105216015625004L266.07598437499996,55.098816015625005Q266.477984375,48.534256015625,263.862984375,44.555716015625Q261.206984375,40.514556015625,255.559984375,39.259046015625Q255.504984375,39.246803015625,255.448984375,39.240830015625Q251.511984375,38.821569215625,135.757984375,37.888948015625Q135.732984375,37.888746015625,135.707984375,37.889819015625Q121.338184375,38.500716015625,113.981284375,54.629316015625Q113.976684375,54.639416015625,113.972384375,54.649616015625L33.498714375,241.953916015625Q33.487453375,241.979916015625,33.477704375,242.006916015625Q31.374254375,247.791916015625,33.159423375,250.603916015625Q33.199236375,250.665916015625,33.247875075,250.722916015625Q35.900254375,253.783916015625,42.169614375,256.552916015625Q42.172114375,256.554916015625,42.174624375,256.55591601562503Q42.368244375,256.641916015625,42.580064375,256.641916015625Q42.678554375,256.641916015625,42.775154375,256.621916015625Q42.871744375,256.602916015625,42.962744375,256.564916015625Q43.053734375,256.527916015625,43.135634375,256.472916015625Q43.217524374999996,256.417916015625,43.287164375,256.34891601562504Q43.356784375000004,256.278916015625,43.411484375,256.196916015625Q43.466284375,256.114916015625,43.503984375,256.023916015625Q43.541584375,255.932916015625,43.560884375,255.836916015625Q43.580084375,255.739916015625,43.580084375,255.641916015625Q43.580084375,255.568916015625,43.569684375,255.497916015625Q43.559284375000004,255.425916015625,43.538684375,255.356916015625Q43.518084375,255.287916015625,43.487784375000004,255.221916015625Q43.457384375000004,255.155916015625,43.417884375,255.095916015625Q43.378484375,255.034916015625,43.330674375,254.980916015625Q43.282894375,254.926916015625,43.227804375,254.879916015625Q43.172724375,254.832916015625,43.111464375,254.793916015625Q43.050214374999996,254.755916015625,42.984074375,254.726916015625Q42.978354375,254.723916015625,42.972644375,254.721916015625Q37.180804375,252.161916015625,34.810934375,249.471916015625Q33.619839375,247.483916015625,35.347674375,242.716916015625L115.805584375,55.449216015625Q122.646584375,40.460886015625,135.767984375,39.889086015625Q250.666984375,40.814866015625,255.183984375,41.224386015625Q259.99398437499997,42.310996015625,262.191984375,45.654266015625Q264.44098437499997,49.076716015624996,264.078984375,54.977216015625004Z" fill-rule="evenodd" fill="#000000" fill-opacity="1"/></g><g><path d="M127.90463103193359,78.52871573791504Q129.0530877319336,79.76231573791503,131.4087677319336,79.84591573791504Q131.42650773193358,79.84661573791504,131.4442577319336,79.84661573791504L139.1239877319336,79.84661573791504Q145.31108773193358,79.84661573791504,148.2380877319336,74.05701573791504Q152.1594877319336,66.16686573791503,153.7129877319336,61.97200573791504Q155.5785877319336,56.93432573791504,152.4751877319336,55.60853973791504Q152.3789877319336,55.56744473791504,152.2763877319336,55.54714573791504Q150.7672877319336,55.24862573791504,142.8514877319336,55.52876373791504Q134.3748977319336,55.82875373791504,132.8866477319336,60.87653573791504L127.0579367319336,74.73771573791504Q127.0029667319336,74.86841573791504,126.9865087319336,75.00931573791505Q126.7235177319336,77.26011573791504,127.90463103193359,78.52871573791504ZM131.4625677319336,77.84661573791504Q129.9489377319336,77.78941573791504,129.3684377319336,77.16591573791504Q128.8457107319336,76.60441573791505,128.9588177319336,75.37681573791504L134.7527277319336,61.59840573791504Q134.7760977319336,61.54284573791504,134.7926177319336,61.48487573791504Q135.8491777319336,57.77782573791504,142.9221877319336,57.52751573791504Q150.3066877319336,57.26617373791504,151.77858773193358,57.490145737915036Q153.0007877319336,58.13610573791504,151.8374877319336,61.27744573791504Q150.3209877319336,65.37225573791504,146.4470877319336,73.16691573791505Q144.0811877319336,77.84661573791504,139.1239877319336,77.84661573791504L131.4625677319336,77.84661573791504Z" fill-rule="evenodd" fill="#000000" fill-opacity="1"/></g><g><path d="M128.55352672851564,79.42311540222168Q128.1222947285156,78.03201540222167,128.93434672851564,75.42841540222167Q128.97969672851562,75.28291540222168,128.97969672851562,75.13061540222168Q128.97969672851562,75.03211540222168,128.96048672851563,74.93551540222168Q128.94126672851561,74.83891540222169,128.90357672851562,74.74791540222168Q128.86588672851562,74.65691540222168,128.81116672851562,74.57501540222168Q128.7564467285156,74.49321540222168,128.68680672851562,74.42351540222168Q128.61715672851562,74.35391540222167,128.53526672851564,74.29911540222167Q128.45337672851562,74.24441540222168,128.36238172851563,74.20671540222168Q128.27138772851563,74.16901540222167,128.17478872851564,74.14981540222168Q128.07818972851564,74.13061540222168,127.97969772851563,74.13061540222168Q127.90025272851562,74.13061540222168,127.82180372851562,74.14321540222168Q127.74335472851563,74.15571540222169,127.66787072851562,74.18051540222169Q127.59238672851562,74.20531540222169,127.52176072851563,74.24161540222168Q127.45113502851562,74.27801540222168,127.38713952851562,74.32511540222168Q127.32314402851563,74.37221540222168,127.26738472851562,74.42881540222169Q127.21162472851563,74.48531540222169,127.16549972851563,74.55001540222167Q127.11937472851562,74.61471540222168,127.08404172851563,74.68591540222168Q127.04870872851562,74.75701540222168,127.02505372851563,74.83291540222169Q126.02784672851563,78.03011540222168,126.64320672851562,80.01531540222169Q127.33426812851563,82.24461540222168,129.8359567285156,82.85481540222167Q129.92226672851564,82.87581540222168,130.0109267285156,82.88131540222167Q132.26491672851563,83.02131540222169,139.54254672851562,83.02131540222169Q147.42744672851563,83.02131540222169,150.8960467285156,75.55181540222168Q155.23204672851563,66.41625540222168,156.92444672851562,61.54422540222168Q157.94704672851563,58.60022540222168,156.61124672851562,56.995355402221676Q155.32724672851563,55.45276540222168,152.05744672851563,55.53375540222168Q151.96054672851562,55.53615640222168,151.86584672851563,55.55712140222168Q151.77124672851562,55.57808640222168,151.68234672851563,55.61683640222168Q151.59354672851563,55.65558640222168,151.51374672851563,55.71067840222168Q151.43404672851563,55.765770402221676,151.36634672851562,55.83515240222168Q151.29864672851562,55.90453540222168,151.24554672851562,55.98562540222168Q151.19244672851562,56.06671440222168,151.15594672851563,56.15649340222168Q151.11944672851564,56.24627140222168,151.10074672851562,56.34139640222168Q151.08214672851562,56.43652060222168,151.08214672851562,56.53344932222168Q151.08214672851562,56.63194040222168,151.10134672851564,56.72853940222168Q151.12054672851562,56.82513840222168,151.15824672851562,56.91613240222168Q151.19594672851562,57.00712640222168,151.25064672851562,57.08901940222168Q151.30544672851562,57.17091240222168,151.37504672851563,57.24055640222168Q151.4447467285156,57.31020040222168,151.52654672851563,57.36491840222168Q151.60844672851562,57.41963740222168,151.69944672851562,57.45732840222168Q151.79044672851563,57.49501940222168,151.88704672851563,57.51423440222168Q151.98364672851562,57.53344540222168,152.08214672851562,57.53344540222168Q152.09454672851564,57.53344540222168,152.10694672851562,57.53314540222168L152.10714672851563,57.53313540222168L152.10994672851564,57.53306540222168Q154.4096467285156,57.47663740222168,155.0740467285156,58.27484540222168Q155.6870467285156,59.01129540222168,155.03514672851563,60.88795540222168Q153.37854672851563,65.65711540222168,149.08214672851562,74.70941540222168Q146.1510467285156,81.02131540222169,139.54254672851562,81.02131540222169Q132.47605672851563,81.02131540222169,130.22762672851562,80.89071540222167Q128.89851672851563,80.53611540222168,128.55352672851564,79.42311540222168Z" fill-rule="evenodd" fill="#000000" fill-opacity="1"/></g><g><path d="M205.3662809448242,49.7356311708374Q205.4679809448242,49.5277891708374,205.4679809448242,49.2964391708374Q205.4679809448242,49.1979477708374,205.44868094482422,49.1013491708374Q205.4294809448242,49.004750170837404,205.39178094482423,48.9137561708374Q205.3540809448242,48.8227611708374,205.29938094482424,48.7408691708374Q205.2446809448242,48.658976170837406,205.17508094482423,48.5893321708374Q205.10538094482422,48.519688170837405,205.02348094482423,48.4649691708374Q204.9415809448242,48.410251170837405,204.85058094482423,48.3725601708374Q204.75958094482422,48.3348691708374,204.66298094482423,48.315654170837405Q204.56638094482423,48.2964391708374,204.4679809448242,48.2964391708374Q204.32748094482423,48.2964391708374,204.1924809448242,48.3351141708374Q204.05748094482422,48.3737901708374,203.93838094482422,48.448149170837404Q203.81928094482421,48.522508170837405,203.72528094482422,48.6267991708374Q203.63118094482422,48.731090170837405,203.56958094482422,48.857247170837404L203.56878094482423,48.858758170837405L141.15988794482422,176.51943917083742Q141.10945794482421,176.6234391708374,141.08372194482422,176.7354391708374Q141.0579909448242,176.8464391708374,141.0582839448242,176.96143917083742Q141.05858294482422,177.0764391708374,141.08489894482423,177.1884391708374Q141.1112159448242,177.3004391708374,141.16218094482423,177.4034391708374L168.09338094482422,231.77543917083742L168.0940809448242,231.7764391708374Q168.15608094482423,231.9014391708374,168.25008094482422,232.0054391708374Q168.3440809448242,232.1084391708374,168.4628809448242,232.1824391708374Q168.58158094482422,232.2554391708374,168.71598094482422,232.2944391708374Q168.85048094482423,232.3324391708374,168.9901809448242,232.3324391708374Q169.0886809448242,232.3324391708374,169.18528094482423,232.3134391708374Q169.28188094482422,232.2944391708374,169.3728809448242,232.2564391708374Q169.4638809448242,232.2184391708374,169.54578094482423,232.1634391708374Q169.62768094482422,232.1094391708374,169.69728094482423,232.0394391708374Q169.7669809448242,231.9694391708374,169.8216809448242,231.88843917083742Q169.87638094482423,231.8064391708374,169.9140809448242,231.7154391708374Q169.9517809448242,231.6244391708374,169.97098094482422,231.5274391708374Q169.9901809448242,231.4314391708374,169.9901809448242,231.3324391708374Q169.9901809448242,231.0984391708374,169.88628094482422,230.88843917083742L169.88558094482423,230.8874391708374L143.17279094482421,176.9564391708374L205.36558094482422,49.737141170837404L205.3662809448242,49.7356311708374L205.3662809448242,49.7356311708374Z" fill-rule="evenodd" fill="#000000" fill-opacity="1"/></g><g><path d="M242.73828094482423,100.13860637475585Q242.8282809448242,100.06850437475586,242.90128094482424,99.97980237475586Q242.97328094482424,99.89110037475587,243.02328094482422,99.78838137475586Q243.07428094482424,99.68566137475585,243.09928094482422,99.57423137475585Q243.12528094482423,99.46280037475586,243.12528094482423,99.34841537475586Q243.12528094482423,99.24992397475586,243.10628094482422,99.15332537475587Q243.08728094482422,99.05672637475585,243.0492809448242,98.96573237475586Q243.01128094482422,98.87473737475585,242.95728094482422,98.79284537475586Q242.9022809448242,98.71095237475586,242.83228094482422,98.64130837475587Q242.7632809448242,98.57166437475585,242.6812809448242,98.51694537475586Q242.59928094482422,98.46222737475586,242.5082809448242,98.42453637475586Q242.4172809448242,98.38684537475586,242.32028094482422,98.36763037475586Q242.22428094482422,98.34841537475586,242.12528094482423,98.34841537475586Q241.95908094482422,98.34841537475586,241.80158094482422,98.40232037475586Q241.64408094482422,98.45622537475586,241.5125809448242,98.55822437475587L141.44542194482423,176.16851537475586Q141.36759494482422,176.22881537475587,141.3030389448242,176.30321537475587Q141.23848394482422,176.37761537475586,141.1896799448242,176.46311537475586Q141.14087594482422,176.54871537475586,141.10969994482423,176.64211537475586Q141.0785239448242,176.73551537475586,141.06617394482421,176.83331537475584Q141.05382094482422,176.93101537475587,141.0607739448242,177.02921537475586Q141.06772394482422,177.12751537475586,141.09370694482422,177.22251537475586Q141.1196909448242,177.31751537475586,141.1637089448242,177.40561537475585Q141.20772694482423,177.49371537475588,141.26808794482423,177.57151537475585Q141.3029819448242,177.61651537475586,141.34275694482423,177.65721537475588L220.79118094482422,259.03141537475585Q220.9322809448242,259.17641537475583,221.11848094482423,259.25441537475587Q221.3046809448242,259.3334153747559,221.5066809448242,259.3334153747559Q221.6051809448242,259.3334153747559,221.70178094482424,259.3134153747559Q221.7983809448242,259.2944153747559,221.8893809448242,259.25741537475585Q221.98038094482422,259.21941537475584,222.06228094482424,259.1644153747559Q222.1441809448242,259.1094153747558,222.21378094482424,259.04041537475587Q222.28338094482422,258.9704153747559,222.33818094482422,258.8884153747558Q222.3928809448242,258.80641537475583,222.43058094482421,258.7154153747558Q222.46828094482422,258.62441537475587,222.4874809448242,258.52841537475587Q222.5066809448242,258.43141537475583,222.5066809448242,258.3334153747559Q222.5066809448242,258.13741537475585,222.4328809448242,257.95641537475586Q222.35898094482422,257.77441537475585,222.22218094482423,257.63441537475586L143.5567409448242,177.06201537475584L242.73828094482423,100.13860837475586L242.73828094482423,100.13860637475585Z" fill-rule="evenodd" fill="#000000" fill-opacity="1"/></g></g></g></svg>