<svg xmlns="http://www.w3.org/2000/svg" xmlns:xlink="http://www.w3.org/1999/xlink" fill="none" version="1.1" width="300" height="300" viewBox="0 0 300 300"><defs><mask id="master_svg0_2052_02588" style="mask-type:alpha" maskUnits="userSpaceOnUse"><g><rect x="0" y="0" width="300" height="300" rx="0" fill="#FFFFFF" fill-opacity="1"/></g></mask></defs><g mask="url(#master_svg0_2052_02588)"><g><g><g><path d="M45.7252,91.1987Q9.9292,205.943,9.77017,207.518Q9.68918,208.321,10.220236,209.895Q10.680587,211.26,11.415231,212.754Q13.04692,216.071,14.510670000000001,216.989Q16.74609,221.417,24.515,220.615L148.697,230.488Q148.82,230.497,148.943,230.483L271.585,215.734Q275.184,215.73,277.148,215.082Q279.697,214.241,279.92,212.264Q280.123,210.467,278.921,209.316Q277.897,208.335,275.904,208.006L237.623,198.664Q234.409,197.888,231.147,197.393Q228.668,197.017,226.683,196.902Q227.297,196.264,228.054,195.442Q228.151,195.337,228.221,195.212L287.645,90.2269Q287.654,90.2109,287.663,90.19460000000001Q290.015,85.7346,290.016,84.4198L290.016,77.41187Q290.016,77.21073,289.953,77.01989Q289.169,74.66318,285.302,73.362889Q281.874,72.209904,275.747,71.76181Q275.68,71.75686,275.612,71.75933L64.4881,79.43577Q49.6534,79.80972,45.7367,91.1636Q45.7307,91.1811,45.7252,91.1987ZM12.57301,209.102Q12.213519999999999,208.036,12.2406,207.768Q12.37438,206.442,48.0899,91.9562Q51.4502,82.2482,64.5507,81.91796L275.634,74.24315Q281.398,74.66951,284.511,75.71634Q287.022,76.56087,287.533,77.64569L287.533,84.4198Q287.533,84.4482,287.535,84.4767Q287.534,84.4793,287.534,84.4823Q287.52,84.5677,287.478,84.7094Q287.37,85.0721,287.121,85.6568Q286.591,86.904,285.475,89.0207L226.131,193.865Q224.649,195.47,223.773,196.305Q223.35,196.708,223.092,196.91Q223.021,196.966,222.975,196.997Q222.87,197.036,222.774,197.094Q222.677,197.151,222.593,197.225Q222.508,197.299,222.438,197.387Q222.368,197.474,222.315,197.57299999999998Q222.262,197.672,222.227,197.779Q222.193,197.886,222.178,197.998Q222.164,198.10899999999998,222.169,198.221Q222.175,198.333,222.2,198.44299999999998Q222.225,198.551,222.27,198.65300000000002Q222.314,198.756,222.376,198.848Q222.438,198.941,222.515,199.022Q222.592,199.102,222.683,199.167Q222.773,199.232,222.874,199.28Q222.974,199.328,223.082,199.358Q223.189,199.387,223.3,199.397Q223.411,199.40699999999998,223.522,199.397Q226.187,199.15300000000002,230.775,199.848Q233.93,200.327,237.041,201.077L275.362,210.429Q275.411,210.441,275.46,210.449Q276.726,210.652,277.204,211.11Q277.518,211.41,277.453,211.986Q277.408,212.382,276.37,212.724Q274.765,213.254,271.511,213.252Q271.436,213.251,271.362,213.26L148.77,228.003L24.5975,218.131Q24.4817,218.122,24.366300000000003,218.134Q17.96168,218.823,16.598399999999998,215.591Q16.54533,215.465,16.46618,215.354Q16.38703,215.243,16.28558,215.151Q16.18413,215.06,16.06524,214.993Q15.946349999999999,214.925,15.81569,214.886Q15.606390000000001,214.822,15.016919999999999,214.01Q14.34476,213.084,13.64327,211.658Q12.98098,210.311,12.57301,209.102Z" fill-rule="evenodd" fill="#000000" fill-opacity="1"/></g><g><path d="M52.70876719055176,96.18956360168457L12.662097190551759,214.61586360168457L12.663507190551758,214.61586360168457Q12.598167190551758,214.80986360168458,12.598167190551758,215.01386360168456Q12.598167190551758,215.07386360168456,12.604137190551757,215.13486360168457Q12.610107190551759,215.19586360168458,12.621997190551758,215.25486360168458Q12.633877190551758,215.31486360168458,12.651557190551758,215.37386360168458Q12.669247190551758,215.43186360168457,12.692557190551758,215.48786360168458Q12.715867190551759,215.54386360168456,12.744587190551758,215.59786360168457Q12.773297190551759,215.65186360168457,12.807147190551758,215.70186360168458Q12.840989190551758,215.75286360168457,12.879634190551759,215.79986360168456Q12.918280190551759,215.84686360168456,12.961355190551759,215.88986360168457Q13.004430190551759,215.93286360168457,13.051519190551758,215.97186360168456Q13.098609190551757,216.01086360168458,13.149260190551757,216.04486360168457Q13.199911190551758,216.07786360168458,13.253635190551758,216.10686360168458Q13.307359190551757,216.13586360168458,13.363640190551758,216.15886360168457Q13.419920190551759,216.18186360168457,13.478214190551757,216.19986360168457Q13.536508190551757,216.21786360168457,13.596255190551759,216.22986360168457Q13.656002190551758,216.24186360168457,13.716626190551757,216.24786360168457Q13.777249890551758,216.25386360168457,13.838167190551758,216.25386360168457Q13.934827890551757,216.25386360168457,14.030321190551758,216.23886360168456Q14.125814190551758,216.22386360168457,14.217832190551757,216.19386360168457Q14.309850190551758,216.16386360168457,14.396171190551758,216.12086360168456Q14.482492190551758,216.07686360168458,14.561029190551757,216.02086360168457Q14.639566190551758,215.96486360168458,14.708423190551757,215.89686360168457Q14.777280190551759,215.82886360168456,14.834792190551758,215.75086360168456Q14.892307190551758,215.67386360168456,14.937087190551757,215.58786360168457Q14.981867190551757,215.50186360168456,15.012827190551757,215.41086360168458L15.014237190551757,215.41086360168458L55.01626719055176,97.11696360168457Q60.27726719055176,88.59038360168456,71.45326719055176,88.09464360168457L281.08116719055175,83.09117360168457Q284.0851671905518,83.26009360168457,285.30516719055174,84.24983360168457Q286.2941671905518,85.05192360168456,286.0441671905518,86.66452360168456L286.0461671905518,86.66475360168457Q286.03116719055174,86.75900360168457,286.03116719055174,86.85437360168457Q286.03116719055174,86.91529360168457,286.03716719055177,86.97591360168457Q286.04316719055174,87.03654360168457,286.05516719055174,87.09628360168458Q286.06716719055174,87.15603360168457,286.08416719055174,87.21432360168457Q286.10216719055177,87.27262360168457,286.12516719055174,87.32890360168457Q286.14916719055174,87.38518360168457,286.17716719055176,87.43890360168457Q286.20616719055175,87.49263360168457,286.24016719055174,87.54328360168456Q286.27416719055174,87.59393360168457,286.3131671905518,87.64102360168457Q286.35116719055173,87.68811360168456,286.39416719055174,87.73118360168456Q286.43716719055175,87.77426360168457,286.4841671905518,87.81290360168457Q286.53116719055174,87.85155360168457,286.5821671905518,87.88539360168457Q286.6331671905518,87.91924360168457,286.68716719055175,87.94795360168457Q286.74016719055174,87.97667360168457,286.79716719055176,87.99998360168458Q286.85316719055174,88.02329360168457,286.91116719055174,88.04098360168457Q286.96916719055173,88.05866360168457,287.02916719055173,88.07054360168458Q287.08916719055173,88.08243360168457,287.15016719055177,88.08840360168458Q287.2101671905518,88.09437360168457,287.27116719055175,88.09437360168457Q287.38116719055176,88.09437360168457,287.49016719055174,88.07496360168457Q287.59816719055175,88.05556360168457,287.70116719055176,88.01735360168458Q287.80516719055174,87.97914360168457,287.90016719055177,87.92332360168457Q287.99416719055176,87.86751360168456,288.07816719055177,87.79584360168457Q288.16216719055177,87.72417360168457,288.23116719055173,87.63889360168457Q288.3011671905518,87.55360360168457,288.35516719055175,87.45737360168457Q288.40816719055175,87.36115360168458,288.44416719055175,87.25698360168457Q288.48016719055175,87.15283360168456,288.4961671905518,87.04399360168458L288.4981671905518,87.04422360168456Q288.96616719055174,84.02206360168456,286.86916719055176,82.32145060168457Q285.01316719055177,80.81622360168457,281.16716719055177,80.60916360168457Q281.11916719055176,80.60657360168457,281.0701671905518,80.60772360168457L71.34326719055176,85.61410360168458Q58.76886719055176,86.17186360168458,52.824167190551755,95.94196360168456Q52.75276719055176,96.05936360168457,52.70876719055176,96.18956360168457Z" fill-rule="evenodd" fill="#000000" fill-opacity="1"/></g><g><path d="M184.16894973754881,202.57798995361327L223.49894973754883,199.4170899536133L223.49894973754883,199.41558995361328Q223.61394973754884,199.40628995361328,223.72594973754883,199.37578995361326Q223.83794973754883,199.34528995361327,223.94194973754884,199.2945899536133Q224.04594973754882,199.2438899536133,224.13894973754884,199.1747899536133Q224.23194973754883,199.10568995361328,224.31094973754884,199.02048995361326Q224.38894973754884,198.93538995361328,224.45094973754883,198.8371899536133Q224.51194973754883,198.7388899536133,224.55394973754883,198.63098995361327Q224.59694973754884,198.5230899536133,224.61794973754883,198.40928995361327Q224.63894973754884,198.29538995361327,224.63894973754884,198.1795899536133Q224.63894973754884,198.11868995361328,224.63294973754884,198.0579899536133Q224.62694973754884,197.99738995361326,224.61594973754882,197.93758995361327Q224.60394973754882,197.87788995361328,224.58594973754882,197.81958995361327Q224.56794973754882,197.7612899536133,224.54494973754882,197.70498995361328Q224.52194973754882,197.6487899536133,224.49294973754883,197.59498995361326Q224.46394973754883,197.54128995361327,224.42994973754884,197.49058995361327Q224.39694973754882,197.4399899536133,224.35794973754884,197.3928899536133Q224.31894973754882,197.3457899536133,224.27594973754884,197.30278995361328Q224.23294973754884,197.25968995361328,224.18594973754884,197.2209899536133Q224.13894973754884,197.18238995361327,224.08794973754883,197.14848995361328Q224.03794973754881,197.11468995361327,223.98394973754884,197.08598995361328Q223.92994973754884,197.0572899536133,223.87394973754883,197.03388995361328Q223.81794973754882,197.01058995361328,223.75894973754882,196.9929899536133Q223.70094973754883,196.9752899536133,223.64094973754882,196.96338995361327Q223.58194973754883,196.95148995361328,223.52094973754882,196.94548995361328Q223.45994973754884,196.93958995361328,223.39894973754883,196.93958995361328Q223.34994973754883,196.93958995361328,223.29994973754881,196.9435899536133L223.29994973754881,196.94208995361328L184.48094973754883,200.06188995361327Q184.51094973754883,199.6181899536133,184.69894973754882,198.8579899536133Q184.7819497375488,198.52438995361328,184.68094973754881,198.1958899536133Q170.47994973754882,151.85048995361328,162.93394973754883,128.2345899536133Q159.16394973754882,116.43508995361329,157.05894973754883,110.32626995361328Q154.85694973754883,103.93643995361329,154.19494973754882,103.32854095361328Q154.18294973754882,103.31764295361329,154.17094973754882,103.30705195361328Q150.73694973754883,100.31615995361328,143.44194973754884,103.08239535361328Q143.23294973754884,103.16156095361328,143.06494973754883,103.30851395361329L22.20776973754883,208.95188995361326Q22.196179737548828,208.96188995361328,22.184839737548828,208.97288995361328Q19.73250073754883,211.22588995361326,19.188869737548828,214.0318899536133Q18.650219737548827,216.81188995361327,20.021162737548828,219.99488995361327L20.022533737548827,219.9938899536133Q20.058283737548827,220.07688995361326,20.105691737548828,220.1538899536133Q20.15309973754883,220.23088995361329,20.21116483754883,220.30088995361328Q20.269229737548827,220.36988995361327,20.336724037548827,220.42988995361327Q20.404218737548828,220.48988995361327,20.47971473754883,220.53988995361328Q20.555211737548827,220.58888995361326,20.63711573754883,220.62788995361328Q20.719019737548827,220.6658899536133,20.805598737548827,220.69188995361327Q20.892177737548828,220.71788995361328,20.98160273754883,220.73088995361329Q21.071027737548828,220.7438899536133,21.161407737548828,220.7438899536133Q21.222324737548828,220.7438899536133,21.28294973754883,220.73788995361326Q21.34356973754883,220.7318899536133,21.403319737548827,220.7198899536133Q21.463069737548828,220.7078899536133,21.521359737548828,220.6908899536133Q21.579659737548827,220.67288995361326,21.635939737548828,220.6498899536133Q21.69221973754883,220.6258899536133,21.745939737548827,220.59788995361328Q21.79965973754883,220.56888995361328,21.850309737548827,220.5348899536133Q21.900969737548827,220.5008899536133,21.948059737548828,220.46188995361328Q21.99514973754883,220.4238899536133,22.03821973754883,220.3808899536133Q22.08129973754883,220.33788995361328,22.11993973754883,220.2908899536133Q22.158589737548827,220.2438899536133,22.192429737548828,220.19288995361327Q22.22626973754883,220.1418899536133,22.25498973754883,220.08788995361328Q22.28370973754883,220.0348899536133,22.307019737548828,219.97788995361327Q22.33032973754883,219.9218899536133,22.34800973754883,219.8638899536133Q22.365699737548827,219.80588995361327,22.377579737548828,219.7458899536133Q22.38946973754883,219.6858899536133,22.395439737548827,219.62488995361326Q22.40140973754883,219.56488995361326,22.40140973754883,219.50388995361328Q22.40140973754883,219.24788995361328,22.300279737548827,219.0128899536133L22.30164973754883,219.0128899536133Q21.23346573754883,216.53288995361328,21.62651973754883,214.50388995361328Q22.01345973754883,212.50688995361327,23.853929737548828,210.8108899536133L144.52894973754883,105.32650995361328Q150.13994973754882,103.24778995361328,152.43694973754882,105.09326995361329Q152.48394973754884,105.17991995361328,152.54994973754881,105.32113995361328Q152.74494973754884,105.74010995361328,153.04694973754883,106.51362995361328Q153.66994973754882,108.11252995361328,154.71094973754882,111.13504995361328Q156.80694973754882,117.21698995361328,160.56894973754882,128.9903899536133Q168.08394973754883,152.5108899536133,182.20894973754883,198.60298995361327Q181.88294973754884,200.0819899536133,182.06394973754882,200.95488995361328Q182.22594973754883,201.7379899536133,182.76994973754884,202.1765899536133Q183.35794973754884,202.65068995361327,184.16894973754881,202.57798995361327Z" fill-rule="evenodd" fill="#000000" fill-opacity="1"/></g><g><path d="M151.29185265136718,102.95761959594726Q151.2923526513672,102.93999689594726,151.2923526513672,102.92236709594727Q151.2923526513672,102.86144979594727,151.28638265136718,102.80082609594727Q151.2804126513672,102.74020209594727,151.2685326513672,102.68045509594727Q151.2566426513672,102.62070809594726,151.2389626513672,102.56241409594726Q151.22128265136718,102.50412009594727,151.1979626513672,102.44784009594727Q151.17465265136718,102.39155909594727,151.1459326513672,102.33783509594727Q151.1172226513672,102.28411109594727,151.0833726513672,102.23346009594727Q151.0495326513672,102.18280909594726,151.0108926513672,102.13571909594727Q150.9722426513672,102.08863009594727,150.9291726513672,102.04555509594726Q150.8860926513672,102.00248009594726,150.8390026513672,101.96383409594726Q150.7919126513672,101.92518909594726,150.74126265136718,101.89134709594727Q150.6906126513672,101.85749709594727,150.6368826513672,101.82878709594726Q150.5831626513672,101.80006709594727,150.52688265136717,101.77675709594726Q150.4706026513672,101.75344709594727,150.4123126513672,101.73575709594726Q150.35401265136719,101.71807709594727,150.29426265136718,101.70619709594726Q150.2345226513672,101.69430709594727,150.1738926513672,101.68833709594726Q150.1132726513672,101.68236709594727,150.0523526513672,101.68236709594727Q149.9925426513672,101.68236709594727,149.9330126513672,101.68812709594727Q149.8734726513672,101.69387709594727,149.81477265136718,101.70533709594727Q149.7560626513672,101.71679709594727,149.69873265136718,101.73385709594727Q149.6414026513672,101.75091709594727,149.58598265136717,101.77341709594727Q149.53056265136718,101.79590709594727,149.47756265136718,101.82363709594726Q149.42456265136718,101.85135709594726,149.37448265136717,101.88405709594727Q149.3243926513672,101.91675709594726,149.27769265136718,101.95412309594727Q149.2309926513672,101.99149009594727,149.18809265136719,102.03317809594726Q149.14520265136719,102.07486709594727,149.1065226513672,102.12049009594726Q149.0678426513672,102.16611309594727,149.0337426513672,102.21524809594726Q148.9996326513672,102.26438209594727,148.97041265136718,102.31657109594727Q148.9411826513672,102.36876009594727,148.91712265136718,102.42351909594727Q148.8930626513672,102.47827809594726,148.8743826513672,102.53509909594726Q148.85570265136718,102.59192009594726,148.8425726513672,102.65027609594726Q148.82945265136718,102.70863109594727,148.8220026513672,102.76797809594727Q148.8145526513672,102.82732589594727,148.8128526513672,102.88711459594727L148.81136265136718,102.88707219594727L145.22585265136718,228.95536709594728Q145.2188326513672,229.20236709594727,145.30681265136718,229.43336709594726Q145.3947926513672,229.66436709594728,145.5643716513672,229.84336709594726Q145.73395565136718,230.02336709594726,145.95932765136718,230.12436709594726Q146.1846986513672,230.22536709594726,146.4315477513672,230.23236709594727Q146.63905965136718,230.23836709594727,146.8372036513672,230.17636709594728Q147.03534665136718,230.11436709594727,147.20256265136717,229.99136709594728L184.80494265136718,202.32656709594727L184.80404265136718,202.32536709594729Q184.9215426513672,202.23896709594726,185.0157426513672,202.12766709594726Q185.1099426513672,202.01636709594726,185.1757426513672,201.88616709594726Q185.24154265136718,201.75606709594726,185.2754426513672,201.61426709594727Q185.30924265136719,201.47236709594728,185.30924265136719,201.32656709594727Q185.30924265136719,201.26566709594726,185.30324265136719,201.20506709594727Q185.2973426513672,201.14436709594725,185.2854426513672,201.08466709594728Q185.2735426513672,201.0248670959473,185.25584265136717,200.96656709594725Q185.23814265136718,200.90826709594728,185.21484265136718,200.85206709594726Q185.19154265136717,200.79576709594727,185.16284265136719,200.74206709594728Q185.1341426513672,200.68826709594725,185.10024265136718,200.63766709594728Q185.0664426513672,200.58696709594727,185.0277426513672,200.53986709594727Q184.9891426513672,200.49276709594727,184.94604265136718,200.44976709594727Q184.9029426513672,200.40666709594728,184.85594265136717,200.36806709594725Q184.80884265136717,200.32936709594725,184.7581426513672,200.29556709594726Q184.7075426513672,200.26166709594725,184.6537426513672,200.23296709594726Q184.60004265136718,200.20426709594727,184.54374265136718,200.18096709594727Q184.4874426513672,200.15766709594726,184.4292426513672,200.13996709594727Q184.3709426513672,200.12226709594728,184.3111426513672,200.11036709594725Q184.2514426513672,200.09846709594729,184.1907426513672,200.09256709594726Q184.13014265136718,200.08656709594726,184.06924265136718,200.08656709594726Q183.8709426513672,200.08656709594726,183.68254265136719,200.14836709594726Q183.49414265136718,200.21026709594724,183.3344426513672,200.32776709594725L183.3335426513672,200.32656709594727L147.7801526513672,226.48336709594727L151.2933426513672,102.95766199594726L151.29185265136718,102.95761959594726Z" fill-rule="evenodd" fill="#000000" fill-opacity="1"/></g><g><path d="M257.3522980498047,79.5678758505249Q256.9346220498047,79.0572358505249,257.0289510498047,78.41032785052491Q257.1247790498047,77.7531358505249,257.6917476498047,77.3662738505249Q257.8332300498047,77.2697358505249,258.0041990498047,77.2594108505249L263.8369910498047,76.9071678505249Q263.87070104980467,76.90513285052491,263.9044310498047,76.9067658505249Q266.2456610498047,77.0201348505249,266.40463104980466,78.3327018505249Q266.5227310498047,79.3078658505249,265.96769104980467,79.7648258505249Q265.4614410498047,80.1816158505249,264.0998710498047,80.2553258505249Q262.4671710498047,80.3437158505249,259.7841010498047,80.4319658505249Q259.77389104980466,80.43229585052491,259.76369104980466,80.43229585052491Q257.9479300498047,80.43229585052491,257.3522980498047,79.5678758505249ZM258.3708400498047,78.8578258505249Q258.3483810498047,78.8231258505249,258.3215190498047,78.7917058505249Q258.2415920498047,78.6982258505249,258.25745204980467,78.5894558505249Q258.2656670498047,78.5331258505249,258.2966100498047,78.4855068505249L263.87750104980466,78.1484768505249Q264.64103104980467,78.18858885052491,265.0024610498047,78.3548678505249Q265.1658510498047,78.4300398505249,265.1721410498047,78.4819698505249Q265.2084510498047,78.7817958505249,265.1786010498047,78.8063658505249Q264.9871510498047,78.9639858505249,264.03276104980466,79.0156458505249Q262.4163310498047,79.1031558505249,259.7537110498047,79.1907958505249Q258.5854320498047,79.1893958505249,258.3708400498047,78.8578258505249Z" fill-rule="evenodd" fill="#000000" fill-opacity="1"/></g><g><path d="M267.11108394921877,77.49347245089722Q266.40433944921875,78.02319945089722,266.40433944921875,78.75894045089721Q266.40433944921875,79.91548045089722,268.96458544921876,80.25035045089722Q269.0205054492188,80.25767045089722,269.07682544921875,80.25478045089721Q272.50007544921874,80.07953045089722,273.15580544921875,80.07953045089722Q273.95078544921876,80.07953045089722,274.53307544921876,79.74412045089721Q275.4077054492187,79.24033045089722,275.4077054492187,78.23062945089721Q275.4077054492187,77.34158835089721,274.57867544921874,76.98119145089721Q273.9813054492187,76.72150445089721,272.9232854492187,76.81846745089722L268.34967544921875,76.99388645089722Q268.31446544921874,76.99523745089722,268.27963544921874,77.00056245089722Q267.6377604492188,77.09871245089721,267.11108394921877,77.49347245089722ZM267.67593644921874,78.66590045089721Q267.71733144921876,78.68836045089722,267.77703644921877,78.71425045089721Q268.1892254492187,78.89299045089722,269.07033544921876,79.01200045089722Q272.47398544921873,78.83804045089721,273.15580544921875,78.83804045089721Q274.16620544921875,78.83804045089721,274.16620544921875,78.23062945089721Q274.16620544921875,78.15561545089722,274.08371544921874,78.11975345089722Q273.77449544921876,77.98532845089721,273.0220554492187,78.05612845089722Q273.00491544921874,78.05774245089722,272.98769544921873,78.05840245089722L268.4357154492188,78.23299245089721Q268.12003544921873,78.28874545089721,267.85568144921876,78.48689045089722Q267.72531344921873,78.58460045089721,267.67593644921874,78.66590045089721Z" fill-rule="evenodd" fill="#000000" fill-opacity="1"/></g><g><path d="M253.76820245117187,92.77726381958007Q249.99299745117187,100.78098381958007,249.79055845117188,102.81478381958007Q249.66614545117187,104.06478381958007,250.41620325117188,104.84148381958008Q251.11357245117188,105.56368381958008,252.5196824511719,105.77068381958009Q252.56084245117188,105.77668381958009,252.60244245117187,105.77718381958007Q259.79378245117186,105.86538381958007,264.2022124511719,105.77718381958007Q268.9454124511719,105.68218381958008,271.41811245117185,101.52758381958007Q275.4653124511719,94.79482381958007,276.44571245117186,92.01499381958008Q277.0593124511719,90.27521381958007,276.0744124511719,89.33999481958008Q275.1970124511719,88.50686781958008,273.08071245117185,88.55529381958007L263.5078124511719,88.55529381958007Q255.83035245117188,88.18801781958008,253.76820245117187,92.77726381958007ZM251.02594645117188,102.93778381958008Q251.20724645117187,101.11628381958008,254.89354245117187,93.30162381958007L254.89855245117187,93.29072381958008Q256.6139524511719,89.46431381958008,263.4628124511719,89.79605981958008Q263.47781245117187,89.79678681958008,263.49281245117186,89.79678681958008L273.08791245117186,89.79678681958008Q273.09521245117185,89.79678681958008,273.1025124511719,89.79661381958007Q274.7123124511719,89.75864181958008,275.21951245117185,90.24029381958007Q275.6208124511719,90.62131381958008,275.2749124511719,91.60205381958008Q274.3364124511719,94.26313381958008,270.3541124511719,100.88788381958008Q268.23121245117187,104.45478381958007,264.1773124511719,104.53588381958008Q259.80184245117186,104.62348381958007,252.66036245117186,104.53638381958008Q251.70459245117186,104.38848381958007,251.30929845117188,103.97918381958007Q250.95845745117188,103.61578381958007,251.02594645117188,102.93778381958008Z" fill-rule="evenodd" fill="#000000" fill-opacity="1"/></g><g><path d="M277.68803090820313,89.34924256518555Q276.46813090820314,88.44716756518555,273.6270309082031,88.47219256518555L273.6270309082031,88.47293856518554Q273.5662309082031,88.47347356518554,273.50683090820314,88.48577756518554Q273.4473309082031,88.49808256518554,273.3914309082031,88.52168856518554Q273.33543090820314,88.54529556518554,273.28513090820314,88.57930656518555Q273.23483090820315,88.61331856518555,273.1921309082031,88.65644256518554Q273.1493309082031,88.69956756518555,273.1158309082031,88.75016556518554Q273.08223090820314,88.80076356518555,273.05913090820314,88.85691256518555Q273.03603090820314,88.91306156518554,273.02423090820315,88.97262756518555Q273.0124309082031,89.03219436518555,273.0124309082031,89.09291446218555Q273.0124309082031,89.15397916518555,273.0243309082031,89.21387056518554Q273.0363309082031,89.27376156518555,273.05963090820313,89.33017856518555Q273.0830309082031,89.38659456518555,273.11693090820313,89.43736756518555Q273.15083090820315,89.48814156518554,273.1940309082031,89.53132056518555Q273.2372309082031,89.57449956518555,273.28803090820315,89.60842556518554Q273.3387309082031,89.64235156518555,273.39523090820313,89.66571956518554Q273.45163090820313,89.68908856518554,273.5115309082031,89.70100156518555Q273.5714309082031,89.71291456518554,273.6324309082031,89.71291456518554L273.63793090820315,89.71289056518555L273.63793090820315,89.71363656518555Q276.06393090820313,89.69226956518554,276.9498309082031,90.34744556518555Q277.6256309082031,90.84720556518555,277.2712309082031,91.96230556518555L271.7979309082031,102.14703556518555Q269.18213090820313,107.02693556518554,264.6928309082031,107.52633556518555Q257.19327090820315,107.70953556518555,253.3118909082031,107.35653556518554Q251.67452090820314,107.20763556518554,251.11616790820312,106.21693556518555Q250.51449590820312,105.14943556518554,250.98828390820313,103.01083556518554L250.98755590820312,103.01063556518555Q251.00223190820313,102.94443556518554,251.00223190820313,102.87653556518555Q251.00223190820313,102.81543556518555,250.99031890820314,102.75563556518554Q250.97840590820311,102.69573556518554,250.9550369082031,102.63923556518554Q250.93166890820314,102.58283556518555,250.89774290820313,102.53213556518554Q250.86381790820312,102.48133556518555,250.82063790820314,102.43813556518555Q250.77745890820313,102.39493556518555,250.72668590820314,102.36103556518555Q250.67591190820312,102.32713556518554,250.61949590820313,102.30373556518555Q250.56307890820312,102.28033556518555,250.50318790820313,102.26843556518554Q250.44329690820314,102.25653556518554,250.38223190820312,102.25653556518554Q250.32968690820312,102.25653556518554,250.27789090820312,102.26543556518554Q250.22609480820313,102.27423556518555,250.17652580820314,102.29163556518554Q250.12695680820312,102.30913556518554,250.08102880820311,102.33463556518555Q250.03510090820313,102.36013556518554,249.99412390820314,102.39303556518554Q249.95314690820314,102.42593556518554,249.91828990820312,102.46523556518555Q249.88343290820313,102.50453556518555,249.85569090820312,102.54923556518554Q249.82794790820313,102.59383556518554,249.80811090820313,102.64243556518555Q249.78827390820314,102.69113556518555,249.77690890820313,102.74243556518554L249.77617990820312,102.74223556518555Q249.1995879082031,105.34493556518555,250.03462990820313,106.82653556518555Q250.91299190820314,108.38493556518554,253.1994309082031,108.59293556518554Q257.1589309082031,108.95303556518554,264.7495309082031,108.76683556518554Q264.77543090820313,108.76623556518555,264.80123090820314,108.76343556518555Q269.95953090820313,108.20443556518555,272.8914309082031,102.73473556518555L278.39093090820313,92.50127556518555Q278.4161309082031,92.45444556518555,278.4329309082031,92.40402556518555Q279.1034309082031,90.39593556518555,277.68803090820313,89.34924256518555Z" fill-rule="evenodd" fill="#000000" fill-opacity="1"/></g><g transform="matrix(0.8202414512634277,-0.5720174312591553,0.6377369165420532,0.7702543139457703,-13.926563831403428,168.2589753449687)"><ellipse cx="260.00414180755615" cy="96.17114186286926" rx="3.6471471786499023" ry="2.0744640827178955" fill-opacity="0" stroke-opacity="1" stroke="#000000" fill="none" stroke-width="1.2414928674697876" stroke-linecap="ROUND" stroke-linejoin="round"/></g><g transform="matrix(0.8202414512634277,-0.5720174312591553,0.6377369165420532,0.7702543139457703,-12.35299676180989,173.24592702502616)"><ellipse cx="268.72594356536865" cy="96.16212773323059" rx="3.6471471786499023" ry="2.0744640827178955" fill-opacity="0" stroke-opacity="1" stroke="#000000" fill="none" stroke-width="1.2414928674697876" stroke-linecap="ROUND" stroke-linejoin="round"/></g></g></g></g></svg>